<?xml version="1.0" encoding="UTF-8"?><svg version="1.1" viewBox="0 0 1047 747" xmlns="http://www.w3.org/2000/svg" xmlns:xlink="http://www.w3.org/1999/xlink"><defs><path d="M8291.7 580.912c-.88-.145-1.82-.218-2.84-.218 -3.79 0-6.36 1.613-7.71 4.839v23.978h-5.78V575.73h5.62l.09 3.902c1.9-3.018 4.58-4.527 8.06-4.527 1.12 0 1.97.146 2.56.437v5.37Z" id="d"/><path d="M8234.62 610.135c-4.57 0-8.3-1.498-11.17-4.495 -2.87-3.018-4.31-7.046-4.31-12.083v-1.062c0-3.351.63-6.337 1.9-8.96 1.29-2.643 3.08-4.704 5.37-6.182 2.31-1.499 4.81-2.248 7.5-2.248 4.39 0 7.8 1.447 10.24 4.34 2.43 2.893 3.65 7.035 3.65 12.426v2.404h-22.88c.08 3.33 1.05 6.026 2.9 8.086 1.87 2.04 4.25 3.06 7.12 3.06 2.04 0 3.76-.416 5.18-1.249 1.42-.832 2.65-1.936 3.72-3.309l3.52 2.747c-2.83 4.35-7.07 6.525-12.74 6.525Zm-.71-30.284c-2.33 0-4.29.853-5.87 2.56 -1.58 1.686-2.56 4.059-2.94 7.118h16.92v-.437c-.16-2.934-.95-5.203-2.37-6.806 -1.41-1.623-3.33-2.435-5.74-2.435Zm2.81-18.296h6.99l-8.37 9.179h-4.65l6.03-9.179Z" id="b"/><path d="M8294.85 592.308c0-3.309.65-6.286 1.94-8.929 1.31-2.644 3.12-4.683 5.43-6.12 2.33-1.436 4.98-2.154 7.96-2.154 4.6 0 8.32 1.592 11.15 4.777 2.85 3.185 4.27 7.42 4.27 12.707v.406c0 3.289-.63 6.244-1.9 8.867 -1.25 2.602-3.05 4.631-5.4 6.088 -2.33 1.457-5.02 2.185-8.06 2.185 -4.58 0-8.29-1.592-11.14-4.776 -2.83-3.185-4.25-7.4-4.25-12.645v-.406Zm5.81.687c0 3.747.86 6.754 2.59 9.023 1.75 2.269 4.08 3.403 6.99 3.403 2.94 0 5.27-1.145 7-3.434 1.72-2.311 2.59-5.537 2.59-9.679 0-3.705-.89-6.702-2.66-8.992 -1.74-2.31-4.08-3.465-6.99-3.465 -2.85 0-5.15 1.134-6.9 3.403s-2.62 5.516-2.62 9.741Z" id="e"/><path d="M8262.32 567.55v8.18h6.3v4.464h-6.3v20.95c0 1.353.28 2.373.84 3.059 .56.666 1.52 1 2.87 1 .67 0 1.59-.125 2.75-.375v4.683c-1.52.416-3 .624-4.43.624 -2.58 0-4.53-.78-5.84-2.341 -1.31-1.561-1.97-3.778-1.97-6.65v-20.95h-6.15v-4.464h6.15v-8.18h5.78Z" id="c"/><path d="M8173.43 564.053l14.86 37.091 14.86-37.091h7.78v45.458h-6v-17.702l.57-19.108 -14.93 36.81h-4.59l-14.89-36.716 .59 19.014v17.702h-5.99v-45.458h7.74Z" id="a"/></defs><g transform="translate(-2224-1404.38)"><g transform="matrix(0-.97937 1.7832 0 0 3435.51)"><path fill="#FFF" fill-rule="evenodd" d="M704.19 486.001c-.763-3.26-1.527-6.513-2.29-9.801 -.4-1.7-2.6-3.7-3.6-5 -1.9-2.5-3.8-5.1-5.7-7.6 -1-1.4-.3-3.1-.1-4.8 .4-3.5.8-6.9 1.2-10.4 .4-3 .5-3.2-1.2-5.5 -2-2.7-1.9-3-4.9-2.8 -1.8.1-5.4 1.2-6.6-.4 -1.8-2.2-3.6-4.5-5.5-6.7 -.8-1-11.9.8-13.3 1.5 -2.6 1.3-5.2 2.7-7.9 4 -2.1 1.1-3 .5-5.2-.1 -2.4-.6-3.8-1.3-6.1-.5 -2.9 1-5.7 2-8.6 3 -1.4.5-2.9-1.4-4-2.2 -2.8-2-5.5-4-8.3-5.9 -3.5-2.5-5.2-3.7-7.4-7.4l-10.5-18.3c-1.1-2-2.2-3.9-3.4-5.9 -.5-.9 1.3-4.3 1.7-5.3 .6-1.6 2.4-4.6 2-6.4 -.6-2.9-1.3-5.8-2-8.7 -.4-2-1.9-5.5-1.7-7.5 .2-1.2 1.7-3 2.2-4 1.061-1.904 2.113-3.808 3.161-5.712l4.554-2.927 -1.069-1.663 -1.489.958c1.639-2.986 3.279-5.971 4.943-8.956 2.4-4.3 5.2-5.5 9.3-8.1 2.1-1.3 3.1-1.4 3.4-4 .5-3.2 1-6.5 1.5-9.7 .6-3.8 8.2-4.5 9.6-8.2 1-2.6 1.5-6.2 4.1-6.9 .7-.2 2.6 3.3 4.7 2.9 .9-.2 3.1-1.1 4-.7 .5.3 2.4 1.7 2.9 1.4 2-1.2 4.1-2.7 6.2-3.7 3.9-1.8 8.8-3.5 13-4 1.1-.1 2.9-.7 4-.4 .9.3 2.2 1.1 3.2 1.1 1.1 0 2.1-1.3 3.2-1.5 .9-.2 2 .1 2.9.2 2.9.2 4.8.7 7.3-.8 2-1.2 3.9.4 6 1.3 -1.5 3.4-1.8 3.5-.1 6.8 .8 1.5-2.3 3.7-3.3 4.9 1.7 1.5 3.7 4.2 5.8 4.8 3.6 1 7.2 1.9 10.8 2.9 2.8.7 2 3.8 4.7 5 2.4 1 4.7.6 6.9 2.2 3.1 2.2 4.8 2.8 6.8-1.2 .5-.9-1.1-2.4-.6-3.2 .4-.7 1.2-2.9 1.9-3.1 3.5-1 5.2-1.5 8.7-.6 .8.2.1 1.8 1.1 2 1.6.3 3.2.7 4.9 1 1.3.3 1.4.9 2 2.2 .3.7 1.6-.8 2.2-.6 2.6.8 5.2 1.5 7.8 2.3 2.9.8 3.2.8 6-.5 3-1.5 3.3-1.9 6.2-.5 3.5 1.7 9 1.2 10.6-3.3 1-2.8 5.9-11.4 4-14.3 -1.2-1.8 1.4-5.7.8-6.3 -.7-.8-1.7.5-2.3.9 -.7.6-1.7-.9-2.5-.8 -1 .2-1.8 2.3-2.8 2.7 -.9.4-2.6.1-3.6.2 -2.2.1-3.2-2.3-5.3-2.7 -1.4-.2-2.5-1.1-3 .5 -.6 1.8-.6 1.7-2.4 2 -1.7.3-4.5-2-5.9-2.9 -2.6-1.5-7-8.9-4.2-12 -.9.1-1.8.2-2.8.3 -.4-3.1 3.6-3.9 5.2-3.9 3.2-.1 4.8-.1 7.6-1.7 -.9-.4-1.7-.9-2.6-1.3 .5-1.5 3.7-.9 5.2-.7 2.7.4 2.8-.4 4.9-1.8 1.4-.9 3.3-2.3 5-2.2 2.2.2 4.1.5 6.2-.2 -.5.9.4 1.7 1.3 2.1 1.5.7.9-1.2 2.4.9 .5.8 4.6 1.4 5.9 1.9 2.2.9 3.6-.4 5.8-.2 2.5.3 4.3-.6 6.4-2 1.8-1.1.8-4.2-.3-5.5 -1.6-1.8-3.5-2.1-5.2-3.7 -1.8-1.7-3.3-3.9-5.7-4.2 -.3 0-2.1-1.3-2.5-1.5 -1-.7-1.9-1.4-2.9-2.2 .1-.2.8-1.1.8-1.1 .9.2 1.8.4 2.7.5 -.8-2.9 1-3.8 3.2-3.8 -1-.8-2.4-1.6-2.9-2.8 .9 0 1.8-.1 2.7-.1 -.7-2.1 2.1-.6 2.5-1.8 .5-1.5-1.7-.8-2.4-.7 -2.2.4-4.7.4-6.3 2.5v-.8c-2.5.6-3.5 1-5.4 2.9 .1-.3.3-.7.5-1 -2.6-.3-1.4 2.9-.4 4.1 1.3 1.6 3.4.8 5.5.8 -1.5 2.7-3.2.7-4.9 1.6 -1.7.9-5.1 4-7 2.4 1.1-3.2-.3-2.8-3-4 1.3-.7 6.3-2.5 2.9-3.7 -1.1-.4-2.3-.1-3.4 0 -.8 0-1.9-1.2-2.6-1.7 1.4.1 3.2.8 3.9-.7 -1.5.8-5.4-1-6.3 0 -1 1.1-3.9 3.4-4.1 4.9 -.1.9-.1 2.9-.6 3.7 -.5.7-2.5.6-2.6 1.5 -.6 2.7-.4 4.8-2.7 6.2 -2.2 1.4-1.7 4-.6 6 .7 1.3 4.2 2.9 4 3.5 -.6 1.8-3.8-.5-4.9.6 -1.7 1.6-3.4 3.2-5.2 4.8 -.2-1.9.9-2.2 2.2-3 -1-.4-2.2-.4-3.3-.9 -1.8-.7-2.8-.2-4.4-.7 -.8-.2-1.8.5-2.6.7 -.7.3.3 1.6-.1 1.9 -1.4 1.2-2.4.1-3.6-.7 -1.3 1.5.1 2.9.9 4.2 1.2 2.1 1.2 1.9-.4 3.6 2.2 1.5 4.6 2 4.1 5.2 -1.3-1-2.2-2.2-3.6-.5 1.7.3 1.8 1.4.6 2.3 -1.3 1-.6 1.6-.1 3.1 -1.4-.3-2.6 0-3.2-1.5 -.6-1.3-1.2-.9-2.3 0 -1.1-3.8-1.9-4.2 1-6.6 -2.7 0-2.7-.3-4.4-2.8 -.9-1.4-1.6-3.8-2.8-4.8 -2.2-1.8-1.4-3.1-1.1-6.1 .2-2.7-.7-2.7-2.7-4.4 -2.7-2.1-5.8-5.1-9.1-5.6 -.9-.1-2.8-2.7-3.1-3.6 -.8-2.7-1-3.4-3.1-4.9 -.9 2.8-2 1.4-2.4-.6 -.4-2 0-1.5-2.1-.9s-3.4.8-2.1 3.2c.5.8-1.2 2.8.3 4 1.2.9 3.3 1.9 4.2 3.2 1 1.3.8 3.4 2 4.5 1.5 1.3 2.3 2.4 4.2 2.5 1.2.1 3.4 0 1.5 1.6 1.8 1.4 10.6 5.1 8.4 8.1 -.9-.5-3.5-4-4.5-3 -1.1 1-1.2 1.2-1.6 2.7 -.3 1.3.5 1.2 1.4 1.9 2.6 2-1.8 2.6-1.6 3.8 .2 1.7-3.2 4.8-3.2 1.9 -1.7 1-2.1 3.2-1.2 4.9 .9 1.7-2.7 2.3-3.1.9 -.8-2.5-9.2-2.2-5.9-5.9 .5.5 5 1 6.1.7 1.2-.3 3.3-.3 4.4-1 1.1-.7.1-1.5 1.3-2.1 .8-.4-1.2-5.7-1.8-5.7 -.7-.1-2.4-.1-2.2-1.2 .2-1.4-1.1-1.9-2.1-1.4 .2-1.2-2.3-3-3.3-2.9 -1.8.3-2.8-1.5-4.1-2.8 -2.3-2.3-5.5-3.4-6.2-6.5 -.7-2.9-.7-3.1-3.1-4.4 -1.3-.7-2.9-1.2-3.8 0 -.7.8-7.3 5.7-8.2 5.4 -2.2-.7-4.4-1.5-6.6-2.2 -1.1-.3-2.9 2-3.7 2.8 -.4.4.9 3.8 0 5 -.8 1.1-3.8 1.9-5 2.6 -3.6 1.9-4.7 4.8-6.8 8.5 -.6 1.1 2.1 2.1.8 3.9 -.8 1.1-3 2.9-2.3 4.3 -.8.2-2.6.3-3.1 1 -.4.6-1.3 2.7-2 2.8 -2.3.2-4.5.1-6.9 0 -2-.1-3.2 2.4-4.8 2.9 -1.5.5-4-2.7-2.3-4 -1.8.8-2.6-2.2-4.8-.9 -1.8 1-3.1-.5-4.7.7 .2-1.3.6-2.6.5-4 -.1-.7-.1-1.5-.2-2.2 -.1-.8-.8.2-1.1-.3 -1.4-2.1-.4-2.6.2-4.9 .6-2.2 2.2-5.8 1.3-7.9 -.9-2-.4-4.3-.1-6.4 -1.2 1-2.1-.9-1.6-2.1 .5-1.1 2.8-1.1 3.6-1.2 -.1-.3-.2-.5-.4-.7 2.2-1.9 3.2.7 5.1.2 2.7-.7 3.6-.8 6.2 0 2 .7 3.7-.4 5.6.3 1.3.5 3.7.8 5 .5 3.6-.8 3.1-7.7 3.1-10.6 0-.378.008-.721.014-1.033l4.322.179 .082-1.975 -4.568-.19c-.234-.602-.768-1.003-1.95-1.381 -1.5-.5-1.7-3.1-1.4-3.9 -1.4.3-.8-.5-1.4-.8 -.6-.3-2.2-.4-2.4-.6 -1.1-.9-1.5-1.4-2.8-1.3 -1 .1-1.6 0-2.2-1.1 .4 0 .8-.3 1.1-.3 -.9-.4-1.5-1.1-1.5-2.2 1.5-.1 3.2.1 4.5-.8 2.7-1.9 1.2 1.5 2.9 1.1 .6-.1 4-.7 3.9-1.6 -.3-1.6-.7-2.7-1.4-4.2 .7.1 2-.2 2.3.6 .4 1.1.2 1.2 1.2 1.3 2 .3 2.9.1 4.8-.7 -.5 0-.9-.4-1.4-.4 .607-.85 1.547-1.369 2.527-1.802l-.48.584 3.052 2.513 1.256-1.526 -2.556-2.104c.205-.087.407-.174.601-.265 2.1-1-.1-2.4.9-4.1 .5-.7 3.7-1.5 4.6-1.9 1.7-.8 2.6-.7 4.4-.5 -.6-.2-2.4-.4-2.4-1.2 0-.2 1.6-.3 1.8-.5 .3-.3 0-1.1.3-1.5 1.1-1.4 1.3-2.3 1.8-4.2 .2-.9 1.7-.7 2.2-1.4 1.9-2.3 3.8-1 6-1.7 .3-.1 0-1.2.6-1.3l1.8-.3c.9-.1 2 .2 2.9.3 -.3-1.8 1.2-1.3 2.4-1.5 -.7-.3-2.5-1.8-1.6-2.6 1.5-1.2.2-1.1-.3-2.6 -.5-1.7.5-2.5-.9-3.7 -1.1-.9-.8-1.5-.9-3.1 -.1-2.6.4-5.4 3.1-5.5 .136-.006.27-.021.403-.044l-.004 4.229 1.977.002 .004-5.103c1.091-.73 2.135-1.732 3.32-2.384 -1.4 2-2.1 6.3.9 7 -1.288 2.122-3.495 3.153-4.228 5.138l.001-.697 -1.977-.002 -.006 7.907 1.976.001 .004-4.268c.755 2.387 3.043 4.219 5.33 3.121 -.3.7-.7 1.5-1 2.2 2.5 1.4 4.6-2.1 6.7-2.3 .8-.1 2.8 1.2 3.1 2 .4 1.4 1.7 1.7 2.9 2.4 .1-.3.2-1 .2-1.3 -.7-.1-1.4-.1-2.1-.2 1.5-1 6.8-1.1 7.9-2.4 1.7-2.2 6.6-3.6 8.9-1.7 -.2-.1-1.1-.4-1.5-.7 .1 2.3 3.2 2.6 4.4 1.2 .5-.5.6-1.9 1-2.2 .3-.3.9 0 1.2-.3 .8-.7 1.8-1.1 2.4-2 -.3.9-.9 1.5-1.5 2.2 3.9 1.9 1.6-5.3 1.5-7 -.1-1.4.3-2.6 1.2-3.6 .8-1 .2-2.6 1.5-3.6 3.5-2.6 4.3 3.1 6.9 3.3 1.4.1 2.4-1.9 2.2-3.2 -.1-.8.5-4.1.3-4.2 -.4-.3-1.1.6-1.4.4 -.5-.4-1-1.1-1.5-1.7 -.4-.4-1.1-3.3-.7-3.5 2.4-1.1 5.4-2.6 8.1-2.3 2 .2 4 .5 6 .7 2.7.3.4-.7 2-1.7 1-.7 2.6-.2 3.8-1 .8-.5 2.8.2 3.8.4 -.6-1.8-4.2-2.5-5.8-3.2 .3-.4.3-1.1.6-1.5 -5.6 1.1-11.3 2.4-16.9 3.5 -.6.1-2.9 1-3.3.4 -1.1-1.8-1.4-2.1-3.2-2.8 -2.2-.9-2-.7-1.6-3.3 .3-1.8.4-2.6-.1-4.3 -.3-1.2-1.5-3.9-1.3-5.1 .2-1.1 2.5-2.8 3.2-3.7 1.8-2.1 4.2-3.4 6-5.5 .9-1.1 2.2-3.7 3.4-4.3 1.1-.5 2.9.6 2.2-1.7 -.8-2.8-2.9-4.1-5.7-4.2 -3.9-.1-4.2-.3-6.9 2.7 -1.7 1.9-2.6 3.5-1.2 5.9 1.2 2.2-9.2 7.6-10.1 8.8 -2.6 3.3-7.1 8.6-4.2 13.5 1.2 2.1 4.7 2 5.8 4.4 .8 1.7-2.1 3.2-3.4 4.3 -2.2 1.9-3.9 2.6-4.3 5.6 -.4 2.4-.3 5.9-1.2 8.1 -1.3 3-3.5 3-6.1 3.6 -1 .2-1 1.5-1.2 2.5 -.3 1.3-1.1.9-2.3 1 -1.8.1-2 .6-2.3-1.4 -.2-1.1-.7-2.7-.3-3.7 .8-2.1-2.3-4.6-3.5-6.3 -.5-.7-.2-2-.6-2.8 -.5-1-1.4-2.2-1.6-3.3 -.3-1.1.7-3-.5-3.2 -1-.3-1.2-2.1-1.6-3.1 -.7 2.9-1.3 3.1-3.5 4.8 -.038.026-.076.052-.113.079l.005-6.16 -1.977-.001 -.006 7.907h.041c-.765.767-1.535 1.537-2.45 2.075 -2.5 1.5-8.9.7-9-3.2 -.2-4.8-2-9.4-1.8-14.2 .2-4.1.5-4.1 3.5-6.6 1.7-1.4 3.4-2.2 5.4-3.2 1.573-.753 3.006-1.365 4.331-2.317l-.003 3.72 1.977.002 .004-5.54c1.531-1.713 3.065-3.335 4.691-4.865 3.7-3.5 5.4-7.9 8.1-12.3 2.7-4.3 6.1-7.5 9.4-11.2 3.2-3.6 6.1-7.6 10.4-9.5 3.203-1.468 6.361-2.669 9.593-3.751 .901-.197 1.707-.453 2.458-.797 .809-.255 1.625-.505 2.449-.752 1.9-.6 2.9-3.7 4.6-4.7 1.7-1 4.2-1.2 6-1 -2.3 2.6-3.4 3.7-4.3 7.2 2.2-.4 4-4.1 5.4-5.8l.6 3.3c1-1.3 2-2.6 2.9-3.9 .4-.6 2.9 0 3.6.1l-1.8 3c2.6 2 1.1-2.8 3.2-2 2.2.9 4.4 1.7 6.7 2.6 1.9.8-1.6 2.5-2.3 2.7 -1.6.3-3.8-.4-5.4-.5 .8 1.5 2.6 1 3.3 2.7 .2.4 2.4-.3 3.2-.2 1.9.2 3.7 1 5-.7 .6-.8 2.9 1 3.8 1.4 -.5 1.8-2.1.6-3.4.3 -.5 3.7 5.8 2.2 7.5 2.3 3.6.1 5.2 1 8.4 2.9 3 1.7 5.6 3.2 8.8 4.2 2.4.8 5.6 2.3 6.5 5.1 .9 2.8.8 2.7-.8 5.1 -1 1.5-1.3 2.4-2.8 2.9 -3.5 1.2-4.7 1.3-8.1.5 -6.5-1.5-11.8-3-17.8-6.1 1.8 1.8 6.8 5.1 6.8 7.8s-.5 8.1 2 9.1c2.7 1.2 6.3 4.3 9 3.2 1.6-.7.7-3.2-.8-3.2 -1.7 0-2.2-1.5-3.3-2.8 2.5-2.3 2.7-1.7 5.7-.7 2.5.9 5 1.7 7.5 2.6 -.2-.6-2.2-5.5-1.9-5.7 1.9-1.3 3.8-2.5 5.6-3.8 1-.7 2.8-2.6 4-2.2l6 1.8c.3-1.1 1.2-3.2.8-4.3 -.1-.299-2.085-3.476-2.199-3.104 .5-1.799.899-3.697 1.299-5.496 .2-.6-2-2.6-2.4-3.1l7.2.9c1.8.2 3 3 4.1 4.5 -1.2.1-4.7-.2-5.4.9 -1 1.8.9 3 2 4.5 1.3 1.6 3.1.6 5 .3 2.3-.3.6-2 1.9-3.6 .5-.7 2.6-1.2 3.4-1.6 2.2-1 4.4-2 6.5-3l9.9-4.5c1 3.1.9 3.1 3.8 3.8 1.9.5 2.9-3.1 4.5-2.9 2.5.3 3.9.7 6.2-.4 2.6-1.2 3.3-1.1 6.1-.5 -.4.7-.9 1.5-1.3 2.2 3.1.9 2.9 1.1 5-1.6 1.9-2.5.7-2.7-1.2-5.2 4.3-1.9 10.5-1.2 14.9.5 3 1.2 5.9 2.4 8.9 3.5 2.1.9 4.3 3.2 6.2 4.7 .1-1.1 1.2-4.9.4-5.5 -2.2-1.6-4.4-3.3-6.6-4.9 -1.4-1.1.9-4.1 1.5-5.6 .5-1.2-2.9-2.5-3.8-3.2 2.1-1.7 4.3-3.4 6.5-5.1 1.5-1.2 2.1-5.4 2.7-7.2 .8-2.3 11 .1 13.4.4 -.9 2.5-1.8 5-2.8 7.6 -.5 1.3 1.7 4.4 2.3 5.6 1.1 2.2-2.5 12.1-.7 13.3 2.1 1.4 4.5 1.7 3.4 4.4 -.6 1.5-1.4 5-2.7 5.8l-6.9 4.2c-1 .6-4.1-.5-5.4-.6 3 2.4 6.3 4.5 10.3 3.2 3.1-1 6.7-5.4 9-7.8 2.6-2.6-4.1-6.7 1.4-8.3 1.1-.3 4.1-1.9 4.9-1 1.4 1.6 2.8 3.3 4.2 4.9 -.3-2.1-.1-4.2-1.8-5.4 -2.3-1.6-2.5-1.6-5.2-1.2 -.6.1-6.1 1.3-6.2.8 -.4-1.5-1.8-4.1-1.1-5.5 .9-1.8 2.9-4.1 1.7-5.9 -.9-1.4-3.9-4.2-2.8-5.8 1.3-2.1 3.3-2.4 5.4-3.3 1.6-.7.2-4.4-.2-5.3 1.2-.3 3.5 2.9 2.8 4.2 -1.6 3.1-1.4 3 .3 6.1 1.1 2.1 9.6 2.1 11.8 2.2 -3.1-1.1-6.1-2.3-9.1-3.7 -3.5-1.6 2.5-4.2 3.9-4.6 4.2-1.3 5.9-.3 10 1.3 1.3.5 2.4 1.5 3.6 2.2 1.1.8 2.7.1 4-.1 -.4-1.1-.8-3.7-1.6-4.5 -.8-.8-3.8-.6-4.8-.8 -1.4-.2-1.7-6.4-2-8 4.6-.5 9.3-1 13.9-1.4 2.6-.3 5.3-.5 7.9-.8 1.7-.2 1.1-2 1.1-3.8 .1-3.4-.2-3.5 2.5-5.1 1.9-1.1 3.9-2.7 5.9-3.5 4.3-1.6 9.6-1.8 14.1-2.6 8.5-1.5 16.7-2.6 24.8-5.7 1.9-.7 1-3.8 2.6-4.6 2.4-1.2 4.8-2.5 7.2-3.7 2.9-1.5 8.1-1.5 10.2 1.6 -2.3.7-4.5 1.4-6.8 2.1l10.8 1.5c-1.5 1.3-3 2.6-4.4 3.9 2 .1 4 .2 6 .4 0-.8-.3-3.8.4-3.7 1.6 0 3.1.1 4.6.2 2.3.1 4.9-.4 6.9.9 2 1.4 5.4 2.8 7 4.8 .4.5 2.4 2.5 2.1 3.1 -.3.7-.9 3-1.6 3.4 -9.6 5.9-19.2 11.8-28.9 17.8 6.7-1.9 13.3-3.8 20-5.7 -1.7-.3-3.4-.5-5.1-.8 2.1-1.8 5.2-3.4 7.6-1.6 3.6 2.7 4.5 2.6 8.9 2.1 5.7-.5 11.6.7 17.3 1.3 -1.1.6-2.2 1.3-3.3 1.9 1.4.7 4 2.7 5.4 2.6l6.9-.3c1.4-.1 5.1.6 5.4-1.1 .5-3.5.2-3.4 3.3-3.4 2.1 0 4.4.2 6.6-.2 1.6-.3 4.9-1.7 6.4-1.2s3.6 4 4.7 5.3c.7.8-.8 5-.8 6.2 0 .9.2 6.1.8 6.5l6.3 3.6c.9.5 3.7-4.2 4.4-5.1 1.8-2.4 1.5-2.7 3.9-1.1 2.5 1.7 3 2.4 5.7 1.5 1.8-.6 3.9-1.9 5.6-1 1.2.6 4 2.9 5.4 2.3 2.1-.9 4.3-1.8 6.5-2.7 -.6-1.1-2.7-3.4-1.9-4.5 .6-.8 2.6-4.5 3.5-4.4 4.1.5 8.3 1.1 12.4 1.6 3.1.4 6.3 1.6 9.4 2.4 3.3.8 7.8 1.1 10.8 2.8 1.8 1 6 7.8 7.8 7.5 4.1-.7 8.3-1.4 12.4-2.1 3.4-.6 6.6 1 9.9 2 2 .6 2.9.3 3.6 2.4 .7 2.3.6 2.8-.1 5.1 3.5 1.2 6.2 2.5 9.8 1.8 4.2-.7 6.8-.9 10.9-.2 1.5.2 3.6 1.2 4.9.2 2-1.5 1.8-1.6 3.6.2 1.3 1.3 3.2 4 4.8 4.7 1.2.5 3.7-.4 4.9-.5 -.4-2.8-.8-5.5-1.2-8.3 5.9.5 11.8.9 17.7 1.4 4.6.3 9.1 3.6 13.3 5.6 4.8 2.4 9.5 4.9 14.2 7.6 2.9 1.7 3.3 1.8 4.5 5.1 1.4 3.7 1 4.9 4.6 4.9 -.4-1.5-.8-3-1.3-4.5 3.4 0 5.8.2 9 1.4 2.4.8 4.6 3.6 6.6 5.2 -1.2 1-3 3.2-4.4 3.6 -2 .9-4.4-.1-5.7-.3 -.1 2.3.4 3-1.6 3.9 -1.4.7-.2 2.8.1 4.2 -2.6-.3-3.5-.6-5.6-2.2 -1.3-1-4.1.7-4.5-.9 -.6-2.3-.3-4.4-2.5-4.6 -2.5-.2-4.9-.3-7.4-.5 -1.5-.1 1-4.6-2.2-4 -1.7.3-1 4.5-1.1 6.1 -.1 2.6-8.4 3.3-10.6 3.9 1.9 1.4 4.1 2 4.3 4.6 .2 3.1 1.4 4.3 3.1 6.7 .2.2-1.2 2.1-1.5 2.2 -.6.3-2.4-.5-3.1-.6 -1.2-.2-3.9-1.4-5-.8 -4.5 2.8-9.1 5.5-13.6 8.3 -3.5 2.1-7.4 3.3-9 7.4 -3.1-3.1-3.3-3.5-7.5-3 -3.9.5-4.2.8-6.6 4.3 0-1.3-.1-2.5-.1-3.7 -1.2.6-3.5 2.3-4.8 2.2 -1.7-.2-3.2-1.2-4.2.5 -2.3 3.6-4.5 7.3-6.8 10.9 1.2.4 5.4.9 5.1 2.4 -.9 3.5-1.1 3.7 1 6.5 -3.5 1.5-6.7 3.1-4.8 7.7 .3.8-2.7 2-3.5 2.2 -1.7.6-3.2.4-3.4 2.4 -.2 2.4.5 4.4-1.8 5 -2.8.7-3 .4-3.5 3.6 -.5 3.1-4.4 6.3-6.2 8.6 -2.3-10.9-10.2-31.6 2.8-37.9 3.7-1.8 5.9-2.4 8.1-6.1 2-3.5 4.4-5 7.6-7.4 2.2-1.6 5.1-2.5 5.8-5.4 .5-2.2 1-4.3 1.6-6.5 .1-.5 3.1-.8 3.7-.9 -2.1-.5-3.4-.7-5.5-.5 -1.6.2-2.5 2.7-3.4 4.1 -1.8 2.9-5.6 4.9-8.1 7 -1.2-3.2-.9-4.5-.2-8 -2.4 1.4-3.3 1.9-6 1.9 -2.7-.1-3.4-.2-5.6 1.5 -3.4 2.8-6.2 6-9.1 9.3 .9.8 3.1 1.9 2.5 3.1 -.3.5-3.3.7-4 .8 -3.2.4-6.3.8-9.5 1.1 1.1-.8 2.2-1.6 3.4-2.4l-9-1.8c-.8-.2-2.9 1.7-3.7 2.1 -1 .6-2.2 0-3.2-.1 -2.8-.5-5.2-.5-8-.4 -1.7.1-6.7-.7-8.1.6 -4.7 4.4-9.3 8.7-13.7 13.3 -4.1 4.3-8.8 7.4-13.5 10.8 .7 1.6 1.7 1.5 3.1 1.6 1.8.2 1.9-.1 2.6 1.7 .2.5.8 3.2 1.4 3.2 3.6.3 3.9.9 5.6-2.6 1.5-3 10 4 9.6 6.4 -1 5.6-2.3 11.2-3.5 16.8 -1.2 5.3-3.1 8.2-5.9 12.7 -2.7 4.2-4.9 8.3-8.4 11.8 -2.4 2.3-4.7 4.7-7.1 7 -1.3 1.3-4 1.3-5.7 1.7 -.8.2-1.6-2.2-2.4-2.4 -.6-.1-2.6 1.5-3.1 1.8 -2.7 1.6-2.7 2.3-3.7 5.5 -1.7 5-5.6 7.6-9.2 11.1 4 3.4 7.5 7.2 6.7 13 -.5 3.9-.1 4.8-3.3 6.5 -2.6 1.4-4.2 1.3-7.1 1.2 .3-2.2.6-4.4.9-6.7 .4-2.6-2-2.4 0-4.7 1.2-1.5.6-3.5-1.2-3.3 -1.7.2-4.3 1.3-4.9-1.3 -.3-1.3 1.4-4.6 1.8-5.9 .1-.2-3.6-2.6-4.2-2.6 -1.4 0-3.9 2.3-5 3 -1.7 1-3.4 2-5 3 -1.3-3.4 1.8-5.8 3.8-7.9 -2.1-1.6-2.1-2.1-4.4-1 -1.5.7-2.7 1.8-4 2.9 -1.7 1.4-2.8 2.3-4.8 3 -.4.1-4 1.4-3 2.5 1.4 1.5 2.7 2.9 3.8 4.6 1.5 2.4 1.4 2.1 3.8.9 3.5-1.7 6.2-.2 9.9.7 -4.1 3.4-8.1 6.9-12.2 10.3 1.7 1.5 3.9 2.7 4.9 4.9 1.3 2.8 2.6 5.6 3.9 8.5l-6.3-1.2c2.2 1.6 4.4 3.3 6.7 4.9 -1.6 1.2-3.3 2.3-4.9 3.5 2 .6 4.1 1.2 6.1 1.8 -2.5 4.7-4.7 10.6-7.9 14.6 -3.5 4.4-6.1 9.2-11 11.3 -5.3 2.2-10.6 4.4-16 6.4 -1.7.6-3.3 1.2-5 1.8 -1.4.5-1.1.5-.7 2.1 .2 1 .2 3.2-1.6 2.2 -.5-.3-1.1-2.7-1.3-3.4 .6-.1 1.1-.6 1.8-.8 -1.9-1.5-5.3-2.6-7.3-.9 -1.8 1.4-6.1 3.5-6.8 5.9 -.2.7-1.6 3.8-1.2 4.4 1.1 1.7 2.1 3.4 3.2 5.1 1.5 2.4 3.4 4.6 5.1 6.8 2.2 2.8 3.4 3.8 3.6 7.4 .1 2.2 1.3 7.4-.3 8.9 -4.6 4.3-9.2 8.3-14.2 12 -1.6-1.7.7-4.2-.5-5.5 -1.6-1.7-3.2-3.4-4.8-5.2 -2.9-3.1-5.1-4.8-9-5 .1-.9.2-1.9.4-2.8 -3.8.2-3.1.7-3.4 4.8 -.2 2.5-1.4 4.8-2.3 7 -.4 1-.1 2.1 0 3.1 .2 2 .2 1.7 2 1.6 .9 0 2.1 6 2.4 7.1 .5 1.8 4.1 3.5 5.5 4.6 1.2 1 3.5 3.2 4.1 4.7 .8 2.1-.1 5.2.5 7.5 .5 2.2 1.8 4.4 2.6 6.5 -3.2-.5-5.1-2.6-7.8-4.6 -2.4-1.9-2.6-3-3.6-6.2 -.7-2.2-1.4-7.2-2.9-8.8 -2.3-2.4-4.6-4.9-6.8-7.3 -1-1.1.4-7.1.6-8.8 .3-3.1-.4-6.6-.6-9.7 -.4-6.1-2.3-11.3-4.2-17.1l-3.6 4.5c-1.6 1.9-1.4 1.9-3.7 1.3 -2.4-.6-2.2-.3-1.9-3 .1-1.2 1.1-4.2.7-5.2 -1.6-3.8-2.5-7.1-5.6-9.6 -2.7-2.2-3.6-5.9-5-9.1 -1.4.9-3.3 3-4.9 3.2 -2.8.4-5.7.8-8.5 1.2 -.4 0-2.2 0-2.4.3 -.5.5.4 2.5-.1 3 -1.4 1.4-2.8 2.9-4.2 4.3 -3.9 4-7.9 8.1-11.8 12.2 -1.3 1.4-4 2-5.7 2.8 -2.1 1-1.3 2.6-1.3 5.1 .1 2.1.7 5.3.1 7.3 -.5 1.9-2.1 5-1.5 6.9 .8 3.1 1.2 4.5 3.2 6.8 1.7 2 2.5 4.2 3.6 6.7 1.9 4.5-5.7 8.4-6.3 2.4 -.3-2.7-.3-5.1-.2-7.8 .1-2.6-.8-3-2.6-4.9 -.2 1.8.1 3.8-1.4 4.7 -1.6 1-3.2 2.1-4.8 3.1 -4.4-8.4-8.2-17.1-12.1-25.9 -1-2.3-2.7-4.9-3.2-7.4 -.4-1.8-.1-4.1-.2-5.9 -.2-5.6-.3-11.2-.5-16.8 -1.2 1.6-2.4 3.2-3.5 4.9 -1.2 1.6-1.3 1.4-3.3 1.3 -2.2-.1-4.7-4.3-6.3-6 1.6-.3 4.9-.1 5.1-2.3 -.8.1-2 .4-2.8.2 -2.3-.5-4.8-2.7-6.9-3.9 -1.4-.8-2.3-4.5-3.1-6 -.8-1.7-12.7.9-14.6 1.2 -4.4.5-8.9-1.2-13.2-2.2 -1.9-.4-4.1-.2-5-2.2 -1.7-3.4-1.3-4.4-4.7-3.2 -2.9 1.1-4.6.7-7.6.2 -1.9-.3-3.1-2.6-4.8-3.4 -3.1-1.5-3.4-1.8-4.9-5.1 -1-2.2-1.4-5-3.7-5.3 -4-.6-3.9-.4-6.7 2.8 -.9 1.1 2.4 5.1 3.1 6.3 2.5 4.1 4.6 8.5 6.8 12.8 .3-1.9.6-3.9.9-5.8 1.6 2.9 1.3 5.8 1.4 9.2 2.8-.2 7.6.3 10.2-1.3 2.6-1.6 4.9-5.6 7-8 .2 2.4-.4 6.4 1.6 7.8 1.2.8 2.4 2 3.7 2.5 1.1.5 2.5.1 3.1 1.3 .5.9 1.3 3.4 2.3 3.5 1.7.3 1 1.5.9 3.3 -.1 1.8-3.8 4.8-4.9 6.2 -.1-.6-.5-1.1-.6-1.7 -1 2.2-1.5 3.3-1.5 5.7 0 2.1-.8 1.9-2.5 2.7 -1.8.9-3.6 1.7-5.4 2.6 -.147.067-.272.178-.381.321l-6.396-3.905 -1.03 1.687 6.701 4.092c-.233.807-.485 1.574-.994 1.805 -.8.4-2.2-.7-3.1-.3 -1.3.6-2.7 1.2-4 1.7 -1.8.8-1.6 3.3-3.2 3.9 -3 1.1-6 2.1-9 3.2 -.9.3-1 .8-1.6 1.7 -.7 1.2-1.6 1-2.9 1.2 -2.6.5-5.2 1.3-7.7 2 -1.9.5-2.3 2.7-4.4 2.7 -3.2 0-3.5.7-4.1-2.6 -.6-3.4-1.3-6.8-1.9-10.2 -1-5.3-3.5-8.7-6.2-13.3 -1.6-2.7-1.8-3.2-4.6-4.2 -1.6-.6-1.6-5.5-1.9-7.2 -.4-2.6-2.1-4.9-3.2-7.2 -.7-1.4-2.3-2-3.1-3.5l-5.4-9.6c-.9-1.6-1.6-4.3-3.7-3.8 .3-2 .5-3.9.8-5.9 -.8 2.4-1.6 4.7-2.3 7.1 -2.7-2.8-4.1-5.3-5.8-8.9 -1.9 2.4 1.5 6.4 2.5 8.6 2.2 4.5 4.4 9 6.6 13.4 1.3 2.7.8 5.7 2.8 7.8 .8.9 2.9 2.4 3.1 3.7 .3 2.3.7 4.5 1.1 6.8 .2 1.3.1 3.9 1.1 4.8 1.2 1.2 3.1 2.4 4 3.9 1.8 2.9 2.7 7.3 3.9 10.6 .4 1.1 3.6.9 4.4 1.9 1.2 1.4 2.5 2.9 3.7 4.3 2 2.4 6.2 5 3 8 2.2.7 4.5 5.1 6.2 4.6 5.9-1.6 11.7-3.2 17.6-4.7 1.1-.3 4.2-1.6 5.1 0 .6 1-1.5 6.6-1.8 7.8 -1.1 4.7-4.5 9.1-6.7 13.3 -1.9 3.5-3.5 7.3-6.2 10.2 -2.216 2.34-4.548 4.622-6.87 6.931l-3.402-6.347 -1.742.934 3.684 6.872c-4.61 4.635-9.071 9.446-12.37 15.11 -1.2 2-8.8 12.4-7.6 14.2 2.1 3.2 2.1 3.8 1.9 7.7 -.2 3.6 0 3.8 2.1 6.6 3.2 4.3 2.1 11 2.4 16.4 .2 4-3 8.7-6.3 10.2 -1.8.9-5.4 1.7-6.8 3.3 -1.8 2.1-3.5 4.1-5.3 6.2 -1.6 1.8-3.5 2.7-2.5 5 .7 1.6 3.1 5.2 2.9 6.9 -.2 2.1.1 6.7-.9 8.4 -.9 1.5-5.4 2.6-6.9 3.3 -2.5 1.2-1.9 2.3-2.2 5.4 -.1 1.6.2 6.1-.8 7.4 -2.9 4.2-5.7 9.1-9.1 12.8 -1.8 1.9-4.1 3.5-6.1 5.2 -1.1 1-3.3 3.8-4.8 4.1 -5.2 1.1-10.5 2.2-15.8 3.3 -2.4.5-4.8 1-7.3 1.5 -1.2.2-3.5-2.8-4.4-3.6 -2.9-2.6-2.8-2.5-2.3-6.6 .2-1.6-1.6-4.4-2.2-5.8 -1.2-3.1-2.5-6.1-3.7-9.2 -.7-1.8-3-3.2-4.3-4.5 -.9-.9-.9-5.1-1.1-6.4 -.5-3.5-1.1-7-1.6-10.5 -.7-4.7-3.1-8.4-5.1-12.6 -1.4-2.7-2.7-5.5-4-8.2 -.6-1.2.2-3.5.4-4.7 .9-6 1-11.6 3.9-16.8 2.8-5 1.1-8.9-.1-14.1 -.334-1.439-.668-2.872-1.002-4.302l4.301-6.224 -1.626-1.124 -3.283 4.751Zm-98.029-122.413l-2.098 1.348 -1.069-1.663 5.163-3.317c-.665 1.21-1.33 2.421-1.996 3.632Zm49.953-94.521l-3.578-.149 .082-1.975 3.332.138c.192.494.183 1.123.164 1.986Zm6.613-20.069l.776-.942 .496.409c-.416.175-.848.346-1.272.533Zm28.976-38.142l.003-3.678 1.976.002 -.002 2.804c-.631.422-1.278.753-1.977.872Zm1.969 8.882l-.001 1.023c-.023.013-.047.026-.071.039 .01.091.035.193.071.303l-.001 1.576c-.07-.222-.127-.449-.17-.679 -.145-.896-.062-1.628.172-2.262Zm-.001 1.023c1.072-.573 2.036-.833 2.329.439 1.1.2 1.4 2 .1 2.3 -.809.18-2.103-1.418-2.429-2.397v-.342Zm.016-19.282l-.001 1.747 -1.936-.001c.623-.625 1.244-1.249 1.937-1.746Zm-1.956-25.696l.004-4.187 1.976.002 -.002 2.367c-.069.078-.139.156-.209.235 -.569.632-1.157 1.144-1.769 1.583Zm44.162-43.434c-.44.097-.903.179-1.393.251 1-.3 1.7-.8 1-1.8 1.1-.1 3 .2 4-.4 1.2-.6 1.3-2 2.8-2 -1.291 1.515-2.519 2.495-3.949 3.152 -.825.26-1.644.525-2.458.797Zm116.826 256.672l.352.216 -1.03 1.687 -.047-.029c.203-.704.392-1.439.725-1.874Zm-35.489 62.41l.334.622 -1.742.934 -.052-.097c.485-.488.973-.974 1.46-1.459Zm-112.432 37.167l-.194.281 -1.627-1.124 1.213-1.754c.202.865.405 1.731.608 2.597Zm108.003-337.702c0 .001-.001.003-.001.004 0-.002.001-.003.001-.004ZM668.419 267.599l-3.95-.164 -.082 1.975 3.95.164 .082-1.975Zm-12.209 61.478l-3.326 2.137 1.069 1.663 3.326-2.137 -1.069-1.663Zm-16.63 10.686l-6.652 4.275 1.069 1.663 6.652-4.275 -1.069-1.663ZM847.6 289.8c-.6-.6-.6-2.3-1.3-2.7 -2.9-1.8-3.3 2.7-3.4 4.4 -1.6-2.8-2-3.9-.6-7 -1.2-.5-3.8-1.1-4.7-2.1 -.7-.9-.6-3.9-.8-5 0-.1-4-1.7-2.2-2.1 1.7-.4 2.2 1.6 3.9.3 -1.2-1.1-2.3-1.3-1.3-2.7 .5-.8 1.9-1.3 2.8-1.1 2 .3 5.2.2 6.9 1 -1.3.5-2.5 2.1-2.4 3.7 1.3-1.8 1.7-2.9 3.9-3.2 -1.1-3.4-1.8-1.2-4.7-2.1 .4-1.5 1.4-3.2.7-4.6 -.3-.6-1.6-3.6-2.6-2.4 -1.1 1.3-2.7 0-4.2-.6 -1.1-.4-2.9 1.3-4 1.5 -2.8.5-2.6-1-3.4 2.5 -.2 1-3.4 1.7-4.2 2.1 -2 .8-1.8.9-2.3 3.2 -.2 1-1.8 2.2-2.5 2.9 1.7.1 3.7 1.5 3.6 3.5 -.1 3 .4 4.2 1.6 7 .8 1.7 2.7 2.2 3.6 3.8 1.5 2.6 2 3.4 4.5 4.6 -2.1.6-2.5.4-3 2.7 -.3 1.4-.9 2.7-1.4 4.1 -.6 1.7-.4 2.7-.3 4.5 .2 2 .7 1.6 2.5 2 1.5.4 1.6 1.5 2.9 1.9 1.5.5 3 1 4.5 1.4 1.9.6 5.3-.6 7.3-.9 -.3-2.5-.8-4.8-.3-7.2 .7-3.7-.9-2-2.4-4.6 .4.1.9 0 1.4.1 -.2-.6-.3-1.8-.7-2.2 -.4-.4-1.7.1-2-.3 -1-1.2-.4-2.5.2-3.6 -.1.2 5.6.9 6.7.4 .2-1.6-1.2-2.2-2.3-3.2Zm-198.042 43.551l-6.652 4.275 1.069 1.663 6.652-4.275 -1.069-1.663Zm-19.956 12.824l-6.652 4.274 1.069 1.663 6.652-4.274 -1.069-1.663Zm-9.978 6.412l-6.652 4.274 1.069 1.663 6.652-4.274 -1.069-1.663Zm17.725 79.747l-5.29 5.877 1.469 1.323 5.29-5.877 -1.469-1.323Zm5.29-5.877l-2.645 2.939 1.469 1.322 2.645-2.938 -1.469-1.323Zm71.577 45.036l-4.496 6.505 1.627 1.124 4.495-6.505 -1.626-1.124Zm4.495-6.505l-2.248 3.253 1.626 1.123 2.248-3.252 -1.626-1.124Zm39.206-120.019l1.868 3.485 1.742-.934 -1.868-3.485 -1.742.934Zm3.736 6.969l3.736 6.969 1.742-.934 -3.736-6.969 -1.742.934Zm16.811 31.36l3.735 6.969 1.743-.934 -3.736-6.969 -1.742.934Zm11.207 20.906l3.736 6.969 1.742-.934 -3.736-6.969 -1.742.934Zm8.383-46.246l3.374 2.061 1.03-1.687 -3.374-2.061 -1.03 1.687Zm6.748 4.121l6.749 4.121 1.03-1.687 -6.748-4.121 -1.031 1.687Zm-37.546.313l3.736 6.968 1.742-.934 -3.735-6.968 -1.743.934Zm67.914 18.23l6.748 4.121 1.03-1.688 -6.748-4.12 -1.03 1.687Zm-20.245-12.362l6.748 4.121 1.03-1.687 -6.748-4.121 -1.03 1.687Zm-19.65 46.398l3.735 6.969 1.743-.934 -3.736-6.969 -1.742.934Zm-22.415-41.813l3.736 6.969 1.742-.934 -3.736-6.969 -1.742.934Zm11.207 20.906l3.736 6.969 1.742-.934 -3.736-6.969 -1.742.934Zm22.415 41.814l3.736 6.968 1.742-.934 -3.736-6.968 -1.742.934Zm18.565-61.124l6.749 4.121 1.03-1.687 -6.748-4.121 -1.031 1.687Zm-24.169 50.67l3.736 6.969 1.743-.934 -3.736-6.969 -1.743.934ZM693.641 258.575l.003-3.953 -1.977-.002 -.003 3.954 1.977.001Zm.006-7.907l.007-7.907 -1.977-.001 -.007 7.907 1.977.001Zm.01-11.86l.006-7.907 -1.977-.002 -.006 7.907 1.977.002Zm.038-47.442l.007-7.907 -1.977-.002 -.007 7.907 1.977.002Zm-49.557 43.306c-.379.061-.759.133-1.138.228 1.2-.9 1.8-1.9.5-3 .9-.3 1.6 0 1.9.9 1-.8 2-.3 3.2-.1 -.1-.2-.1-.5-.2-.8 .6.3.5-.2 1 .6l.4-.1c-1.1-.8-1.2-3.4-.3-4.6 -2 1.5-3.7-3.5-.5-4.3 -1.8-.3-3.5 1.5-4.8.6 .5 1.5-.8.4-1.7.1 .1.4.1.8.1 1.2 -1.8-1.4-.3-1.6.2-3.2 .5-1.7.3-1.2 0-2.5 -.2-1-.4-1.3.6-1.4 -.1-.4-.2-1-.4-1.3 -1.2 2.4-2.6 1.1-.9-.3 -1.4.6-1.3 1.9-1.5 3.1 -.1.8.1 3.2-1 2.2 -.6-.5-.1-.8.2-1.5 .6-1.4 0-1.4.2-2.4 .4-1.5.6-3.1 2-3.9 -.1-.2-.2-.3-.3-.5 -.968.872-1.562 2.025-2.688 1.37 1.795 1.168-.53 2.112-1.412 1.23 1.4-.3 1.4-.9-.1-1.2 .5-.7 1.6-1.1 1.7-1.5 .2-1 .5-1.7 1.2-2.4 -.3-.1-.5-.2-.8-.3l.6-.3c-.7-.2-1.1-.2-1-1 .3.1.7.1 1 .2 -.3-.6-.4-1.3-.7-1.9 .8-.4 1.7-.3 2.4.2 -.5-.4-.8-1-1.3-1.4 .1-.2.1-.5.3-.9 .3-.1.7-.1 1-.2 -.5-1.3.8-2.6 1.1-1 1.1-.5.3-.4 1 0 1.4-.8 3.5-1.2 5-.9 -.4 2.3-3.3 2.7-3.6 4.2h-1.2c.6 0 1.2.4 1.7.5 -.5.3-.7 1.1-1.2 1.5l.3.3c.7-1.5 7.1-2.2 8-.8 1.4 2.3-4.1 5.2-2.9 7.7 -1-.3-1.8.2-2.5 1 3.9.6 5.7.9 7 5.2 1 3.4 4.4 3.7 5.1 7.8 -.5-.9-1.4-1.2-2.4-.8 1.6 0 4.7 2.7 2.6 4.2 .5.6 6-1.6 5.6 1.6 -.3 3.1-1.9 4-4.2 5.7 .9.1 5.5 1 2.5 2.3 -1.484.618-2.662.816-3.865 1.019l-5.588-4.602 -1.257 1.526 4.364 3.593c-1.27.273-1.497-.94-2.654-1.036 -.9 0-2.6 1.3-3.4 1.7 -2.7 1.3-3.3-1.8-4.8 2 -2.7-2-4.8 1.9-6.7.6 1.1-1.2 3.5-2.4 3.9-3.9 .8-2.9 3-1.9 5.2-1.6 .2-1.1.9-1.7 1.6-2.5 -1.1.4-2.3.8-3.4 1.2 -.2.1-1.9-.9-2.5-.9 .2-.1.4-.2.6-.4 -1.5-.8-2.9 1.5-3.9-.3 0 .2-.1-.5-.2-.9 .9-.4 3.2-.8 3.8-1.6 .746-1.017.572-1.529.445-2.251l4.593 3.781 1.257-1.526 -6.104-5.026 -1.257 1.526 .204.168Zm15.797 10.447l.516.424 -1.256 1.526 -1.741-1.433c.048-.01.096-.022.146-.036 .84-.229 1.593-.356 2.335-.481Zm-14.49-9.37l-1.307-1.077c.421-.067.841-.119 1.262-.172 -.064.515-.015.906.045 1.249Zm-8.018-6.602c-.074.049-.149.1-.227.153 1 1 1.9 3 1.4 4.5 -.4 1.2-.8 2.3-1.1 3.5 -.4 1.3-1.2.3-2.2.6 -3.1.9-7.4 5.9-10.6 3.2 .3-.3.6-.8 1-1 -.7-.2-1.5-.3-2.3-.5 .6-.2 1.2-.6 1.8-.9 -.6-.1-1.1-.4-1.7-.5 1-.2 1.7-.6 2.3-1.5 .5-.8 2.5-.8 3.4-1 -1.4-.5-2.8.1-4.2.4 1.2-1.5 2.3-2.6 3.3-3.5 -1.5-.1-2.6-.6-4-1.2 .5-.5 1.7-1.3 1.5-2 -.5-1.6-.8-1.8.5-2.5 .8-.5 1.9.2 2.7.4 1.2.3 1.7-.5 2.7-1.3 -.8-.2-1.6-.5-2.4-.8 .332-.553.756-1.16 1.246-1.719l1.18.971 1.256-1.526 -.946-.779c1.005-.657 2.134-.906 3.264-.247 -.1.3-.3.6-.5.9 .8-.2 2.8-1.1 3.3-.5 .8 1 1.1 3.1 2.2 2.7 -.183 1.711-.479 2.377-1.183 2.978l-3.083-2.539 -1.256 1.526 2.649 2.182Zm-6.881-5.666l-4.924-4.055 1.256-1.526 5.158 4.247c-.539.353-1.042.824-1.49 1.334Zm8.571 4.497l3.022 2.487 -1.257 1.526 -3.455-2.844c.739-.495 1.283-.822 1.69-1.169ZM638.3 209.8c-.3 1.2.5 1.7 1.6 1.5 -1 2.1-3-.3-3.9-1.4 .1-.2.2-.4.4-.7 .3.2.6.5.9.7 0-.3.1-.6.1-1 .5.1.6.4.9.9Zm-4.4-.1c-.2-.2-.5-.1-.3-.6 .4 0 1 .1 1.4.2 -.8.9-.6 1.7-.6 2.9 -1.1-.8-.4-2-.5-2.5Zm1.6-2.1c-2.1-1.6 1-2.5 2-3.1 .7-.3.9 1.7-.6 1.9 .2.3.3.5.5.7 -1 .2-1.3.7-2.2 1.5 -.1-.2-.3-.5-.4-.7 .3-.1.5-.2.7-.3Zm2.1 4.8c.3.3 0 .4-.1.7l-.4-.4c.2-.1.4-.2.5-.3Zm534.9-112.6c-1-.7-5.4-3-5.6-4 -.5-2.3 3.8-4.6 3.9-.9 1.5-1.4 3.4-.9 5.2-.8 -.2.5 0 1-.1 1.5 2.1-.6 2.9-1 5-.3 .4.1 2.6.4 2.8.8 .1.3-.1 2.4-.4 2.5 -4 1.2-6.7 1.4-10.8 1.2Zm-331.6 24.7c-1.9-2.1-2.2-2.1-2-5 .1-2.1 2.4-1.4 3.2-2.9 1-2.1-1-2.2 1.2-3.8 .6-.4 4.1-2.3 3.9-3.1 -.4-1.9-1.1-2.8.1-4.2l4.8-5.4c2.3-2.5 4.9-4.7 7.4-6.9 2.2-2 6.6-2.8 9.3-3.9 3.6-1.4 6-1.7 9.8-1.7 4.1-1.2 7.9-1.7 11.3-4.5 1.5-1.2 10-3.1 9.6 1.3 -.3 3.6-8.5 5.1-10.6 5.8 -4.1 1.5-8.3 2.6-12.4 3.9 -3.4 1.1-5.4 3.6-8.5 5.5 -1.6 1-4.3 2-5.5 3.5 -1.3 1.7-2.6 3.5-4 5.1 -2.3 2.7-6.2 6.2-6.1 10.3 .1 5.2 3.2 7.4 6.9 10 -2.3 2-7.9.3-10.6.1 -3-.2-5.6-1.8-7.8-4.1Zm21.9 7.1c.7-.4 1.3-.8 2-1.2 .7.5 6.1 3.5 4.5 4.9 -1.6 1.3-6-2.3-6.5-3.7Zm-34.1 10.1c-2.3-2.3-1.6-3.7 1-4.7 2 .5 2.9.8 4.4 2.2 -.9.6-4.3 3.6-5.4 2.5Zm309.2-43.6c-1-1.2-2.9-2.6-2.4-4.2 .7-2.9 1.9-3.5 4.2-5.3 2.4-2 7.5 2.8 10 3.9 -.3-2-1.2-3.2.6-4 1-.4 2.6.6 3.5 1 3.5 1.4 7.1 2.7 10.6 4.1 -.9 1.2-2 1.8-3.2 2.6 -1.5.9-2.1.3-3.8-.4 .5.7.9 1.5 1.4 2.3 -1.4.2-2.7.5-4 .8 -.8.1-1.8-2.5-2.5-2.2 -2.6 1.1-5.4 3.5-7.2.6 -1 2.5-.9 2.6-3.3 2.8 -1.4.1-2.7-1.2-3.9-2ZM637.7 220.4c-.3-.5.3-.9-.7-1.1 .3-.3.8-.7 1.2-.8 .5.9.4 1.6-.5 1.9Zm513.9-110.9c-1.5-1.4-5-.2-6.9 0 1.4-.9 2.8-1.9 4.2-2.9 -1.1-.8-4.1-2.5-1.6-4.1 2.1-1.4 3.6.4 3.8 2.2 0 .1 3.8 1.8 4.3 2.1 2.1 1.4 2.4 1.4 3 4.1 -2.9 0-4.5.5-6.8-1.4Zm-146.9-36.7l1.8-1.8c1.5-2.6 3-5.1 5-7.3s4-2.3 6.8-1.3c-.6.5-1.1 1-1.7 1.5 .9-.1 3.5-.8 4.1-.1 1.4 1.6 1.7 2.4 3.7 2.6 .9.1 2.6 2.5 1.8 3.1 -1.3 1-1.9 1.4-3.4 1.7 -2.1.4-4.1.7-6.1 1.1 -1 .2-2.3-1.2-3-1 -2.3.8-7.1 4.1-9 1.5Zm-26.3-13.2c-.4-.4-3.1-2-3-2.5 .4-.8 1.2-3.9 2-4.1 .7-.2 3.8-.5 4-1.3 .6-2.2.4-2.9 2.4-3.5 1.8-.5 3.5-1.1 5.3-1.6 1.6-.4-.1-2 2.5-1.9 2.3.1 5.9 4 7.8 5.4 -3 .9-3 .5-2.4 3.9 .3 1.6 3.5 1.5 4.8 1.8 -.9 1-1.9 2-2.8 3 2.8-1.1 4.3-2.4 7-.9 1.2.7 0 2.4-.5 3.6 -.3 1 .7 3 1 3.9 -2.9.9-4.2 1.5-7.1.4 -3.1-1.2-4.7-1.2-8.1-.8 -2.8.2-3.8-2.7-5.6-5 -1.4-1.8-5.3-.5-7.3-.4Zm306.3 68l-4.2 1.2c-.2-.6-1.3-4.4-.9-4.6 1.4-.6 3.6-2.2 5.1-2.1l6.3.3c1.6 0 2.6 1.4 3.8 2.5 -2.1 2.4-4.5 2.3-7.5 2.9 -.9.2-1.7-.5-2.6-.2Zm-568.8 10.9c-.1.3-.3.5-.4.8 -.6.5-1.3 1.1-2 1.6 -.4-1.8 1.2-1.9 2.4-2.4Zm-9.1 7.7c.1-.3.1-.6.1-1 .7-.6 1.3-.7 1.9-.1 -.4.9-1.1 1.3-2 1.1Zm5-6.1c1.3 1 1.5 2 0 3 -.7-.2-1.5-.3-2.2-.5 .7-.8 1.4-1.7 2.2-2.5Zm-63.3 62.1c-.1.2-.2.5-.3.7 -.2-.2-.3-.4-.5-.7 .1-.5.3-1.7 1.5-.8l-.6.3c.7-.1 1 .1 1.6.2 -.7.4-.9.5-1.7.3Zm90.8-72.1c-1.6 0-3.1.6-3.5-1.5 1.1-.3 1.9-.2 2.9.1 1.4.4 1.2-.3 2.3-.9 -.1 1.1-.9 1.6-1.7 2.3Zm-100.5 89.1c-.6-1.2.2-1.8.9-1.6 -.2.6-.6 1.1-.9 1.6Zm73.4-75.5c-.9.6-1.9 1.3-2.9 1.9 0-2.3 1.4-1.9 2.9-1.9Zm-71.2 76c.8.1 1.1.7.6 1.6 -.4-.5-.6-1-.6-1.6Zm3.4 6.9c.3.7 0 1.4-.6 1.9h-.7c.1-.9.5-1.5 1.3-1.9Zm73.4-84.1c-.4-1.2 0-1.9 1.2-2 .9-.7 1.9-1.5 2.8-2.3 -1.4 1.5-2.7 2.9-4 4.3Zm6.9-8.3c1.7.6.7 1.1.1 2.2 -.8 0-1.6-.1-2.4-.1 .9-.9 1.6-1.2 2.3-2.1Zm-4.6 2.4c1.1-.4 1.9-.8 2.6.6 -.8.7-4.5 4.3-4.3 1.6 .1-1.8.1-1.7 1.7-2.2Zm7.9-3.2c-.3.8-.9 1.2-1.7 1.2 -.4-.1-.8-.3-1.2-.5 .5-1.5 1.8-1.4 2.9-.7Zm-11.9 7.5c1.2-.7 1.4 1.1 1.2 2 -1.2-.4-1.8 0-2.4.9 -.9 1.2-1.4.7-2.8.5 .8-.9.6-.5.8-1.7h.9c-.4-1.1.2-2.1 1.3-2.1 -.2.9-.3 1.7-.5 2.6 1.2-.6.7-1.7 1.5-2.2Zm-3.1 5c.3 2.3-.6 2.8-1.9 4.3 .3-.4.5-.9.7-1.3 -.7-.3-.5-.4-1-.8 1.3-.2 2.2-.5 2.2-2.2Zm1.5-.5c.5-1.2 1.2-1.9 2.3-1.8 -1.1 1.1-2.2 2.3-3.3 3.4 -.2-.5-.2-1.3-.2-1.8 .3.1.8 0 1.2.2Zm16.1-11.4c-1 .4-2 .9-3 1.4 -.7.2-1.4.5-2.1.7 1-1.3 3.6-3.1 5.1-2.1Zm1.3-2c.2 1.3-.3 1.8-1.3 1.1 -.1-.3-.2-.6-.3-1 .4-.2 1.2-.2 1.6-.1Zm172.4-23.4c1.8-.1 3.3.5 4 2.5 -2 .3-4 .7-5.9 1 .3-2.3-.3-3.2 1.9-3.5Zm205.4 217.7c1.8-1.2 5.7-2.4 4.7-5.4 2.6.1 4.8-1.5 6.4-3.9 1.4-2.1 5.7-1.5 8-1.8 1.3-.1.4 1.6 2.4.7 1.4-.6.2-1.6 1-2.6 .7-.8 2.4-2.3 2.4-3.4 .1-2.1.8-1.9 2.6-2.6 -.4.3-1.9 2.6-.6 2.6 1.4-.1 2.4-.8 3.7-1.4 2.1-1 3.6-3.4 4.3-5.6 .5-1.7 1.1-3.4 1.6-5.1 .2-.7-1.3-1.2-1-2.5 .4-1.6 2.9-7 4-2.9 -.5-2 .6-3.4 2.4-2.4 -.3 1.1-.8 2.2-.3 3.2s1.7 2.6 1.7 3.7c0 1.6.4 3.1-.9 4 -1.2.8-.8 1.9-.8 3.4 -2.1-1.1-1.8 1.3-1.8 2.8 0 2.3-.7 2.4-1.1 4.3 -.2.9.3 4.4.1 4.5 -1.5.9-1.8 2.3-3.5 2.9 .2-.8.3-1.6.5-2.4 -1.2 1-2 2.4-2.9 3.7 -.4-.7-.7-1.5-1.1-2.2 -1.6 2.3-5 3.5-6.6.8 -1.5 1-1.1 2.2.1 3.2 -2-.4-3 2.2-4 3.7 -1.9-1.7-3.5-3.2-.9-5.4 -1.7-.1-4.2-1.1-5.4.4 -.3.3-2.2.8-2.8 1.1 -1.1.7-1.8 1.3-2.7-.2 -.9 3.2-2.9.7-4.6 2.3 1 1.6 1.7.1 2.5 1.4 .3.5 1.5 2.1 1.2 2.8 -1.2 2.6-2 5.6-4.2 7.2 -2.7 2-2.5-3.2-1.5-4.8 .5-.8 1.5-3.3-.4-3.5 -1.6-.2.1 2.3-2.1 2.1 -.2-.9-.3-1.8-.4-2.7Zm43.7-81.6c1.7-1.9-1.8-2.8-1.5-4.5 .2-1.7 1.2-4.4.8-6 -.3-1.4-.7-1.6.4-2.4 1-.8 1.2.3 1.7-.2 1.3-1.3.5-3.2-.7-4.4 3.2-2.5 2.1 2.4 3 4.2 1.7 3.4-1 5-.4 8.4 .2 1 1.4 1.9 1.7 2.9 .4 1.5.8 3.1 1.2 4.6 .9 3.4 1.6 5.9 3.2 8.8 -2 0-1.8-3.5-3.8-3.1 -3.1.6-2.8 1.5-3.8 4.8 -.7 2.4.1 2.8 1.3 4.9 .9 1.6 3 4.4 1.3 6.2 .1-1.5-.8-3.7-2.6-3.4 -1.8.3-1.8 2.6-2.1 4.1 -1.1-2.7-.6-3.2-.6-6 0-.9-.7-2.1-.2-2.9 .9-1.5.9-1.6.6-3.4 -.6-2.8-1.6-2.9-.3-5.7 1.1-2.2.8-4.4.8-6.9Zm-5.9 36.1c1.1.3 2.1.5 3.2.8 .6-1 .5-1.7.4-2.8 -.2-1.2 1.6-2.2 1.3-3.2 -.3-.9-1.2-7.1.9-4.3 1.6 2.3 2.8 4.4 5.1 5.6 3.4 1.7 3.5 2.4 6.1-.3 .6 1.6-2.3 4.8 1.5 4.7 -1.4 1.7-3.1 2.1-5.1 2 -.7 0-2.2.9-2.6 1.5 -.2.3-1 3-.9 3 -1.1.5-3.9-1.9-4.8-2.7 -.5-.6-2.1.4-2.7.7 -.6.3-1.8-.9-2.9-.5 -.4 2.2 1.9 1.4 2.6 2.6 .6 1.1-.6 1-1.1.8 -.8-.2-1.4 1.6-1.9 1.4 -.4-.1-1.7-4.2-1.6-4.6 .4-1.4.6-1.4 1.8-2 .6-.3.6-2 .7-2.7Zm-367.8 35c-1 .9-2.6 1.6-1.7 3.3 -.7.2-8 2.2-6.2-1.3 .5-1 3.2-.5 3.9-.4 1.2.1 2.9-1.1 4-1.6Zm-28.7 2.8c-3.7.1-6.2-.1-9.6-1.2 .1-.5.5-1.5.8-1.8 2.1 1.3 2.8 1.7 5.1 1.4 1.2-.2 3.8.3 3.7 1.6Zm-52.7-98.5c.7-.4 1.1-1 .8-1.9 .4-.1.9-.1 1.2 0 -.5 1-.1 1.5.9 1.6 -2.3-4.5 5.5-.2.7.8 .4.2.7.8 1.1 1.1 -1.9.2-1.7 1.9-2 3.6 -.3-1.5-.1-2.7-1.5-2.6 -1.2.1-1.5-1.6-1.2-2.6Zm42.6-15.7c-1.7 1.1-3.8 1.5-4.8 3.4 .5-1.4-.1-2.3-.9-3.2 2.4-.7 3.3-.9 5.7-.2Zm-51.5 90.7c-.2-1.3-2.2-.7-1.7-2.7 .4.1.7.3 1.1.4 1-.6 5.1-2.8 4.7.8 -.3 1.8-.5 3.5-.7 5.3 -.2 1.7-1.6.8-1.7 1.8 -.1 1.6-1.2 1.5-2.2.5 -1.3-1.2 0-1.4.3-3 .1-.2-.9-.7-.8-1 .2-.6 1.1-1.6 1-2.1Zm628-121.2c2.2.2 4.7 2 6.7 3 -1 3.1-3.3 2.3-4.7.5 -1.2-1.6-3.9.6-5.8-.9 -.6-.5-1.4-2.1-.6-2.8 .6-.5 3.7.2 4.4.2Zm-595 39.2c-.1-2.8.2-6.3 3.6-5.4 -.8 1.1-1.8 1.8-.7 3.1 -1.2.4-2.1 1.3-2.9 2.3Zm7.2-17.2c-2.9-1.7.1-3.4.4-1.2h-.6c.1.4.1.8.2 1.2Zm-40.3 90.7c.7-.6 1.7-1.2 2.3-2 .6-.8-.3-1.6.7-1.8 .3 3 .1 4.2-.8 7 -1.2.1-3.5-2.1-2.2-3.2Zm434.9 38.8c-1.6.7-1.9 4.2-4.2 2.9 -1-3.4 0-2.7 1.3-5.5 .9.6 6.5-3 6.3 1.2 0 .6-1.4 1.8-1.7 2.3 -.5.5-1.2-1.1-1.7-.9ZM668 298.2c1.9-1.1 2.7-2.2 4 .2 -.6.5-1.3 1-1.9 1.5 -.7-.6-1.4-1.2-2.1-1.7Zm165.1 210.6l.1.3c.8 4 2.1 7.1.5 10.9l-1.8-1.8c.4 4.9.1 7.1-1.3 11.8 -2.1 6.9-4.1 13.9-6.2 20.8 -.6 1.9-1.1 3.8-1.7 5.7 0 .3-4.5 1.6-5.1 1.9 -.9.4-5.1-1.2-5.3-2.1 -.4-2.5-.7-5.1-1.4-7.5 -.7-2.6-1.3-4.6-.4-7.3 .7-2.2 3.3-4.5 3.6-6.9 .3-2.2-1.2-5.7-1.7-7.8 -.3-1.2.8-5.7 1.8-5.9 2.7-.5 4.5-1.3 7-2.6 2.2-1.2 3-3 4.7-5 2.1-2.4 3.1-2.5 3.2-5.9 .2-4.4 3.1.1 4 1.4Zm249.1-143.2c-.6 2.9-1.5 4.8-2.9 7.5 -1.3-2-3.1-3.9-2.6-6.6 .5-2.5 2.2-5.1 4.2-6.1 3.6-1.7 1.7 3.3 1.3 5.2Zm-41.3 21.6c-.6.2.3.9-.7.9 -.8-.1-1.2-.1-1.9-.6 -1.8-1-1.4-1.5-1.4-3.7 2.2-1.5 3.7-4.4 6.9-2.6 .1-.2.1-.5.2-.8 1.1.2 1.5 1.1 1.2 2.3 -1.2-.1-1.5 1.6-1.7 2.8 -.1 1.3-1.8 1.3-2.6 1.7ZM623.826 215.387l-1.257 1.526 -6.104-5.026 1.257-1.526 6.104 5.026Zm-9.156-7.539l-1.257 1.526 -6.104-5.026 1.256-1.526 6.105 5.026Zm-9.157-7.539l-1.256 1.526 -6.104-5.025 1.256-1.526 6.104 5.025Zm-9.156-7.539l-1.256 1.527 -6.104-5.026 1.256-1.526 6.104 5.025Zm-9.156-7.539l-1.257 1.527 -6.104-5.026 1.257-1.527 6.104 5.026Zm-9.156-7.538l-1.257 1.526 -6.104-5.026 1.256-1.526 6.105 5.026Zm-9.157-7.539l-1.256 1.526 -6.104-5.026 1.256-1.526 6.104 5.026Zm-9.156-7.539l-1.256 1.526 -6.105-5.026 1.257-1.526 6.104 5.026Zm-9.156-7.539l-1.257 1.526 -6.104-5.026 1.257-1.526 6.104 5.026Zm-9.156-7.539l-1.257 1.526 -4.942-4.069 1.257-1.526 4.942 4.069Zm107.248 119.242l-.082 1.975 -7.9-.328 .082-1.975 7.9.328Zm-11.851-.492l-.081 1.975 -7.901-.328 .082-1.975 7.9.328Zm-11.85-.492l-.082 1.975 -7.9-.327 .082-1.976 7.9.328Zm-11.85-.491l-.082 1.975 -7.9-.328 .082-1.975 7.9.328Zm-11.851-.492l-.082 1.975 -7.9-.328 .082-1.975 7.9.328Zm-11.85-.492l-.082 1.975 -7.9-.328 .082-1.975 7.9.328Zm-11.85-.492l-.082 1.975 -7.901-.328 .082-1.975 7.901.328Zm-11.851-.492l-.082 1.975 -7.9-.328 .082-1.975 7.9.328Zm-11.85-.492l-.082 1.975 -1.692-.07 .082-1.975 1.692.07Zm45.803 102.566l1.069 1.663 -6.652 4.275 -1.069-1.663 6.652-4.275Zm-9.978 6.412l1.069 1.663 -6.652 4.275 -1.069-1.663 6.652-4.275Zm-9.978 6.412l1.069 1.663 -6.652 4.275 -1.069-1.663 6.652-4.275Zm-9.978 6.412l1.069 1.663 -6.652 4.274 -1.069-1.663 6.652-4.274Zm-9.978 6.412l1.069 1.663 -6.157 3.956 -1.069-1.663 6.157-3.956Zm69.658 50.092l1.469 1.322 -5.289 5.877 -1.47-1.322 5.29-5.877Zm-7.935 8.815l1.47 1.322 -5.29 5.877 -1.469-1.322 5.289-5.877Zm-7.934 8.815l1.469 1.323 -5.29 5.877 -1.469-1.323 5.29-5.877Zm-7.935 8.816l1.469 1.322 -5.29 5.877 -1.469-1.322 5.29-5.877Zm-7.935 8.815l1.469 1.323 -5.29 5.877 -1.469-1.323 5.29-5.877Zm-7.935 8.816l1.47 1.322 -5.29 5.877 -1.469-1.322 5.289-5.877Zm-7.934 8.815l1.469 1.323 -5.29 5.877 -1.469-1.323 5.29-5.877Zm-7.935 8.816l1.469 1.322 -5.29 5.877 -1.469-1.322 5.29-5.877Zm-7.935 8.815l1.469 1.322 -5.289 5.877 -1.47-1.322 5.29-5.877Zm-7.935 8.815l1.47 1.323 -2.308 2.564 -1.469-1.323 2.307-2.564Zm142.729-29.48l1.626 1.124 -4.495 6.504 -1.626-1.123 4.495-6.505Zm-6.743 9.757l1.626 1.124 -4.495 6.505 -1.626-1.124 4.495-6.505Zm-6.743 9.758l1.626 1.123 -4.495 6.505 -1.626-1.124 4.495-6.504Zm-6.743 9.757l1.626 1.124 -4.495 6.505 -1.626-1.124 4.495-6.505Zm-6.743 9.757l1.626 1.124 -4.495 6.505 -1.626-1.124 4.495-6.505Zm-6.743 9.758l1.627 1.123 -4.496 6.505 -1.626-1.124 4.495-6.504Zm-6.743 9.757l1.627 1.124 -4.496 6.505 -1.626-1.124 4.495-6.505Zm-6.742 9.757l1.626 1.124 -4.495 6.505 -1.627-1.124 4.496-6.505Zm-6.743 9.758l1.626 1.124 -4.495 6.504 -1.627-1.123 4.496-6.505Zm-6.743 9.757l1.626 1.124 -4.495 6.505 -1.626-1.124 4.495-6.505Zm-6.743 9.757l1.626 1.124 -4.495 6.505 -1.626-1.124 4.495-6.505Zm184.388-132.11l1.743-.934 3.735 6.969 -1.742.934 -3.736-6.969Zm5.604 10.453l1.742-.934 3.736 6.969 -1.742.934 -3.736-6.969Zm5.604 10.453l1.742-.933 3.736 6.968 -1.742.934 -3.736-6.969Zm5.603 10.453l1.743-.933 3.735 6.968 -1.742.934 -3.736-6.969Zm5.604 10.454l1.742-.934 3.736 6.968 -1.742.934 -3.736-6.968Zm5.604 10.453l1.742-.934 3.736 6.969 -1.743.934 -3.735-6.969Zm5.603 10.453l1.742-.934 3.736 6.969 -1.742.934 -3.736-6.969Zm5.604 10.453l1.742-.934 3.736 6.969 -1.742.934 -3.736-6.969Zm5.604 10.454l1.742-.934 3.736 6.969 -1.742.934 -3.736-6.969Zm5.603 10.453l1.743-.934 3.735 6.969 -1.742.934 -3.736-6.969Zm5.604 10.453l1.742-.934 3.736 6.969 -1.742.934 -3.736-6.969Zm5.604 10.454l1.742-.934 3.736 6.969 -1.742.934 -3.736-6.969Zm5.604 10.453l1.742-.934 3.736 6.969 -1.743.934 -3.735-6.969Zm5.603 10.453l1.743-.934 3.432 6.403 -1.743.934 -3.432-6.403Zm-35.122-199.379l1.031-1.687 6.748 4.121 -1.03 1.687 -6.749-4.121Zm10.123 6.181l1.03-1.687 6.748 4.121 -1.03 1.687 -6.748-4.121Zm10.123 6.181l1.03-1.687 6.748 4.121 -1.03 1.687 -6.748-4.121Zm10.122 6.181l1.03-1.687 6.749 4.12 -1.031 1.688 -6.748-4.121Zm10.122 6.181l1.031-1.687 6.748 4.121 -1.03 1.687 -6.749-4.121Zm10.123 6.181l1.031-1.687 6.748 4.121 -1.03 1.687 -6.749-4.121Zm10.123 6.181l1.03-1.687 6.748 4.121 -1.03 1.687 -6.748-4.121Zm10.123 6.181l1.03-1.687 6.748 4.121 -1.03 1.687 -6.748-4.121Zm10.122 6.181l1.03-1.687 6.749 4.121 -1.03 1.687 -6.749-4.121Zm10.123 6.181l1.03-1.687 6.749 4.121 -1.031 1.687 -6.748-4.121Zm10.122 6.181l1.031-1.687 6.748 4.121 -1.03 1.687 -6.749-4.121Zm10.123 6.181l1.03-1.687 6.749 4.121 -1.03 1.687 -6.749-4.121Zm10.123 6.181l1.03-1.687 6.748 4.121 -1.03 1.687 -6.748-4.121Zm10.123 6.181l1.03-1.687 6.748 4.121 -1.03 1.687 -6.748-4.121Zm10.122 6.181l1.03-1.687 6.748 4.121 -1.03 1.687 -6.748-4.121Zm10.118 6.181l1.03-1.687 6.75 4.121 -1.03 1.687 -6.75-4.121Zm10.13 6.181l1.03-1.687 6.75 4.121 -1.03 1.687 -6.75-4.121Zm10.12 6.181l1.03-1.687 6.25 3.815 -1.03 1.687 -6.25-3.815ZM693.715 167.644l-1.977-.001 .006-7.907 1.977.002 -.006 7.906Zm.009-11.86l-1.977-.002 .007-7.907 1.977.002 -.007 7.907Zm.01-11.861l-1.977-.001 .006-7.907 1.977.001 -.006 7.907Zm.009-11.86l-1.976-.002 .006-7.907 1.977.002 -.007 7.907Zm.01-11.86l-1.977-.002 .007-7.907 1.976.002 -.006 7.907Zm.01-11.861l-1.977-.002 .006-7.907 1.977.002 -.006 7.907Zm.009-11.861l-1.977-.001 .007-7.907 1.977.001 -.007 7.907Zm.01-11.86l-1.977-.002 .007-7.907 1.976.002 -.006 7.907Zm.01-11.861l-1.977-.001 .006-7.907 1.977.001 -.006 7.907Zm.009-11.86l-1.977-.002 .005-5.986 1.977.001 -.005 5.987Z" transform="matrix(0 .59102-1.07611 0 2046.01 1029.74)"/><g transform="matrix(0 .36545-.66541 0 2311.01-1688.57)"><g fill="#FFF"><path d="M8123.1 588.499h-19.7v16.11h22.89v4.902h-28.88v-45.458h28.57v4.933h-22.58v14.611h19.7v4.902Z"/><path d="M8153.17 606.17c-2.25 2.644-5.55 3.965-9.9 3.965 -3.6 0-6.35-1.04-8.24-3.122 -1.87-2.102-2.82-5.203-2.84-9.304V575.73h5.77v21.823c0 5.121 2.09 7.681 6.25 7.681 4.41 0 7.35-1.645 8.8-4.933V575.73h5.78v33.781h-5.5l-.12-3.341Z"/><path d="M8183.89 580.912c-.87-.145-1.82-.218-2.84-.218 -3.79 0-6.36 1.613-7.71 4.839v23.978h-5.78V575.73h5.62l.1 3.902c1.89-3.018 4.58-4.527 8.05-4.527 1.12 0 1.98.146 2.56.437v5.37Z"/><path d="M8187.04 592.308c0-3.309.65-6.286 1.94-8.929 1.31-2.644 3.12-4.683 5.43-6.12 2.33-1.436 4.99-2.154 7.96-2.154 4.6 0 8.32 1.592 11.15 4.777 2.85 3.185 4.28 7.42 4.28 12.707v.406c0 3.289-.64 6.244-1.91 8.867 -1.25 2.602-3.05 4.631-5.4 6.088 -2.33 1.457-5.01 2.185-8.05 2.185 -4.58 0-8.3-1.592-11.15-4.776 -2.83-3.185-4.25-7.4-4.25-12.645v-.406Zm5.81.687c0 3.747.87 6.754 2.59 9.023 1.75 2.269 4.08 3.403 7 3.403 2.93 0 5.26-1.145 6.99-3.434 1.73-2.311 2.59-5.537 2.59-9.679 0-3.705-.88-6.702-2.65-8.992 -1.75-2.31-4.08-3.465-7-3.465 -2.85 0-5.15 1.134-6.9 3.403 -1.74 2.269-2.62 5.516-2.62 9.741Z"/><path d="M8232.88 567.55v8.18h6.3v4.464h-6.3v20.95c0 1.353.28 2.373.84 3.059 .56.666 1.52 1 2.87 1 .67 0 1.58-.125 2.75-.375v4.683c-1.52.416-3 .624-4.43.624 -2.58 0-4.53-.78-5.84-2.341 -1.31-1.561-1.97-3.778-1.97-6.65v-20.95h-6.15v-4.464h6.15v-8.18h5.78Z"/><path d="M8266.78 606.17c-2.25 2.644-5.54 3.965-9.89 3.965 -3.61 0-6.35-1.04-8.25-3.122 -1.87-2.102-2.82-5.203-2.84-9.304V575.73h5.78v21.823c0 5.121 2.08 7.681 6.24 7.681 4.42 0 7.35-1.645 8.81-4.933V575.73h5.77v33.781h-5.49l-.13-3.341Z"/><path d="M8286.64 575.73l.19 4.246c2.58-3.247 5.95-4.871 10.11-4.871 7.14 0 10.74 4.028 10.81 12.083v22.323h-5.78v-22.354c-.02-2.436-.58-4.236-1.69-5.402 -1.08-1.165-2.77-1.748-5.09-1.748 -1.87 0-3.51.499-4.93 1.499 -1.41.999-2.52 2.31-3.31 3.933v24.072h-5.77V575.73h5.46Z"/><path d="M8321.92 575.73l.19 4.246c2.58-3.247 5.95-4.871 10.11-4.871 7.14 0 10.74 4.028 10.81 12.083v22.323h-5.78v-22.354c-.02-2.436-.58-4.236-1.69-5.402 -1.08-1.165-2.78-1.748-5.08-1.748 -1.88 0-3.52.499-4.94 1.499 -1.41.999-2.52 2.31-3.31 3.933v24.072h-5.77V575.73h5.46Z"/><path d="M8365.76 610.135c-4.58 0-8.31-1.498-11.18-4.495 -2.88-3.018-4.31-7.046-4.31-12.083v-1.062c0-3.351.63-6.337 1.9-8.96 1.29-2.643 3.08-4.704 5.37-6.182 2.31-1.499 4.81-2.248 7.5-2.248 4.39 0 7.8 1.447 10.24 4.34 2.43 2.893 3.65 7.035 3.65 12.426v2.404h-22.88c.08 3.33 1.05 6.026 2.9 8.086 1.87 2.04 4.24 3.06 7.12 3.06 2.04 0 3.76-.416 5.18-1.249 1.42-.832 2.65-1.936 3.72-3.309l3.52 2.747c-2.83 4.35-7.07 6.525-12.73 6.525Zm-.72-30.284c-2.33 0-4.29.853-5.87 2.56 -1.58 1.686-2.56 4.059-2.94 7.118h16.92v-.437c-.16-2.934-.95-5.203-2.37-6.806 -1.41-1.623-3.33-2.435-5.74-2.435Z"/><path d="M8386.11 561.555h5.776v47.956h-5.776Z"/></g></g><g transform="matrix(0 .36545-.66541 0 2447.57-1612.61)"><g fill="#FFF"><path d="M8112.55 604.609h21.54v4.902h-27.57v-45.458h6.03v40.556Z"/><path d="M8146.3 609.511h-5.78V575.73h5.78v33.781Zm-6.24-42.742c0-.937.28-1.728.84-2.373 .58-.645 1.44-.968 2.56-.968s1.98.323 2.56.968c.58.645.87 1.436.87 2.373 0 .937-.29 1.717-.87 2.342 -.58.624-1.44.936-2.56.936s-1.98-.312-2.56-.936c-.56-.625-.84-1.405-.84-2.342Z"/><path d="M8154.17 592.339c0-5.266 1.22-9.449 3.65-12.551 2.44-3.122 5.66-4.683 9.68-4.683 4.12 0 7.34 1.457 9.65 4.371l.28-3.746h5.27v32.969c0 4.371-1.3 7.816-3.9 10.335 -2.58 2.518-6.06 3.777-10.43 3.777 -2.43 0-4.81-.52-7.15-1.561 -2.33-1.04-4.11-2.466-5.33-4.277l2.99-3.466c2.48 3.06 5.51 4.59 9.09 4.59 2.81 0 4.99-.791 6.55-2.373 1.59-1.582 2.38-3.809 2.38-6.681v-2.904c-2.31 2.664-5.47 3.996-9.46 3.996 -3.96 0-7.16-1.592-9.62-4.776 -2.43-3.185-3.65-7.525-3.65-13.02Zm5.81.656c0 3.809.78 6.806 2.34 8.992 1.56 2.164 3.74 3.247 6.55 3.247 3.65 0 6.32-1.655 8.03-4.964v-15.424c-1.77-3.226-4.43-4.839-7.96-4.839 -2.81 0-5.01 1.093-6.59 3.278 -1.58 2.186-2.37 5.422-2.37 9.71Z"/><path d="M8196.88 575.73l.19 4.246c2.58-3.247 5.95-4.871 10.11-4.871 7.14 0 10.74 4.028 10.8 12.083v22.323h-5.77v-22.354c-.02-2.436-.58-4.236-1.69-5.402 -1.08-1.165-2.78-1.748-5.09-1.748 -1.87 0-3.51.499-4.93 1.499 -1.41.999-2.52 2.31-3.31 3.933v24.072h-5.78V575.73h5.47Z"/><path d="M8240.71 610.135c-4.58 0-8.3-1.498-11.17-4.495 -2.88-3.018-4.31-7.046-4.31-12.083v-1.062c0-3.351.63-6.337 1.9-8.96 1.29-2.643 3.08-4.704 5.37-6.182 2.31-1.499 4.81-2.248 7.5-2.248 4.39 0 7.8 1.447 10.24 4.34 2.43 2.893 3.65 7.035 3.65 12.426v2.404H8231c.09 3.33 1.06 6.026 2.91 8.086 1.87 2.04 4.24 3.06 7.12 3.06 2.04 0 3.76-.416 5.18-1.249 1.41-.832 2.65-1.936 3.71-3.309l3.53 2.747c-2.83 4.35-7.07 6.525-12.74 6.525Zm-.71-30.284c-2.34 0-4.29.853-5.87 2.56 -1.59 1.686-2.56 4.059-2.94 7.118h16.92v-.437c-.16-2.934-.95-5.203-2.37-6.806 -1.41-1.623-3.33-2.435-5.74-2.435Z"/><path d="M8280.24 600.551c0-1.562-.59-2.769-1.78-3.622 -1.17-.874-3.22-1.624-6.15-2.248 -2.91-.624-5.23-1.374-6.96-2.248 -1.71-.874-2.98-1.915-3.81-3.122 -.81-1.207-1.22-2.644-1.22-4.309 0-2.768 1.17-5.11 3.5-7.024 2.35-1.915 5.35-2.873 8.99-2.873 3.83 0 6.93.989 9.3 2.966 2.4 1.978 3.59 4.506 3.59 7.587h-5.8c0-1.582-.68-2.945-2.03-4.09 -1.34-1.145-3.02-1.717-5.06-1.717 -2.1 0-3.75.458-4.93 1.374 -1.19.915-1.78 2.112-1.78 3.59 0 1.395.55 2.446 1.65 3.153 1.1.708 3.09 1.384 5.96 2.03 2.9.645 5.24 1.415 7.03 2.31s3.11 1.977 3.96 3.247c.88 1.249 1.32 2.779 1.32 4.59 0 3.018-1.21 5.443-3.63 7.274 -2.41 1.811-5.54 2.716-9.39 2.716 -2.71 0-5.1-.478-7.18-1.436 -2.09-.957-3.72-2.289-4.91-3.996 -1.16-1.728-1.74-3.59-1.74-5.589h5.77c.11 1.936.88 3.476 2.31 4.621 1.46 1.124 3.37 1.686 5.75 1.686 2.18 0 3.93-.437 5.24-1.311 1.33-.895 2-2.082 2-3.559Z"/><path d="M8314.8 575.73l.16 3.746c2.47-2.914 5.81-4.371 10.02-4.371 4.72 0 7.94 1.811 9.65 5.433 1.12-1.624 2.58-2.935 4.37-3.934 1.81-.999 3.94-1.499 6.4-1.499 7.41 0 11.18 3.924 11.3 11.771v22.635h-5.78v-22.292c0-2.414-.55-4.215-1.65-5.401 -1.1-1.207-2.96-1.811-5.56-1.811 -2.14 0-3.92.645-5.34 1.936 -1.41 1.269-2.23 2.986-2.46 5.151v22.417h-5.81v-22.136c0-4.912-2.4-7.368-7.21-7.368 -3.79 0-6.38 1.613-7.78 4.839v24.665h-5.77V575.73h5.46Z"/><path d="M8379.43 610.135c-4.58 0-8.31-1.498-11.18-4.495 -2.87-3.018-4.31-7.046-4.31-12.083v-1.062c0-3.351.64-6.337 1.91-8.96 1.29-2.643 3.08-4.704 5.37-6.182 2.31-1.499 4.81-2.248 7.49-2.248 4.39 0 7.81 1.447 10.24 4.34 2.44 2.893 3.65 7.035 3.65 12.426v2.404h-22.88c.08 3.33 1.05 6.026 2.9 8.086 1.88 2.04 4.25 3.06 7.12 3.06 2.04 0 3.77-.416 5.18-1.249 1.42-.832 2.66-1.936 3.72-3.309l3.53 2.747c-2.83 4.35-7.08 6.525-12.74 6.525Zm-.72-30.284c-2.33 0-4.29.853-5.87 2.56 -1.58 1.686-2.56 4.059-2.93 7.118h16.92v-.437c-.17-2.934-.96-5.203-2.37-6.806 -1.42-1.623-3.33-2.435-5.75-2.435Zm2.81-18.296h6.99l-8.36 9.179h-4.65l6.02-9.179Z"/><path d="M8407.12 567.55v8.18h6.31v4.464h-6.31v20.95c0 1.353.28 2.373.85 3.059 .56.666 1.52 1 2.87 1 .66 0 1.58-.125 2.75-.375v4.683c-1.52.416-3 .624-4.44.624 -2.58 0-4.53-.78-5.84-2.341 -1.31-1.561-1.96-3.778-1.96-6.65v-20.95h-6.15v-4.464h6.15v-8.18h5.77Z"/><path d="M8436.5 580.912c-.87-.145-1.82-.218-2.84-.218 -3.79 0-6.36 1.613-7.71 4.839v23.978h-5.78V575.73h5.62l.1 3.902c1.89-3.018 4.58-4.527 8.05-4.527 1.13 0 1.98.146 2.56.437v5.37Z"/><path d="M8448.09 609.511h-5.78V575.73h5.78v33.781Zm-6.25-42.742c0-.937.28-1.728.84-2.373 .59-.645 1.44-.968 2.56-.968 1.13 0 1.98.323 2.56.968 .59.645.88 1.436.88 2.373 0 .937-.29 1.717-.88 2.342 -.58.624-1.43.936-2.56.936 -1.12 0-1.97-.312-2.56-.936 -.56-.625-.84-1.405-.84-2.342Z"/><path d="M8455.92 592.339c0-5.307 1.22-9.501 3.66-12.582 2.43-3.101 5.7-4.652 9.8-4.652 4 0 7.15 1.343 9.46 4.028l.25-3.403h5.31v46.769h-5.78v-16.11c-2.33 2.498-5.43 3.746-9.3 3.746 -4.08 0-7.34-1.581-9.78-4.745 -2.41-3.185-3.62-7.4-3.62-12.645v-.406Zm5.78.656c0 3.871.81 6.91 2.43 9.117 1.65 2.206 3.85 3.309 6.62 3.309 3.44 0 6.06-1.519 7.87-4.558v-16.548c-1.83-2.976-4.43-4.464-7.8-4.464 -2.8 0-5.01 1.113-6.66 3.34 -1.64 2.207-2.46 5.475-2.46 9.804Z"/><path d="M8514.52 606.17c-2.24 2.644-5.54 3.965-9.89 3.965 -3.6 0-6.35-1.04-8.24-3.122 -1.88-2.102-2.83-5.203-2.85-9.304V575.73h5.78v21.823c0 5.121 2.08 7.681 6.24 7.681 4.42 0 7.35-1.645 8.81-4.933V575.73h5.77v33.781h-5.49l-.13-3.341Z"/><path d="M8542.94 610.135c-4.58 0-8.31-1.498-11.18-4.495 -2.87-3.018-4.31-7.046-4.31-12.083v-1.062c0-3.351.64-6.337 1.9-8.96 1.3-2.643 3.08-4.704 5.38-6.182 2.3-1.499 4.8-2.248 7.49-2.248 4.39 0 7.8 1.447 10.24 4.34 2.43 2.893 3.65 7.035 3.65 12.426v2.404h-22.88c.08 3.33 1.05 6.026 2.9 8.086 1.87 2.04 4.25 3.06 7.12 3.06 2.04 0 3.76-.416 5.18-1.249 1.42-.832 2.65-1.936 3.72-3.309l3.52 2.747c-2.83 4.35-7.07 6.525-12.73 6.525Zm-.72-30.284c-2.33 0-4.29.853-5.87 2.56 -1.58 1.686-2.56 4.059-2.94 7.118h16.93v-.437c-.17-2.934-.96-5.203-2.38-6.806 -1.41-1.623-3.33-2.435-5.74-2.435Z"/><path d="M8582.46 600.551c0-1.562-.59-2.769-1.78-3.622 -1.16-.874-3.21-1.624-6.15-2.248 -2.91-.624-5.23-1.374-6.96-2.248 -1.71-.874-2.98-1.915-3.81-3.122 -.81-1.207-1.22-2.644-1.22-4.309 0-2.768 1.17-5.11 3.5-7.024 2.35-1.915 5.35-2.873 8.99-2.873 3.83 0 6.93.989 9.31 2.966 2.39 1.978 3.59 4.506 3.59 7.587h-5.81c0-1.582-.68-2.945-2.03-4.09 -1.33-1.145-3.02-1.717-5.06-1.717 -2.1 0-3.75.458-4.93 1.374 -1.19.915-1.78 2.112-1.78 3.59 0 1.395.55 2.446 1.65 3.153 1.11.708 3.09 1.384 5.97 2.03 2.89.645 5.23 1.415 7.02 2.31 1.79.895 3.11 1.977 3.97 3.247 .87 1.249 1.31 2.779 1.31 4.59 0 3.018-1.21 5.443-3.62 7.274 -2.42 1.811-5.55 2.716-9.4 2.716 -2.71 0-5.1-.478-7.18-1.436 -2.08-.957-3.72-2.289-4.9-3.996 -1.17-1.728-1.75-3.59-1.75-5.589h5.77c.11 1.936.88 3.476 2.31 4.621 1.46 1.124 3.38 1.686 5.75 1.686 2.18 0 3.93-.437 5.24-1.311 1.34-.895 2-2.082 2-3.559Z"/><path d="M8262.1 656.499c0-1.561-.59-2.768-1.78-3.622 -1.16-.874-3.22-1.623-6.15-2.247 -2.91-.625-5.24-1.374-6.96-2.248 -1.71-.875-2.98-1.915-3.81-3.123 -.81-1.207-1.22-2.643-1.22-4.308 0-2.768 1.17-5.11 3.5-7.025 2.35-1.915 5.35-2.872 8.99-2.872 3.83 0 6.93.988 9.3 2.966 2.4 1.977 3.59 4.506 3.59 7.587h-5.8c0-1.582-.68-2.946-2.03-4.09 -1.33-1.145-3.02-1.718-5.06-1.718 -2.1 0-3.75.458-4.93 1.374 -1.19.916-1.78 2.113-1.78 3.591 0 1.394.55 2.445 1.65 3.153 1.11.708 3.09 1.384 5.97 2.029 2.89.646 5.23 1.416 7.02 2.311 1.79.895 3.11 1.977 3.97 3.247 .87 1.249 1.31 2.778 1.31 4.589 0 3.018-1.21 5.443-3.63 7.275 -2.41 1.811-5.54 2.716-9.39 2.716 -2.71 0-5.1-.479-7.18-1.436 -2.09-.958-3.72-2.29-4.91-3.996 -1.16-1.728-1.74-3.591-1.74-5.589h5.77c.11 1.936.88 3.476 2.31 4.621 1.46 1.124 3.37 1.686 5.75 1.686 2.18 0 3.93-.437 5.24-1.312 1.33-.895 2-2.081 2-3.559Z"/><path d="M8296.26 662.119c-2.25 2.643-5.55 3.965-9.9 3.965 -3.6 0-6.35-1.041-8.24-3.122 -1.88-2.102-2.82-5.204-2.85-9.304v-21.98h5.78v21.824c0 5.12 2.08 7.68 6.25 7.68 4.41 0 7.34-1.644 8.8-4.933v-24.571h5.78v33.782h-5.5l-.12-3.341Z"/><path d="M8316.92 665.46h-5.77v-33.782h5.77v33.782Zm-6.24-42.742c0-.937.28-1.728.84-2.373 .59-.645 1.44-.968 2.56-.968 1.13 0 1.98.323 2.56.968 .59.645.88 1.436.88 2.373 0 .936-.29 1.717-.88 2.341 -.58.625-1.43.937-2.56.937 -1.12 0-1.97-.312-2.56-.937 -.56-.624-.84-1.405-.84-2.341Z"/><path d="M8345.84 656.499c0-1.561-.6-2.768-1.78-3.622 -1.17-.874-3.22-1.623-6.15-2.247 -2.92-.625-5.24-1.374-6.97-2.248 -1.7-.875-2.97-1.915-3.81-3.123 -.81-1.207-1.21-2.643-1.21-4.308 0-2.768 1.16-5.11 3.49-7.025 2.35-1.915 5.35-2.872 9-2.872 3.83 0 6.93.988 9.3 2.966 2.39 1.977 3.59 4.506 3.59 7.587h-5.81c0-1.582-.67-2.946-2.03-4.09 -1.33-1.145-3.02-1.718-5.05-1.718 -2.11 0-3.75.458-4.94 1.374 -1.18.916-1.78 2.113-1.78 3.591 0 1.394.55 2.445 1.66 3.153 1.1.708 3.09 1.384 5.96 2.029 2.89.646 5.24 1.416 7.03 2.311 1.78.895 3.11 1.977 3.96 3.247 .87 1.249 1.31 2.778 1.31 4.589 0 3.018-1.21 5.443-3.62 7.275 -2.41 1.811-5.55 2.716-9.4 2.716 -2.7 0-5.1-.479-7.18-1.436 -2.08-.958-3.71-2.29-4.9-3.996 -1.17-1.728-1.75-3.591-1.75-5.589h5.78c.1 1.936.87 3.476 2.31 4.621 1.46 1.124 3.37 1.686 5.74 1.686 2.19 0 3.94-.437 5.25-1.312 1.33-.895 2-2.081 2-3.559Z"/><path d="M8378.81 656.499c0-1.561-.6-2.768-1.78-3.622 -1.17-.874-3.22-1.623-6.15-2.247 -2.92-.625-5.24-1.374-6.97-2.248 -1.7-.875-2.97-1.915-3.81-3.123 -.81-1.207-1.21-2.643-1.21-4.308 0-2.768 1.16-5.11 3.49-7.025 2.36-1.915 5.35-2.872 9-2.872 3.82 0 6.93.988 9.3 2.966 2.39 1.977 3.59 4.506 3.59 7.587h-5.81c0-1.582-.68-2.946-2.03-4.09 -1.33-1.145-3.02-1.718-5.05-1.718 -2.11 0-3.75.458-4.94 1.374 -1.18.916-1.78 2.113-1.78 3.591 0 1.394.55 2.445 1.66 3.153 1.1.708 3.09 1.384 5.96 2.029 2.89.646 5.23 1.416 7.03 2.311 1.78.895 3.11 1.977 3.96 3.247 .87 1.249 1.31 2.778 1.31 4.589 0 3.018-1.21 5.443-3.62 7.275 -2.41 1.811-5.55 2.716-9.4 2.716 -2.7 0-5.1-.479-7.18-1.436 -2.08-.958-3.71-2.29-4.9-3.996 -1.17-1.728-1.75-3.591-1.75-5.589h5.78c.1 1.936.87 3.476 2.31 4.621 1.45 1.124 3.37 1.686 5.74 1.686 2.19 0 3.94-.437 5.25-1.312 1.33-.895 2-2.081 2-3.559Z"/><path d="M8406.12 666.084c-4.57 0-8.3-1.499-11.17-4.496 -2.88-3.018-4.31-7.045-4.31-12.082v-1.062c0-3.351.63-6.338 1.9-8.96 1.29-2.644 3.08-4.705 5.37-6.182 2.31-1.499 4.81-2.248 7.5-2.248 4.39 0 7.8 1.446 10.24 4.34 2.43 2.893 3.65 7.035 3.65 12.426v2.404h-22.89c.09 3.33 1.06 6.025 2.91 8.086 1.87 2.04 4.24 3.06 7.12 3.06 2.04 0 3.76-.417 5.18-1.249 1.41-.833 2.65-1.936 3.71-3.31l3.53 2.748c-2.83 4.35-7.08 6.525-12.74 6.525Zm-.71-30.285c-2.33 0-4.29.854-5.87 2.561 -1.59 1.685-2.56 4.058-2.94 7.118h16.92v-.437c-.16-2.935-.95-5.204-2.37-6.806 -1.41-1.624-3.33-2.436-5.74-2.436Z"/><path d="M8445.65 656.499c0-1.561-.59-2.768-1.78-3.622 -1.17-.874-3.21-1.623-6.15-2.247 -2.91-.625-5.23-1.374-6.96-2.248 -1.71-.875-2.98-1.915-3.81-3.123 -.81-1.207-1.22-2.643-1.22-4.308 0-2.768 1.17-5.11 3.5-7.025 2.35-1.915 5.35-2.872 8.99-2.872 3.83 0 6.93.988 9.3 2.966 2.4 1.977 3.59 4.506 3.59 7.587h-5.8c0-1.582-.68-2.946-2.03-4.09 -1.34-1.145-3.02-1.718-5.06-1.718 -2.1 0-3.75.458-4.93 1.374 -1.19.916-1.78 2.113-1.78 3.591 0 1.394.55 2.445 1.65 3.153 1.1.708 3.09 1.384 5.96 2.029 2.9.646 5.24 1.416 7.03 2.311s3.11 1.977 3.96 3.247c.88 1.249 1.32 2.778 1.32 4.589 0 3.018-1.21 5.443-3.63 7.275 -2.41 1.811-5.54 2.716-9.39 2.716 -2.71 0-5.1-.479-7.18-1.436 -2.09-.958-3.72-2.29-4.91-3.996 -1.16-1.728-1.74-3.591-1.74-5.589h5.77c.11 1.936.88 3.476 2.31 4.621 1.46 1.124 3.37 1.686 5.75 1.686 2.18 0 3.93-.437 5.24-1.312 1.33-.895 2-2.081 2-3.559Z"/></g></g><g transform="matrix(0 .36545-.66541 0 2181.34-1705.17)"><g fill="#FFF"><path d="M8161.33 591.122h-10.67v18.389h-6.03v-45.458h15.05c5.12 0 9.05 1.165 11.8 3.497 2.77 2.331 4.15 5.724 4.15 10.178 0 2.83-.77 5.297-2.31 7.399 -1.52 2.102-3.64 3.674-6.37 4.715l10.68 19.294v.375h-6.43l-9.87-18.389Zm-10.67-4.902h9.21c2.97 0 5.33-.77 7.08-2.31 1.77-1.541 2.66-3.601 2.66-6.182 0-2.81-.85-4.964-2.53-6.463 -1.67-1.499-4.08-2.258-7.24-2.279h-9.18v17.234Z"/><path d="M8197.14 610.135c-4.57 0-8.3-1.498-11.17-4.495 -2.87-3.018-4.31-7.046-4.31-12.083v-1.062c0-3.351.63-6.337 1.9-8.96 1.29-2.643 3.08-4.704 5.37-6.182 2.31-1.499 4.81-2.248 7.5-2.248 4.39 0 7.8 1.447 10.24 4.34 2.43 2.893 3.65 7.035 3.65 12.426v2.404h-22.89c.09 3.33 1.06 6.026 2.91 8.086 1.87 2.04 4.24 3.06 7.12 3.06 2.04 0 3.76-.416 5.18-1.249 1.41-.832 2.65-1.936 3.71-3.309l3.53 2.747c-2.83 4.35-7.07 6.525-12.74 6.525Zm-.71-30.284c-2.34 0-4.29.853-5.87 2.56 -1.58 1.686-2.56 4.059-2.94 7.118h16.92v-.437c-.16-2.934-.95-5.203-2.37-6.806 -1.41-1.623-3.33-2.435-5.74-2.435Zm2.81-18.296h6.99l-8.37 9.179h-4.65l6.03-9.179Z"/><path d="M8236.67 600.551c0-1.562-.59-2.769-1.78-3.622 -1.16-.874-3.22-1.624-6.15-2.248 -2.91-.624-5.23-1.374-6.96-2.248 -1.71-.874-2.98-1.915-3.81-3.122 -.81-1.207-1.22-2.644-1.22-4.309 0-2.768 1.17-5.11 3.5-7.024 2.35-1.915 5.35-2.873 8.99-2.873 3.83 0 6.93.989 9.3 2.966 2.4 1.978 3.59 4.506 3.59 7.587h-5.8c0-1.582-.68-2.945-2.03-4.09 -1.33-1.145-3.02-1.717-5.06-1.717 -2.1 0-3.75.458-4.93 1.374 -1.19.915-1.78 2.112-1.78 3.59 0 1.395.55 2.446 1.65 3.153 1.1.708 3.09 1.384 5.97 2.03 2.89.645 5.23 1.415 7.02 2.31 1.79.895 3.11 1.977 3.97 3.247 .87 1.249 1.31 2.779 1.31 4.59 0 3.018-1.21 5.443-3.62 7.274 -2.42 1.811-5.55 2.716-9.4 2.716 -2.71 0-5.1-.478-7.18-1.436 -2.08-.957-3.72-2.289-4.91-3.996 -1.16-1.728-1.74-3.59-1.74-5.589h5.77c.11 1.936.88 3.476 2.31 4.621 1.46 1.124 3.37 1.686 5.75 1.686 2.18 0 3.93-.437 5.24-1.311 1.33-.895 2-2.082 2-3.559Z"/><path d="M8263.99 610.135c-4.58 0-8.31-1.498-11.18-4.495 -2.87-3.018-4.31-7.046-4.31-12.083v-1.062c0-3.351.64-6.337 1.91-8.96 1.29-2.643 3.08-4.704 5.37-6.182 2.31-1.499 4.81-2.248 7.49-2.248 4.39 0 7.81 1.447 10.24 4.34 2.44 2.893 3.65 7.035 3.65 12.426v2.404h-22.88c.08 3.33 1.05 6.026 2.9 8.086 1.88 2.04 4.25 3.06 7.12 3.06 2.04 0 3.77-.416 5.18-1.249 1.42-.832 2.66-1.936 3.72-3.309l3.53 2.747c-2.83 4.35-7.08 6.525-12.74 6.525Zm-.72-30.284c-2.33 0-4.29.853-5.87 2.56 -1.58 1.686-2.56 4.059-2.93 7.118h16.92v-.437c-.17-2.934-.96-5.203-2.37-6.806 -1.42-1.623-3.34-2.435-5.75-2.435Z"/><path d="M8304.7 609.511c-.33-.666-.6-1.852-.81-3.559 -2.69 2.789-5.89 4.183-9.62 4.183 -3.33 0-6.06-.936-8.21-2.809 -2.12-1.895-3.18-4.288-3.18-7.181 0-3.518 1.33-6.245 3.99-8.18 2.69-1.957 6.46-2.935 11.31-2.935h5.62v-2.654c0-2.019-.61-3.622-1.81-4.808 -1.21-1.207-2.99-1.811-5.34-1.811 -2.06 0-3.79.52-5.19 1.561 -1.39 1.041-2.09 2.3-2.09 3.778h-5.8c0-1.686.59-3.309 1.77-4.871 1.21-1.581 2.83-2.83 4.88-3.746 2.05-.916 4.31-1.374 6.77-1.374 3.89 0 6.94.978 9.15 2.935 2.2 1.936 3.35 4.61 3.43 8.024v15.548c0 3.101.4 5.568 1.19 7.4v.499h-6.06Zm-9.58-4.402c1.81 0 3.53-.468 5.15-1.405 1.62-.937 2.8-2.154 3.53-3.653v-6.931h-4.53c-7.08 0-10.62 2.071-10.62 6.213 0 1.811.61 3.226 1.82 4.246 1.2 1.02 2.75 1.53 4.65 1.53Z"/><path d="M8339.48 606.17c-2.25 2.644-5.55 3.965-9.89 3.965 -3.61 0-6.35-1.04-8.25-3.122 -1.87-2.102-2.82-5.203-2.84-9.304V575.73h5.78v21.823c0 5.121 2.08 7.681 6.24 7.681 4.41 0 7.35-1.645 8.81-4.933V575.73h5.77v33.781h-5.49l-.13-3.341Z"/><path d="M8136.97 673.452v-29.317h-5.34v-4.464h5.34v-3.466c0-3.621.96-6.421 2.9-8.398 1.93-1.978 4.67-2.966 8.21-2.966 1.33 0 2.65.177 3.97.53l-.32 4.684c-.98-.188-2.02-.281-3.12-.281 -1.87 0-3.32.551-4.34 1.654 -1.02 1.083-1.53 2.644-1.53 4.684v3.559h7.21v4.464h-7.21v29.317h-5.77Z"/><path d="M8172.65 644.854c-.87-.146-1.82-.219-2.84-.219 -3.79 0-6.36 1.613-7.71 4.839v23.978h-5.78v-33.781h5.62l.1 3.903c1.89-3.019 4.57-4.528 8.05-4.528 1.13 0 1.98.146 2.56.438v5.37Z"/><path d="M8197.57 673.452c-.34-.666-.61-1.852-.82-3.559 -2.68 2.789-5.89 4.184-9.61 4.184 -3.33 0-6.07-.937-8.21-2.81 -2.13-1.894-3.19-4.288-3.19-7.181 0-3.518 1.33-6.244 4-8.18 2.68-1.957 6.45-2.935 11.3-2.935h5.62v-2.654c0-2.019-.6-3.621-1.81-4.808 -1.21-1.207-2.99-1.811-5.34-1.811 -2.06 0-3.79.521-5.18 1.561 -1.4 1.041-2.09 2.3-2.09 3.778h-5.81c0-1.686.59-3.309 1.78-4.87 1.21-1.582 2.83-2.831 4.87-3.747 2.06-.916 4.32-1.374 6.77-1.374 3.9 0 6.95.979 9.15 2.935 2.21 1.936 3.35 4.611 3.44 8.024v15.548c0 3.102.39 5.568 1.18 7.4v.499h-6.05Zm-9.59-4.402c1.81 0 3.53-.468 5.15-1.405 1.63-.937 2.8-2.154 3.53-3.653v-6.931h-4.53c-7.07 0-10.61 2.071-10.61 6.213 0 1.811.6 3.226 1.81 4.246 1.21 1.02 2.76 1.53 4.65 1.53Z"/><path d="M8216.95 639.671l.19 4.246c2.58-3.247 5.95-4.871 10.12-4.871 7.14 0 10.74 4.028 10.8 12.083v22.323h-5.78v-22.354c-.02-2.435-.58-4.236-1.68-5.401 -1.09-1.166-2.78-1.749-5.09-1.749 -1.87 0-3.52.5-4.93 1.499 -1.42.999-2.52 2.31-3.31 3.934v24.071h-5.78v-33.781h5.46Z"/><path d="M8260.32 669.362c2.06 0 3.86-.624 5.4-1.873 1.54-1.249 2.39-2.81 2.56-4.683h5.47c-.11 1.936-.77 3.778-2 5.526 -1.23 1.748-2.87 3.143-4.94 4.184 -2.04 1.04-4.2 1.561-6.49 1.561 -4.6 0-8.26-1.53-10.99-4.59 -2.71-3.08-4.06-7.285-4.06-12.613v-.968c0-3.289.61-6.213 1.81-8.773 1.21-2.56 2.94-4.548 5.18-5.964 2.27-1.415 4.95-2.123 8.03-2.123 3.79 0 6.93 1.135 9.43 3.404 2.52 2.268 3.86 5.213 4.03 8.835h-5.47c-.17-2.185-1-3.975-2.5-5.37 -1.47-1.415-3.3-2.123-5.49-2.123 -2.94 0-5.21 1.062-6.84 3.185 -1.6 2.102-2.4 5.151-2.4 9.147v1.093c0 3.892.8 6.89 2.4 8.992 1.6 2.102 3.89 3.153 6.87 3.153Zm.94 4.371l-.38 1.624c3.19.562 4.78 2.362 4.78 5.401 0 2.019-.83 3.611-2.5 4.777 -1.66 1.186-3.98 1.78-6.96 1.78l-.22-3.341c1.64 0 2.92-.271 3.81-.812 .91-.541 1.37-1.301 1.37-2.279 0-.916-.33-1.592-1-2.029 -.66-.438-2.01-.75-4.05-.937l.99-4.184h4.16Z"/><path d="M8301.09 673.452c-.33-.666-.6-1.852-.81-3.559 -2.68 2.789-5.89 4.184-9.61 4.184 -3.33 0-6.07-.937-8.21-2.81 -2.13-1.894-3.19-4.288-3.19-7.181 0-3.518 1.33-6.244 4-8.18 2.68-1.957 6.45-2.935 11.3-2.935h5.62v-2.654c0-2.019-.6-3.621-1.81-4.808 -1.21-1.207-2.99-1.811-5.34-1.811 -2.06 0-3.79.521-5.18 1.561 -1.4 1.041-2.09 2.3-2.09 3.778h-5.81c0-1.686.59-3.309 1.78-4.87 1.2-1.582 2.83-2.831 4.87-3.747 2.06-.916 4.32-1.374 6.77-1.374 3.9 0 6.95.979 9.15 2.935 2.21 1.936 3.35 4.611 3.44 8.024v15.548c0 3.102.39 5.568 1.18 7.4v.499h-6.06Zm-9.58-4.402c1.81 0 3.53-.468 5.15-1.405 1.63-.937 2.8-2.154 3.53-3.653v-6.931h-4.53c-7.07 0-10.61 2.071-10.61 6.213 0 1.811.6 3.226 1.81 4.246 1.21 1.02 2.76 1.53 4.65 1.53Z"/><path d="M8321.3 673.452h-5.78v-33.781h5.78v33.781Zm-6.25-42.742c0-.936.28-1.727.84-2.372 .59-.646 1.44-.968 2.56-.968 1.13 0 1.98.322 2.56.968 .59.645.88 1.436.88 2.372 0 .937-.29 1.717-.88 2.342 -.58.624-1.43.937-2.56.937 -1.12 0-1.97-.313-2.56-.937 -.56-.625-.84-1.405-.84-2.342Z"/><path d="M8350.21 664.492c0-1.561-.6-2.769-1.78-3.622 -1.17-.874-3.22-1.623-6.15-2.248 -2.92-.624-5.24-1.374-6.97-2.248 -1.7-.874-2.97-1.915-3.8-3.122 -.82-1.207-1.22-2.643-1.22-4.308 0-2.769 1.16-5.11 3.49-7.025 2.36-1.915 5.35-2.873 9-2.873 3.83 0 6.93.989 9.3 2.966 2.39 1.978 3.59 4.507 3.59 7.587h-5.81c0-1.582-.67-2.945-2.03-4.09 -1.33-1.145-3.01-1.717-5.05-1.717 -2.11 0-3.75.458-4.94 1.374 -1.18.916-1.78 2.112-1.78 3.59 0 1.395.55 2.446 1.66 3.154 1.1.707 3.09 1.384 5.96 2.029 2.9.645 5.24 1.415 7.03 2.31s3.11 1.978 3.96 3.247c.88 1.249 1.31 2.779 1.31 4.59 0 3.018-1.21 5.443-3.62 7.274 -2.41 1.811-5.55 2.717-9.4 2.717 -2.7 0-5.1-.479-7.18-1.436 -2.08-.958-3.71-2.29-4.9-3.997 -1.16-1.727-1.75-3.59-1.75-5.588h5.78c.1 1.935.87 3.476 2.31 4.62 1.46 1.124 3.37 1.686 5.74 1.686 2.19 0 3.94-.437 5.25-1.311 1.33-.895 2-2.081 2-3.559Z"/></g></g><g transform="matrix(0 .36545-.66541 0 2055.69-1717.28)"><g fill="#FFF"><path d="M8192.84 568.986h-14.62v40.525h-5.96v-40.525h-14.58v-4.933h35.16v4.933Z"/><path d="M8204.45 579.82c2.56-3.143 5.89-4.715 9.99-4.715 7.14 0 10.74 4.028 10.8 12.083v22.323h-5.77v-22.354c-.02-2.436-.58-4.236-1.69-5.402 -1.08-1.165-2.78-1.748-5.09-1.748 -1.87 0-3.52.499-4.93 1.499 -1.42.999-2.52 2.31-3.31 3.933v24.072h-5.78v-47.956h5.78v18.265Z"/><path d="M8247.91 610.135c-4.58 0-8.31-1.498-11.18-4.495 -2.87-3.018-4.31-7.046-4.31-12.083v-1.062c0-3.351.64-6.337 1.91-8.96 1.29-2.643 3.08-4.704 5.37-6.182 2.31-1.499 4.81-2.248 7.49-2.248 4.39 0 7.81 1.447 10.24 4.34 2.44 2.893 3.66 7.035 3.66 12.426v2.404h-22.89c.08 3.33 1.05 6.026 2.9 8.086 1.88 2.04 4.25 3.06 7.12 3.06 2.04 0 3.77-.416 5.19-1.249 1.41-.832 2.65-1.936 3.71-3.309l3.53 2.747c-2.83 4.35-7.08 6.525-12.74 6.525Zm-.72-30.284c-2.33 0-4.29.853-5.87 2.56 -1.58 1.686-2.56 4.059-2.93 7.118h16.92v-.437c-.17-2.934-.96-5.203-2.37-6.806 -1.42-1.623-3.33-2.435-5.75-2.435Z"/><path d="M8273.23 575.73l.19 4.246c2.58-3.247 5.95-4.871 10.11-4.871 7.14 0 10.74 4.028 10.81 12.083v22.323h-5.78v-22.354c-.02-2.436-.58-4.236-1.69-5.402 -1.08-1.165-2.78-1.748-5.09-1.748 -1.87 0-3.51.499-4.93 1.499 -1.41.999-2.52 2.31-3.31 3.933v24.072h-5.77V575.73h5.46Z"/><path d="M8309.32 609.511h-5.77V575.73h5.77v33.781Zm-6.24-42.742c0-.937.28-1.728.84-2.373 .58-.645 1.44-.968 2.56-.968s1.98.323 2.56.968c.58.645.88 1.436.88 2.373 0 .937-.3 1.717-.88 2.342 -.58.624-1.44.936-2.56.936s-1.98-.312-2.56-.936c-.56-.625-.84-1.405-.84-2.342Z"/><path d="M8339.42 609.511c-.33-.666-.6-1.852-.81-3.559 -2.69 2.789-5.89 4.183-9.62 4.183 -3.33 0-6.07-.936-8.21-2.809 -2.12-1.895-3.18-4.288-3.18-7.181 0-3.518 1.33-6.245 3.99-8.18 2.69-1.957 6.46-2.935 11.3-2.935h5.62v-2.654c0-2.019-.6-3.622-1.81-4.808 -1.2-1.207-2.98-1.811-5.34-1.811 -2.06 0-3.78.52-5.18 1.561 -1.39 1.041-2.09 2.3-2.09 3.778h-5.81c0-1.686.6-3.309 1.78-4.871 1.21-1.581 2.83-2.83 4.87-3.746 2.06-.916 4.32-1.374 6.78-1.374 3.89 0 6.94.978 9.15 2.935 2.2 1.936 3.35 4.61 3.43 8.024v15.548c0 3.101.4 5.568 1.19 7.4v.499h-6.06Zm-9.58-4.402c1.81 0 3.52-.468 5.15-1.405 1.62-.937 2.8-2.154 3.52-3.653v-6.931h-4.52c-7.08 0-10.62 2.071-10.62 6.213 0 1.811.61 3.226 1.81 4.246 1.21 1.02 2.76 1.53 4.66 1.53Z"/><path d="M8365.96 587.843h15.236v4.714h-15.236Z"/><path d="M8111.72 673.452v-45.458h14.86c4.94 0 8.64 1.02 11.12 3.06 2.5 2.04 3.75 5.058 3.75 9.054 0 2.123-.61 4.007-1.82 5.651 -1.2 1.624-2.85 2.883-4.93 3.778 2.46.687 4.39 1.998 5.81 3.934 1.44 1.915 2.15 4.204 2.15 6.868 0 4.08-1.32 7.285-3.96 9.617 -2.65 2.331-6.38 3.496-11.21 3.496h-15.77Zm6-21.261v16.36h9.89c2.79 0 4.99-.719 6.59-2.155 1.62-1.457 2.44-3.455 2.44-5.994 0-5.474-2.98-8.211-8.93-8.211h-9.99Zm0-4.808h9.05c2.62 0 4.72-.656 6.28-1.967 1.58-1.312 2.37-3.091 2.37-5.339 0-2.498-.73-4.309-2.19-5.433 -1.45-1.145-3.67-1.717-6.65-1.717h-8.86v14.456Z"/><path d="M8149.1 656.249c0-3.309.64-6.286 1.93-8.929 1.31-2.643 3.12-4.683 5.43-6.119 2.33-1.436 4.99-2.155 7.96-2.155 4.6 0 8.32 1.593 11.15 4.777 2.85 3.185 4.28 7.421 4.28 12.707v.406c0 3.289-.64 6.244-1.91 8.867 -1.25 2.602-3.05 4.631-5.4 6.088 -2.33 1.457-5.01 2.186-8.05 2.186 -4.58 0-8.3-1.593-11.15-4.777 -2.83-3.185-4.24-7.4-4.24-12.645v-.406Zm5.8.687c0 3.747.87 6.754 2.59 9.023 1.75 2.269 4.08 3.403 7 3.403 2.93 0 5.26-1.144 6.99-3.434 1.73-2.31 2.59-5.537 2.59-9.679 0-3.705-.88-6.702-2.65-8.991 -1.75-2.311-4.08-3.466-7-3.466 -2.85 0-5.15 1.134-6.9 3.403 -1.74 2.269-2.62 5.516-2.62 9.741Z"/><path d="M8203.42 644.854c-.87-.146-1.82-.219-2.84-.219 -3.79 0-6.36 1.613-7.71 4.839v23.978h-5.78v-33.781h5.62l.09 3.903c1.9-3.019 4.58-4.528 8.06-4.528 1.12 0 1.98.146 2.56.438v5.37Z"/><path d="M8206.73 656.281c0-5.183 1.23-9.346 3.68-12.489 2.46-3.164 5.68-4.746 9.65-4.746 3.95 0 7.09 1.353 9.4 4.059v-17.609h5.77v47.956h-5.3l-.28-3.621c-2.31 2.83-5.53 4.246-9.65 4.246 -3.91 0-7.11-1.603-9.59-4.808 -2.45-3.206-3.68-7.389-3.68-12.551v-.437Zm5.78.655c0 3.83.79 6.827 2.37 8.992 1.58 2.165 3.77 3.247 6.55 3.247 3.67 0 6.34-1.644 8.03-4.933v-15.517c-1.73-3.185-4.38-4.777-7.96-4.777 -2.83 0-5.04 1.093-6.62 3.278 -1.58 2.186-2.37 5.422-2.37 9.71Z"/><path d="M8250.16 639.671v37.684c0 6.494-2.95 9.741-8.84 9.741 -1.27 0-2.44-.187-3.53-.562v-4.621c.67.167 1.55.25 2.63.25 1.29 0 2.27-.354 2.93-1.061 .69-.687 1.03-1.895 1.03-3.622v-37.809h5.78Zm-6.37-8.961c0-.916.28-1.696.84-2.341 .59-.666 1.43-.999 2.53-.999 1.12 0 1.98.322 2.56.968 .58.645.87 1.436.87 2.372 0 .937-.29 1.717-.87 2.342 -.58.624-1.44.937-2.56.937s-1.97-.313-2.53-.937c-.56-.625-.84-1.405-.84-2.342Z"/><path d="M8276.2 673.452v-45.458h14.86c4.93 0 8.64 1.02 11.11 3.06 2.5 2.04 3.75 5.058 3.75 9.054 0 2.123-.6 4.007-1.81 5.651 -1.21 1.624-2.85 2.883-4.94 3.778 2.46.687 4.4 1.998 5.81 3.934 1.44 1.915 2.16 4.204 2.16 6.868 0 4.08-1.32 7.285-3.97 9.617 -2.64 2.331-6.38 3.496-11.21 3.496h-15.76Zm5.99-21.261v16.36h9.9c2.79 0 4.98-.719 6.59-2.155 1.62-1.457 2.43-3.455 2.43-5.994 0-5.474-2.97-8.211-8.93-8.211h-9.99Zm0-4.808h9.06c2.62 0 4.71-.656 6.27-1.967 1.58-1.312 2.37-3.091 2.37-5.339 0-2.498-.72-4.309-2.18-5.433 -1.46-1.145-3.68-1.717-6.65-1.717h-8.87v14.456Z"/><path d="M8313.57 656.249c0-3.309.64-6.286 1.93-8.929 1.32-2.643 3.13-4.683 5.44-6.119 2.33-1.436 4.98-2.155 7.96-2.155 4.6 0 8.31 1.593 11.14 4.777 2.86 3.185 4.28 7.421 4.28 12.707v.406c0 3.289-.63 6.244-1.9 8.867 -1.25 2.602-3.05 4.631-5.4 6.088 -2.34 1.457-5.02 2.186-8.06 2.186 -4.58 0-8.29-1.593-11.15-4.777 -2.83-3.185-4.24-7.4-4.24-12.645v-.406Zm5.81.687c0 3.747.86 6.754 2.59 9.023 1.75 2.269 4.08 3.403 6.99 3.403 2.94 0 5.27-1.144 6.99-3.434 1.73-2.31 2.6-5.537 2.6-9.679 0-3.705-.89-6.702-2.66-8.991 -1.75-2.311-4.08-3.466-6.99-3.466 -2.85 0-5.15 1.134-6.9 3.403s-2.62 5.516-2.62 9.741Z"/><path d="M8372.42 670.112c-2.25 2.643-5.55 3.965-9.9 3.965 -3.6 0-6.35-1.041-8.24-3.122 -1.87-2.103-2.82-5.204-2.84-9.304v-21.98h5.78v21.824c0 5.12 2.08 7.68 6.24 7.68 4.41 0 7.35-1.644 8.8-4.933v-24.571h5.78v33.781h-5.49l-.13-3.34Z"/><path d="M8206.07 725.529h-19.04l-4.28 11.865h-6.18l17.36-45.459h5.24l17.39 45.459h-6.15l-4.34-11.865Zm-17.23-4.933h15.45l-7.74-21.261 -7.71 21.261Z"/><path d="M8238.11 708.795c-.88-.146-1.83-.219-2.85-.219 -3.78 0-6.35 1.613-7.71 4.84v23.978h-5.77v-33.782h5.62l.09 3.903c1.9-3.018 4.58-4.527 8.06-4.527 1.12 0 1.97.145 2.56.437v5.37Z"/><path d="M8259.74 708.795c-.87-.146-1.82-.219-2.84-.219 -3.79 0-6.36 1.613-7.71 4.84v23.978h-5.78v-33.782h5.62l.1 3.903c1.89-3.018 4.58-4.527 8.05-4.527 1.13 0 1.98.145 2.56.437v5.37Z"/><path d="M8278.48 738.018c-4.58 0-8.31-1.499-11.18-4.496 -2.87-3.018-4.31-7.046-4.31-12.083v-1.061c0-3.351.63-6.338 1.9-8.961 1.29-2.643 3.09-4.704 5.37-6.181 2.32-1.499 4.81-2.248 7.5-2.248 4.39 0 7.8 1.446 10.24 4.339 2.43 2.894 3.65 7.036 3.65 12.426v2.405h-22.88c.08 3.33 1.05 6.025 2.9 8.086 1.87 2.04 4.25 3.06 7.12 3.06 2.04 0 3.77-.417 5.18-1.249 1.42-.833 2.65-1.936 3.72-3.31l3.52 2.748c-2.83 4.35-7.07 6.525-12.73 6.525Zm-.72-30.285c-2.33 0-4.29.854-5.87 2.56 -1.58 1.686-2.56 4.059-2.94 7.119h16.93v-.437c-.17-2.935-.96-5.204-2.38-6.806 -1.41-1.624-3.33-2.436-5.74-2.436Z"/><path d="M8314.66 708.795c-.87-.146-1.82-.219-2.84-.219 -3.79 0-6.36 1.613-7.71 4.84v23.978h-5.78v-33.782h5.62l.1 3.903c1.89-3.018 4.57-4.527 8.05-4.527 1.13 0 1.98.145 2.56.437v5.37Z"/><path d="M8326.24 737.394h-5.77v-33.782h5.77v33.782Zm-6.24-42.742c0-.937.28-1.728.84-2.373 .59-.645 1.44-.968 2.56-.968 1.13 0 1.98.323 2.56.968 .59.645.88 1.436.88 2.373 0 .936-.29 1.717-.88 2.341 -.58.625-1.43.937-2.56.937 -1.12 0-1.97-.312-2.56-.937 -.56-.624-.84-1.405-.84-2.341Z"/><path d="M8334.08 720.222c0-5.183 1.23-9.346 3.68-12.489 2.46-3.163 5.68-4.745 9.65-4.745 3.96 0 7.09 1.353 9.4 4.058v-17.608h5.78v47.956h-5.31l-.28-3.622c-2.31 2.831-5.53 4.246-9.65 4.246 -3.91 0-7.11-1.603-9.59-4.808 -2.45-3.206-3.68-7.389-3.68-12.551v-.437Zm5.78.655c0 3.83.79 6.828 2.37 8.992 1.58 2.165 3.77 3.247 6.56 3.247 3.66 0 6.33-1.644 8.02-4.933v-15.517c-1.73-3.184-4.38-4.777-7.96-4.777 -2.83 0-5.04 1.093-6.62 3.279 -1.58 2.185-2.37 5.422-2.37 9.709Z"/><path d="M8377.51 703.612v37.684c0 6.494-2.95 9.741-8.84 9.741 -1.27 0-2.44-.187-3.52-.562v-4.62c.66.166 1.54.249 2.62.249 1.29 0 2.27-.354 2.93-1.061 .69-.687 1.03-1.894 1.03-3.622v-37.809h5.78Zm-6.37-8.96c0-.916.28-1.697.84-2.342 .59-.666 1.43-.999 2.53-.999 1.13 0 1.98.323 2.56.968 .59.645.88 1.436.88 2.373 0 .936-.29 1.717-.88 2.341 -.58.625-1.43.937-2.56.937 -1.12 0-1.96-.312-2.53-.937 -.56-.624-.84-1.405-.84-2.341Z"/></g></g><g transform="matrix(0 .36545-.66541 0 1876.69-1695.66)"><g fill="#FFF"><use xlink:href="#a"/><use xlink:href="#b"/><use xlink:href="#c"/><use xlink:href="#d"/><use xlink:href="#e"/><path d="M8167.58 661.588h-19.05l-4.27 11.864h-6.19l17.36-45.458h5.25l17.39 45.458h-6.15l-4.34-11.864Zm-17.24-4.933h15.46l-7.74-21.261 -7.72 21.261Z"/><path d="M8211.88 656.936c0 5.162-1.19 9.315-3.56 12.458 -2.37 3.122-5.56 4.683-9.55 4.683 -4.27 0-7.57-1.509-9.9-4.527l-.28 3.902h-5.31v-47.956h5.78v17.89c2.33-2.893 5.54-4.34 9.64-4.34 4.11 0 7.32 1.551 9.65 4.652 2.35 3.102 3.53 7.348 3.53 12.739v.499Zm-5.78-.655c0-3.934-.76-6.973-2.27-9.117 -1.52-2.144-3.71-3.216-6.56-3.216 -3.81 0-6.55 1.769-8.21 5.308v14.611c1.77 3.539 4.53 5.308 8.27 5.308 2.77 0 4.92-1.072 6.46-3.216s2.31-5.37 2.31-9.678Z"/><path d="M8225.43 673.452h-5.77v-33.781h5.77v33.781Zm-6.24-42.742c0-.936.28-1.727.84-2.372 .58-.646 1.44-.968 2.56-.968s1.98.322 2.56.968c.58.645.87 1.436.87 2.372 0 .937-.29 1.717-.87 2.342 -.58.624-1.44.937-2.56.937s-1.98-.313-2.56-.937c-.56-.625-.84-1.405-.84-2.342Z"/><path d="M8233.27 656.281c0-5.183 1.23-9.346 3.68-12.489 2.46-3.164 5.67-4.746 9.65-4.746 3.95 0 7.09 1.353 9.4 4.059v-17.609h5.77v47.956h-5.3l-.29-3.621c-2.31 2.83-5.52 4.246-9.64 4.246 -3.92 0-7.11-1.603-9.59-4.808 -2.45-3.206-3.68-7.389-3.68-12.551v-.437Zm5.77.655c0 3.83.79 6.827 2.38 8.992 1.58 2.165 3.76 3.247 6.55 3.247 3.67 0 6.34-1.644 8.03-4.933v-15.517c-1.73-3.185-4.39-4.777-7.97-4.777 -2.83 0-5.03 1.093-6.61 3.278 -1.59 2.186-2.38 5.422-2.38 9.71Z"/><path d="M8276.7 639.671v37.684c0 6.494-2.95 9.741-8.84 9.741 -1.27 0-2.44-.187-3.53-.562v-4.621c.67.167 1.54.25 2.62.25 1.3 0 2.27-.354 2.94-1.061 .69-.687 1.03-1.895 1.03-3.622v-37.809h5.78Zm-6.37-8.961c0-.916.28-1.696.84-2.341 .58-.666 1.43-.999 2.53-.999 1.12 0 1.98.322 2.56.968 .58.645.87 1.436.87 2.372 0 .937-.29 1.717-.87 2.342 -.58.624-1.44.937-2.56.937s-1.97-.313-2.53-.937c-.56-.625-.84-1.405-.84-2.342Z"/><path d="M8306.86 673.452c-.34-.666-.61-1.852-.82-3.559 -2.68 2.789-5.89 4.184-9.61 4.184 -3.33 0-6.07-.937-8.21-2.81 -2.13-1.894-3.19-4.288-3.19-7.181 0-3.518 1.33-6.244 4-8.18 2.68-1.957 6.45-2.935 11.3-2.935h5.62v-2.654c0-2.019-.6-3.621-1.81-4.808 -1.21-1.207-2.99-1.811-5.34-1.811 -2.06 0-3.79.521-5.18 1.561 -1.4 1.041-2.09 2.3-2.09 3.778h-5.81c0-1.686.59-3.309 1.78-4.87 1.21-1.582 2.83-2.831 4.87-3.747 2.06-.916 4.32-1.374 6.77-1.374 3.9 0 6.95.979 9.15 2.935 2.21 1.936 3.35 4.611 3.44 8.024v15.548c0 3.102.39 5.568 1.18 7.4v.499h-6.05Zm-9.59-4.402c1.81 0 3.53-.468 5.15-1.405 1.63-.937 2.8-2.154 3.53-3.653v-6.931h-4.53c-7.07 0-10.61 2.071-10.61 6.213 0 1.811.6 3.226 1.81 4.246 1.21 1.02 2.76 1.53 4.65 1.53Z"/><path d="M8326.24 639.671l.19 4.246c2.58-3.247 5.95-4.871 10.12-4.871 7.14 0 10.74 4.028 10.8 12.083v22.323h-5.78v-22.354c-.02-2.435-.58-4.236-1.68-5.401 -1.08-1.166-2.78-1.749-5.09-1.749 -1.87 0-3.52.5-4.93 1.499 -1.42.999-2.52 2.31-3.31 3.934v24.071h-5.78v-33.781h5.46Z"/></g></g><g transform="matrix(0 .36545-.66541 0 1760.26-1615.08)"><g fill="#FFF"><use xlink:href="#a"/><use xlink:href="#b"/><use xlink:href="#c"/><use xlink:href="#d"/><use xlink:href="#e"/><path d="M8130.47 652.315l-5.56 5.776v15.361h-5.99v-45.458h5.99v22.479l20.2-22.479h7.25l-17.89 20.075 19.29 25.383h-7.18l-16.11-21.137Z"/><path d="M8164.38 673.452h-5.78v-33.781h5.78v33.781Zm-6.25-42.742c0-.936.28-1.727.85-2.372 .58-.646 1.43-.968 2.56-.968 1.12 0 1.97.322 2.56.968 .58.645.87 1.436.87 2.372 0 .937-.29 1.717-.87 2.342 -.59.624-1.44.937-2.56.937 -1.13 0-1.98-.313-2.56-.937 -.57-.625-.85-1.405-.85-2.342Z"/><path d="M8179.08 639.671l.19 4.246c2.58-3.247 5.95-4.871 10.12-4.871 7.13 0 10.74 4.028 10.8 12.083v22.323h-5.78v-22.354c-.02-2.435-.58-4.236-1.68-5.401 -1.09-1.166-2.78-1.749-5.09-1.749 -1.88 0-3.52.5-4.94 1.499 -1.41.999-2.51 2.31-3.3 3.934v24.071h-5.78v-33.781h5.46Z"/><path d="M8228.57 664.492c0-1.561-.59-2.769-1.78-3.622 -1.17-.874-3.22-1.623-6.15-2.248 -2.92-.624-5.24-1.374-6.96-2.248 -1.71-.874-2.98-1.915-3.81-3.122 -.81-1.207-1.22-2.643-1.22-4.308 0-2.769 1.17-5.11 3.5-7.025 2.35-1.915 5.35-2.873 8.99-2.873 3.83 0 6.93.989 9.3 2.966 2.4 1.978 3.59 4.507 3.59 7.587h-5.8c0-1.582-.68-2.945-2.03-4.09 -1.34-1.145-3.02-1.717-5.06-1.717 -2.11 0-3.75.458-4.94 1.374 -1.18.916-1.78 2.112-1.78 3.59 0 1.395.56 2.446 1.66 3.154 1.1.707 3.09 1.384 5.96 2.029 2.9.645 5.24 1.415 7.03 2.31s3.11 1.978 3.96 3.247c.88 1.249 1.31 2.779 1.31 4.59 0 3.018-1.2 5.443-3.62 7.274 -2.41 1.811-5.54 2.717-9.39 2.717 -2.71 0-5.1-.479-7.19-1.436 -2.08-.958-3.71-2.29-4.9-3.997 -1.16-1.727-1.75-3.59-1.75-5.588h5.78c.1 1.935.87 3.476 2.31 4.62 1.46 1.124 3.37 1.686 5.75 1.686 2.18 0 3.93-.437 5.24-1.311 1.33-.895 2-2.081 2-3.559Z"/><path d="M8247.65 643.761c2.55-3.143 5.88-4.715 9.99-4.715 7.13 0 10.74 4.028 10.8 12.083v22.323h-5.78v-22.354c-.02-2.435-.58-4.236-1.68-5.401 -1.09-1.166-2.78-1.749-5.09-1.749 -1.88 0-3.52.5-4.94 1.499 -1.41.999-2.51 2.31-3.3 3.934v24.071h-5.78v-47.956h5.78v18.265Z"/><path d="M8297.94 673.452c-.33-.666-.6-1.852-.81-3.559 -2.69 2.789-5.89 4.184-9.62 4.184 -3.33 0-6.06-.937-8.21-2.81 -2.12-1.894-3.18-4.288-3.18-7.181 0-3.518 1.33-6.244 3.99-8.18 2.69-1.957 6.46-2.935 11.31-2.935h5.62v-2.654c0-2.019-.61-3.621-1.81-4.808 -1.21-1.207-2.99-1.811-5.34-1.811 -2.06 0-3.79.521-5.19 1.561 -1.39 1.041-2.09 2.3-2.09 3.778h-5.8c0-1.686.59-3.309 1.78-4.87 1.2-1.582 2.83-2.831 4.86-3.747 2.07-.916 4.32-1.374 6.78-1.374 3.89 0 6.94.979 9.15 2.935 2.21 1.936 3.35 4.611 3.43 8.024v15.548c0 3.102.4 5.568 1.19 7.4v.499h-6.06Zm-9.58-4.402c1.81 0 3.53-.468 5.15-1.405 1.62-.937 2.8-2.154 3.53-3.653v-6.931h-4.53c-7.08 0-10.62 2.071-10.62 6.213 0 1.811.61 3.226 1.81 4.246 1.21 1.02 2.76 1.53 4.66 1.53Z"/><path d="M8331.54 664.492c0-1.561-.6-2.769-1.78-3.622 -1.17-.874-3.22-1.623-6.15-2.248 -2.92-.624-5.24-1.374-6.97-2.248 -1.7-.874-2.97-1.915-3.8-3.122 -.82-1.207-1.22-2.643-1.22-4.308 0-2.769 1.16-5.11 3.49-7.025 2.36-1.915 5.35-2.873 9-2.873 3.82 0 6.93.989 9.3 2.966 2.39 1.978 3.59 4.507 3.59 7.587h-5.81c0-1.582-.67-2.945-2.03-4.09 -1.33-1.145-3.01-1.717-5.05-1.717 -2.11 0-3.75.458-4.94 1.374 -1.18.916-1.78 2.112-1.78 3.59 0 1.395.55 2.446 1.66 3.154 1.1.707 3.09 1.384 5.96 2.029 2.89.645 5.24 1.415 7.03 2.31s3.11 1.978 3.96 3.247c.88 1.249 1.31 2.779 1.31 4.59 0 3.018-1.21 5.443-3.62 7.274 -2.41 1.811-5.55 2.717-9.4 2.717 -2.7 0-5.1-.479-7.18-1.436 -2.08-.958-3.71-2.29-4.9-3.997 -1.16-1.727-1.75-3.59-1.75-5.588h5.78c.1 1.935.87 3.476 2.31 4.62 1.46 1.124 3.37 1.686 5.74 1.686 2.19 0 3.94-.437 5.25-1.311 1.33-.895 2-2.081 2-3.559Z"/><path d="M8365.69 673.452c-.33-.666-.6-1.852-.81-3.559 -2.68 2.789-5.89 4.184-9.62 4.184 -3.33 0-6.06-.937-8.21-2.81 -2.12-1.894-3.18-4.288-3.18-7.181 0-3.518 1.33-6.244 3.99-8.18 2.69-1.957 6.46-2.935 11.31-2.935h5.62v-2.654c0-2.019-.61-3.621-1.81-4.808 -1.21-1.207-2.99-1.811-5.34-1.811 -2.06 0-3.79.521-5.19 1.561 -1.39 1.041-2.09 2.3-2.09 3.778h-5.8c0-1.686.59-3.309 1.78-4.87 1.2-1.582 2.83-2.831 4.87-3.747 2.06-.916 4.31-1.374 6.77-1.374 3.89 0 6.94.979 9.15 2.935 2.21 1.936 3.35 4.611 3.43 8.024v15.548c0 3.102.4 5.568 1.19 7.4v.499h-6.06Zm-9.58-4.402c1.81 0 3.53-.468 5.15-1.405 1.62-.937 2.8-2.154 3.53-3.653v-6.931h-4.53c-7.08 0-10.61 2.071-10.61 6.213 0 1.811.6 3.226 1.8 4.246 1.21 1.02 2.76 1.53 4.66 1.53Z"/></g></g><g transform="matrix(0 .36545-.66541 0 1892.76-1303.55)"><g fill="#FFF"><path d="M8105.14 597.647h-19.05l-4.28 11.864h-6.18l17.36-45.458h5.25l17.38 45.458h-6.14l-4.34-11.864Zm-17.24-4.933h15.46l-7.75-21.262 -7.71 21.262Z"/><path d="M8121.34 561.555h5.776v47.956h-5.776Z"/><path d="M8133.14 587.843h15.236v4.714h-15.236Z"/><path d="M8157.52 565.021l-.65 11.489h-4.03l.03-14.955h4.65v3.466Z"/><path d="M8198.05 564.053v30.909c-.02 4.288-1.37 7.795-4.06 10.522 -2.66 2.726-6.29 4.256-10.86 4.589l-1.6.062c-4.97 0-8.94-1.342-11.89-4.027 -2.96-2.685-4.46-6.38-4.5-11.084v-30.971h5.93v30.784c0 3.289.91 5.849 2.72 7.68 1.81 1.811 4.39 2.717 7.74 2.717 3.4 0 5.99-.906 7.78-2.717 1.81-1.81 2.71-4.36 2.71-7.649v-30.815h6.03Z"/><path d="M8207.1 561.555h5.776v47.956h-5.776Z"/><path d="M8242.98 609.511c-.34-.666-.61-1.852-.81-3.559 -2.69 2.789-5.9 4.183-9.62 4.183 -3.33 0-6.07-.936-8.21-2.809 -2.12-1.895-3.19-4.288-3.19-7.181 0-3.518 1.34-6.245 4-8.18 2.69-1.957 6.45-2.935 11.3-2.935h5.62v-2.654c0-2.019-.6-3.622-1.81-4.808 -1.21-1.207-2.99-1.811-5.34-1.811 -2.06 0-3.79.52-5.18 1.561 -1.4 1.041-2.09 2.3-2.09 3.778h-5.81c0-1.686.59-3.309 1.78-4.871 1.21-1.581 2.83-2.83 4.87-3.746 2.06-.916 4.32-1.374 6.77-1.374 3.9 0 6.95.978 9.15 2.935 2.21 1.936 3.35 4.61 3.44 8.024v15.548c0 3.101.39 5.568 1.18 7.4v.499h-6.05Zm-9.59-4.402c1.81 0 3.53-.468 5.15-1.405 1.63-.937 2.8-2.154 3.53-3.653v-6.931h-4.53c-7.07 0-10.61 2.071-10.61 6.213 0 1.811.6 3.226 1.81 4.246 1.21 1.02 2.76 1.53 4.65 1.53Z"/><path d="M8303.8 568.986h-14.62v40.525h-5.96v-40.525h-14.58v-4.933h35.16v4.933Z"/><path d="M8323.62 580.912c-.87-.145-1.82-.218-2.84-.218 -3.79 0-6.36 1.613-7.71 4.839v23.978h-5.78V575.73h5.62l.1 3.902c1.89-3.018 4.58-4.527 8.05-4.527 1.12 0 1.98.146 2.56.437v5.37Z"/><path d="M8348.54 609.511c-.34-.666-.61-1.852-.82-3.559 -2.68 2.789-5.89 4.183-9.61 4.183 -3.33 0-6.07-.936-8.21-2.809 -2.13-1.895-3.19-4.288-3.19-7.181 0-3.518 1.34-6.245 4-8.18 2.68-1.957 6.45-2.935 11.3-2.935h5.62v-2.654c0-2.019-.6-3.622-1.81-4.808 -1.21-1.207-2.99-1.811-5.34-1.811 -2.06 0-3.79.52-5.18 1.561 -1.4 1.041-2.09 2.3-2.09 3.778h-5.81c0-1.686.59-3.309 1.78-4.871 1.21-1.581 2.83-2.83 4.87-3.746 2.06-.916 4.32-1.374 6.78-1.374 3.89 0 6.94.978 9.14 2.935 2.21 1.936 3.35 4.61 3.44 8.024v15.548c0 3.101.39 5.568 1.18 7.4v.499h-6.05Zm-9.59-4.402c1.81 0 3.53-.468 5.15-1.405 1.63-.937 2.8-2.154 3.53-3.653v-6.931h-4.53c-7.07 0-10.61 2.071-10.61 6.213 0 1.811.6 3.226 1.81 4.246 1.21 1.02 2.76 1.53 4.65 1.53Z"/><path d="M8367.89 575.73l.16 3.746c2.48-2.914 5.82-4.371 10.02-4.371 4.73 0 7.94 1.811 9.65 5.433 1.12-1.624 2.58-2.935 4.37-3.934 1.81-.999 3.94-1.499 6.4-1.499 7.41 0 11.18 3.924 11.3 11.771v22.635h-5.77v-22.292c0-2.414-.55-4.215-1.66-5.401 -1.1-1.207-2.95-1.811-5.56-1.811 -2.14 0-3.92.645-5.33 1.936 -1.42 1.269-2.24 2.986-2.47 5.151v22.417h-5.81v-22.136c0-4.912-2.4-7.368-7.21-7.368 -3.79 0-6.38 1.613-7.77 4.839v24.665h-5.78V575.73h5.46Z"/></g></g><g transform="matrix(0 .36545-.66541 0 1791.07-1313.42)"><g fill="#FFF"><path d="M7914.12 609.511h-6.02l-22.89-35.03v35.03h-6.02v-45.458h6.02l22.95 35.186v-35.186h5.96v45.458Z"/><path d="M7937.88 610.135c-4.58 0-8.3-1.498-11.18-4.495 -2.87-3.018-4.3-7.046-4.3-12.083v-1.062c0-3.351.63-6.337 1.9-8.96 1.29-2.643 3.08-4.704 5.37-6.182 2.31-1.499 4.81-2.248 7.49-2.248 4.4 0 7.81 1.447 10.24 4.34 2.44 2.893 3.66 7.035 3.66 12.426v2.404h-22.89c.09 3.33 1.05 6.026 2.91 8.086 1.87 2.04 4.24 3.06 7.12 3.06 2.03 0 3.76-.416 5.18-1.249 1.41-.832 2.65-1.936 3.71-3.309l3.53 2.747c-2.83 4.35-7.08 6.525-12.74 6.525Zm-.72-30.284c-2.33 0-4.28.853-5.86 2.56 -1.59 1.686-2.57 4.059-2.94 7.118h16.92v-.437c-.17-2.934-.96-5.203-2.37-6.806 -1.42-1.623-3.33-2.435-5.75-2.435Z"/><path d="M7987.65 601.55l6.49-25.82h5.78l-9.84 33.781h-4.68l-8.21-25.601 -7.99 25.601h-4.69l-9.8-33.781h5.74l6.66 25.289 7.86-25.289h4.65l8.03 25.82Z"/><path d="M8055.96 595.087c-.56 4.808-2.34 8.523-5.34 11.146 -2.97 2.602-6.94 3.902-11.89 3.902 -5.37 0-9.68-1.925-12.93-5.775 -3.23-3.851-4.84-9.003-4.84-15.455v-4.371c0-4.225.75-7.941 2.25-11.146 1.52-3.205 3.66-5.661 6.43-7.368 2.77-1.728 5.97-2.592 9.62-2.592 4.83 0 8.7 1.353 11.61 4.059 2.92 2.685 4.61 6.411 5.09 11.177h-6.02c-.53-3.621-1.66-6.244-3.41-7.867 -1.72-1.624-4.15-2.436-7.27-2.436 -3.83 0-6.84 1.416-9.02 4.246 -2.17 2.831-3.25 6.859-3.25 12.083v4.402c0 4.933 1.03 8.857 3.09 11.771 2.06 2.914 4.94 4.371 8.65 4.371 3.33 0 5.88-.75 7.65-2.248 1.79-1.52 2.97-4.153 3.56-7.899h6.02Z"/><path d="M8084.09 609.511c-.33-.666-.6-1.852-.81-3.559 -2.68 2.789-5.89 4.183-9.62 4.183 -3.33 0-6.06-.936-8.21-2.809 -2.12-1.895-3.18-4.288-3.18-7.181 0-3.518 1.33-6.245 3.99-8.18 2.69-1.957 6.46-2.935 11.31-2.935h5.62v-2.654c0-2.019-.61-3.622-1.81-4.808 -1.21-1.207-2.99-1.811-5.34-1.811 -2.06 0-3.79.52-5.19 1.561 -1.39 1.041-2.09 2.3-2.09 3.778h-5.81c0-1.686.6-3.309 1.79-4.871 1.2-1.581 2.83-2.83 4.87-3.746 2.06-.916 4.31-1.374 6.77-1.374 3.89 0 6.94.978 9.15 2.935 2.2 1.936 3.35 4.61 3.43 8.024v15.548c0 3.101.4 5.568 1.19 7.4v.499h-6.06Zm-9.58-4.402c1.81 0 3.52-.468 5.15-1.405 1.62-.937 2.8-2.154 3.53-3.653v-6.931h-4.53c-7.08 0-10.62 2.071-10.62 6.213 0 1.811.61 3.226 1.82 4.246 1.2 1.02 2.75 1.53 4.65 1.53Z"/><path d="M8126.55 592.995c0 5.141-1.17 9.283-3.52 12.426 -2.36 3.143-5.54 4.714-9.56 4.714 -4.1 0-7.33-1.3-9.68-3.902v16.266h-5.77V575.73h5.27l.28 3.746c2.36-2.914 5.62-4.371 9.81-4.371 4.06 0 7.26 1.53 9.61 4.59 2.38 3.059 3.56 7.316 3.56 12.769v.531Zm-5.77-.656c0-3.809-.81-6.816-2.44-9.023 -1.62-2.206-3.85-3.309-6.68-3.309 -3.5 0-6.12 1.551-7.87 4.652V600.8c1.73 3.081 4.37 4.621 7.93 4.621 2.77 0 4.97-1.093 6.59-3.278 1.64-2.206 2.47-5.474 2.47-9.804Z"/><path d="M8140.16 609.511h-5.77V575.73h5.77v33.781Zm-6.24-42.742c0-.937.28-1.728.84-2.373 .59-.645 1.44-.968 2.56-.968 1.13 0 1.98.323 2.56.968 .59.645.88 1.436.88 2.373 0 .937-.29 1.717-.88 2.342 -.58.624-1.43.936-2.56.936 -1.12 0-1.97-.312-2.56-.936 -.56-.625-.84-1.405-.84-2.342Z"/><path d="M8157.24 567.55v8.18h6.31v4.464h-6.31v20.95c0 1.353.28 2.373.85 3.059 .56.666 1.52 1 2.87 1 .66 0 1.58-.125 2.75-.375v4.683c-1.52.416-3 .624-4.44.624 -2.58 0-4.52-.78-5.84-2.341 -1.31-1.561-1.96-3.778-1.96-6.65v-20.95h-6.15v-4.464h6.15v-8.18h5.77Z"/><path d="M8191.15 609.511c-.33-.666-.6-1.852-.81-3.559 -2.69 2.789-5.89 4.183-9.62 4.183 -3.33 0-6.07-.936-8.21-2.809 -2.12-1.895-3.18-4.288-3.18-7.181 0-3.518 1.33-6.245 3.99-8.18 2.69-1.957 6.46-2.935 11.3-2.935h5.62v-2.654c0-2.019-.6-3.622-1.81-4.808 -1.2-1.207-2.98-1.811-5.33-1.811 -2.07 0-3.79.52-5.19 1.561 -1.39 1.041-2.09 2.3-2.09 3.778h-5.81c0-1.686.6-3.309 1.78-4.871 1.21-1.581 2.83-2.83 4.87-3.746 2.06-.916 4.32-1.374 6.78-1.374 3.89 0 6.94.978 9.15 2.935 2.2 1.936 3.35 4.61 3.43 8.024v15.548c0 3.101.4 5.568 1.19 7.4v.499h-6.06Zm-9.58-4.402c1.81 0 3.52-.468 5.15-1.405 1.62-.937 2.8-2.154 3.52-3.653v-6.931h-4.52c-7.08 0-10.62 2.071-10.62 6.213 0 1.811.6 3.226 1.81 4.246 1.21 1.02 2.76 1.53 4.66 1.53Z"/><path d="M8205.57 561.555h5.776v47.956h-5.776Z"/><path d="M8233.2 587.843h15.236v4.714H8233.2Z"/><path d="M8270.8 609.511v-45.458h14.86c4.93 0 8.63 1.02 11.11 3.06 2.5 2.039 3.75 5.057 3.75 9.054 0 2.123-.61 4.006-1.81 5.651 -1.21 1.623-2.86 2.883-4.94 3.778 2.46.686 4.4 1.998 5.81 3.933 1.44 1.915 2.16 4.205 2.16 6.869 0 4.08-1.33 7.285-3.97 9.616 -2.64 2.331-6.38 3.497-11.21 3.497h-15.76Zm5.99-21.262v16.36h9.9c2.79 0 4.98-.718 6.58-2.154 1.63-1.457 2.44-3.455 2.44-5.994 0-5.475-2.98-8.212-8.93-8.212h-9.99Zm0-4.808h9.05c2.63 0 4.72-.655 6.28-1.967 1.58-1.311 2.37-3.091 2.37-5.339 0-2.497-.73-4.308-2.18-5.432 -1.46-1.145-3.68-1.717-6.65-1.717h-8.87v14.455Z"/><path d="M8308.17 592.308c0-3.309.64-6.286 1.93-8.929 1.31-2.644 3.13-4.683 5.43-6.12 2.34-1.436 4.99-2.154 7.97-2.154 4.6 0 8.31 1.592 11.14 4.777 2.85 3.185 4.28 7.42 4.28 12.707v.406c0 3.289-.64 6.244-1.9 8.867 -1.25 2.602-3.05 4.631-5.41 6.088 -2.33 1.457-5.01 2.185-8.05 2.185 -4.58 0-8.3-1.592-11.15-4.776 -2.83-3.185-4.24-7.4-4.24-12.645v-.406Zm5.8.687c0 3.747.87 6.754 2.6 9.023 1.74 2.269 4.08 3.403 6.99 3.403 2.93 0 5.27-1.145 6.99-3.434 1.73-2.311 2.59-5.537 2.59-9.679 0-3.705-.88-6.702-2.65-8.992 -1.75-2.31-4.08-3.465-6.99-3.465 -2.85 0-5.16 1.134-6.9 3.403 -1.75 2.269-2.63 5.516-2.63 9.741Z"/><path d="M8362.49 580.912c-.87-.145-1.82-.218-2.84-.218 -3.79 0-6.36 1.613-7.71 4.839v23.978h-5.78V575.73h5.62l.1 3.902c1.89-3.018 4.58-4.527 8.05-4.527 1.13 0 1.98.146 2.56.437v5.37Z"/><path d="M8365.83 592.339c0-5.266 1.22-9.449 3.66-12.551 2.43-3.122 5.66-4.683 9.67-4.683 4.13 0 7.34 1.457 9.65 4.371l.28-3.746h5.28v32.969c0 4.371-1.3 7.816-3.9 10.335 -2.58 2.518-6.06 3.777-10.43 3.777 -2.44 0-4.82-.52-7.15-1.561 -2.33-1.04-4.11-2.466-5.34-4.277l3-3.466c2.47 3.06 5.5 4.59 9.08 4.59 2.81 0 5-.791 6.56-2.373 1.58-1.582 2.37-3.809 2.37-6.681v-2.904c-2.31 2.664-5.46 3.996-9.46 3.996 -3.95 0-7.16-1.592-9.61-4.776 -2.44-3.185-3.66-7.525-3.66-13.02Zm5.81.656c0 3.809.78 6.806 2.34 8.992 1.56 2.164 3.75 3.247 6.56 3.247 3.64 0 6.31-1.655 8.02-4.964v-15.424c-1.77-3.226-4.42-4.839-7.96-4.839 -2.81 0-5.01 1.093-6.59 3.278 -1.58 2.186-2.37 5.422-2.37 9.71Z"/><path d="M8445.51 588.499h-19.7v16.11h22.88v4.902h-28.88v-45.458h28.57v4.933h-22.57v14.611h19.7v4.902Z"/><path d="M8455.75 561.555h5.776v47.956h-5.776Z"/><path d="M8512.6 597.647h-19.04l-4.28 11.864h-6.18l17.36-45.458h5.24l17.39 45.458h-6.15l-4.34-11.864Zm-17.23-4.933h15.46l-7.75-21.262 -7.71 21.262Z"/><path d="M8544.64 580.912c-.88-.145-1.82-.218-2.84-.218 -3.79 0-6.36 1.613-7.72 4.839v23.978h-5.77V575.73h5.62l.09 3.902c1.9-3.018 4.58-4.527 8.06-4.527 1.12 0 1.97.146 2.56.437v5.37Z"/><path d="M8569.55 609.511c-.33-.666-.6-1.852-.81-3.559 -2.68 2.789-5.89 4.183-9.62 4.183 -3.33 0-6.06-.936-8.21-2.809 -2.12-1.895-3.18-4.288-3.18-7.181 0-3.518 1.33-6.245 4-8.18 2.68-1.957 6.45-2.935 11.3-2.935h5.62v-2.654c0-2.019-.61-3.622-1.81-4.808 -1.21-1.207-2.99-1.811-5.34-1.811 -2.06 0-3.79.52-5.19 1.561 -1.39 1.041-2.09 2.3-2.09 3.778h-5.8c0-1.686.59-3.309 1.77-4.871 1.21-1.581 2.83-2.83 4.88-3.746 2.06-.916 4.31-1.374 6.77-1.374 3.89 0 6.94.978 9.15 2.935 2.2 1.936 3.35 4.61 3.43 8.024v15.548c0 3.101.4 5.568 1.19 7.4v.499h-6.06Zm-9.58-4.402c1.81 0 3.53-.468 5.15-1.405 1.62-.937 2.8-2.154 3.53-3.653v-6.931h-4.53c-7.08 0-10.62 2.071-10.62 6.213 0 1.811.61 3.226 1.82 4.246 1.2 1.02 2.75 1.53 4.65 1.53Z"/><path d="M8612.08 592.995c0 5.162-1.19 9.314-3.56 12.457 -2.38 3.122-5.56 4.683-9.56 4.683 -4.27 0-7.56-1.509-9.89-4.527l-.29 3.903h-5.3v-47.956h5.77v17.89c2.33-2.893 5.55-4.34 9.65-4.34 4.1 0 7.32 1.551 9.65 4.652 2.35 3.101 3.53 7.348 3.53 12.738v.5Zm-5.78-.656c0-3.934-.76-6.972-2.28-9.116 -1.52-2.144-3.7-3.216-6.56-3.216 -3.8 0-6.54 1.769-8.21 5.308v14.611c1.77 3.539 4.53 5.308 8.28 5.308 2.76 0 4.92-1.072 6.46-3.216s2.31-5.37 2.31-9.679Z"/></g></g></g></g></svg>