<?xml version="1.0" encoding="UTF-8" standalone="no"?>
<!-- Created with Inkscape (http://www.inkscape.org/) -->

<svg
   width="24mm"
   height="24mm"
   viewBox="0 0 24 24"
   version="1.1"
   id="svg1"
   inkscape:version="1.3.2 (091e20e, 2023-11-25, custom)"
   sodipodi:docname="BlackTrainTest.svg"
   xmlns:inkscape="http://www.inkscape.org/namespaces/inkscape"
   xmlns:sodipodi="http://sodipodi.sourceforge.net/DTD/sodipodi-0.dtd"
   xmlns="http://www.w3.org/2000/svg"
   xmlns:svg="http://www.w3.org/2000/svg">
  <sodipodi:namedview
     id="namedview1"
     pagecolor="#505050"
     bordercolor="#ffffff"
     borderopacity="1"
     inkscape:showpageshadow="0"
     inkscape:pageopacity="0"
     inkscape:pagecheckerboard="1"
     inkscape:deskcolor="#505050"
     inkscape:document-units="mm"
     inkscape:zoom="11.702245"
     inkscape:cx="44.265012"
     inkscape:cy="67.038421"
     inkscape:window-width="1920"
     inkscape:window-height="1017"
     inkscape:window-x="1912"
     inkscape:window-y="-8"
     inkscape:window-maximized="1"
     inkscape:current-layer="layer1" />
  <defs
     id="defs1" />
  <g
     inkscape:label="Calque 1"
     inkscape:groupmode="layer"
     id="layer1">
    <g
       transform="matrix(0.25779069,0,0,0.25779069,-69.459498,8.9320201)"
       id="g528"
       style="clip-rule:evenodd;fill-rule:evenodd;stroke-linejoin:round;stroke-miterlimit:1.5;fill:#000000;fill-opacity:1">
                <path
   d="m 290,57 h -13.006 c 0,0.828 -0.673,1.5 -1.5,1.5 -0.828,0 -1.5,-0.672 -1.5,-1.5 0,0.828 -0.673,1.5 -1.5,1.5 -0.828,0 -1.5,-0.672 -1.5,-1.5 0,-0.012 0,-0.024 0,-0.035 -0.32,-0.072 -1.011,-0.251 -1.22,-0.511 -0.277,-0.346 -0.382,-0.798 -0.286,-1.231 0.338,-1.523 1.798,-3.79 2.82,-5.285 0.655,-0.957 1.257,-1.938 2.417,-1.938 h 13.686 c 0.658,-0.74 1.271,-1.524 1.912,-2.281 l 0.161,-0.19 L 288.955,43 h -1.793 v -1 h 5 v 1 h -1.793 l 1.472,2.472 c -0.733,0.867 -1.392,1.682 -2.117,2.528 h 52.552 c -0.725,-0.846 -1.384,-1.661 -2.117,-2.528 L 341.631,43 h -1.793 v -1 h 5 v 1 h -1.793 l -1.529,2.529 0.161,0.19 c 0.641,0.757 1.254,1.541 1.912,2.281 h 13.686 c 1.16,0 1.762,0.981 2.417,1.938 1.022,1.495 2.482,3.762 2.82,5.285 0.096,0.433 -0.009,0.885 -0.286,1.231 -0.209,0.26 -0.9,0.439 -1.22,0.511 0,0.011 0,0.023 0,0.035 0,0.828 -0.672,1.5 -1.5,1.5 -0.827,0 -1.5,-0.672 -1.5,-1.5 0,0.828 -0.672,1.5 -1.5,1.5 -0.827,0 -1.5,-0.672 -1.5,-1.5 H 342 c 0,0.828 -0.672,1.5 -1.5,1.5 -0.825,0 -1.495,-0.667 -1.5,-1.49 -0.005,0.823 -0.675,1.49 -1.5,1.49 -0.828,0 -1.5,-0.672 -1.5,-1.5 h -17 c 0,0.828 -0.672,1.5 -1.5,1.5 -0.825,0 -1.495,-0.667 -1.5,-1.49 -0.005,0.823 -0.675,1.49 -1.5,1.49 -0.828,0 -1.5,-0.672 -1.5,-1.5 h -17 c 0,0.828 -0.672,1.5 -1.5,1.5 -0.825,0 -1.495,-0.667 -1.5,-1.49 -0.005,0.823 -0.675,1.49 -1.5,1.49 -0.828,0 -1.5,-0.672 -1.5,-1.5 z m 42,-6.468 h -4 V 53 h 4 z m -18,0 h -4 V 53 h 4 z m -22.89,0.005 h -4.018 v 2.477 h 4.018 z m -5.013,0 h -4.018 v 2.477 h 4.018 z M 309,50.532 h -4 V 53 h 4 z m -5,0 h -4 V 53 h 4 z m 18,0 h -4 V 53 h 4 z m 37.31,0 h -0.251 V 53 h 1.673 z m -9.122,0.005 h -4.018 v 2.477 h 4.018 z M 337,50.532 h -4 V 53 h 4 z m -64.31,0 -1.422,2.468 h 1.673 v -2.468 z m 72.485,0.005 h -4.018 v 2.477 h 4.018 z M 299,50.532 h -4 V 53 h 4 z m 28,0 h -4 V 53 h 4 z"
   style="fill:#000000;fill-opacity:1"
   id="path527" />

            </g>
  </g>
</svg>
