<?xml version="1.0" encoding="UTF-8" standalone="no"?>
<!-- Created with Inkscape (http://www.inkscape.org/) -->

<svg
   width="24"
   height="24"
   viewBox="0 0 6.3499999 6.35"
   version="1.1"
   id="svg1"
   inkscape:version="1.3.2 (091e20e, 2023-11-25, custom)"
   sodipodi:docname="buildings.svg"
   xmlns:inkscape="http://www.inkscape.org/namespaces/inkscape"
   xmlns:sodipodi="http://sodipodi.sourceforge.net/DTD/sodipodi-0.dtd"
   xmlns="http://www.w3.org/2000/svg"
   xmlns:svg="http://www.w3.org/2000/svg">
  <sodipodi:namedview
     id="namedview1"
     pagecolor="#505050"
     bordercolor="#ffffff"
     borderopacity="1"
     inkscape:showpageshadow="0"
     inkscape:pageopacity="0"
     inkscape:pagecheckerboard="1"
     inkscape:deskcolor="#505050"
     inkscape:document-units="mm"
     inkscape:zoom="22.627417"
     inkscape:cx="2.9168155"
     inkscape:cy="16.860077"
     inkscape:window-width="1920"
     inkscape:window-height="1017"
     inkscape:window-x="-8"
     inkscape:window-y="-8"
     inkscape:window-maximized="1"
     inkscape:current-layer="layer1" />
  <defs
     id="defs1" />
  <g
     inkscape:label="Calque 1"
     inkscape:groupmode="layer"
     id="layer1">
    <path
       d="M 6.3513128,6.3502986 H 1.6604677e-4 V 5.6693487 H 0.34866 V 4.4534391 H 0.88146528 V 3.7474914 H 1.2466951 V 3.0147952 H 2.5237535 V 2.6593215 h 0.697668 V 3.8209856 H 3.9450956 V 4.4534391 H 4.4946359 V 3.4027666 h 0.3414837 v -1.042673 h 1.2392922 v 2.7925433 h 0.275901 z M 5.5236099,4.1274629 H 5.3630448 V 4.5519313 H 5.5236099 Z M 2.4446022,5.0313959 H 2.2431037 v 0.2889789 h 0.2014985 z m -0.4301342,0 H 1.8129697 V 5.3203748 H 2.014468 Z m -0.4303597,0 H 1.38261 v 0.2889789 h 0.2014983 z m 0,-1.1901614 H 1.38261 v 0.288978 h 0.2014983 z m 0.8604939,0 H 2.2431037 v 0.288978 h 0.2014985 z m -0.4301342,0 H 1.8129697 v 0.288978 H 2.014468 Z M 5.1527274,4.1274629 H 4.9921622 V 4.5519313 H 5.1527274 Z M 2.8747363,3.2610271 H 2.6732379 v 0.2889785 h 0.2014984 z m -0.4301341,0 H 2.2431037 v 0.2889785 h 0.2014985 z m -0.4301342,0 H 1.8129697 V 3.5500056 H 2.014468 Z M 2.8747363,5.0313959 H 2.6732379 V 5.3203748 H 2.8747363 Z M 5.8944934,4.8779075 H 5.7316666 V 5.3023757 H 5.8944934 Z M 4.4629753,4.670923 H 4.327286 V 4.9631511 H 4.4629753 Z M 2.8747363,4.4471897 H 2.6732379 v 0.2889779 h 0.2014984 z m -1.290628,0 H 1.38261 V 4.7361676 H 1.5841083 Z M 2.8747363,5.610103 H 2.6732379 v 0.2892287 h 0.2014984 z m -1.290628,0 H 1.38261 V 5.8993317 H 1.5841083 Z M 2.4446022,4.4471897 H 2.2431037 V 4.7361676 H 2.4446022 Z M 5.5236099,4.8779075 H 5.3630448 V 5.3023757 H 5.5236099 Z M 1.0632886,5.7110959 H 0.90204513 V 6.0408217 H 1.0632886 Z M 5.5236099,5.6163525 H 5.3630448 v 0.4244692 h 0.1605651 z m -0.3708825,0 H 4.9921622 V 6.0408217 H 5.1527274 Z M 0.69308359,4.611177 H 0.53184012 v 0.3297258 h 0.16124347 z m 0,1.0999189 H 0.53184012 v 0.3297258 h 0.16124347 z m 0,-0.558459 H 0.53184012 V 5.4823628 H 0.69308359 Z M 2.014468,5.610103 H 1.8129697 V 5.8993317 H 2.014468 Z M 5.1527274,2.5900766 H 4.9921622 V 3.0147952 H 5.1527274 Z M 1.5841083,3.2610271 H 1.38261 V 3.5500056 H 1.5841083 Z M 5.5236099,2.5900766 H 5.3630448 V 3.0147952 H 5.5236099 Z M 5.1527274,3.342521 H 4.9921622 v 0.4244683 h 0.1605652 z m 0.741766,0.7849419 H 5.7316666 v 0.4244684 h 0.1628268 z m 0,-1.5373863 H 5.7316666 v 0.4247186 h 0.1628268 z m 0,0.7524444 H 5.7316666 V 3.7669893 H 5.8944934 Z M 4.1689825,4.670923 H 4.0332932 V 4.9631511 H 4.1689825 Z M 4.4629753,5.1553866 H 4.327286 v 0.2919791 h 0.1356893 z m 0,0.4797153 H 4.327286 V 5.92733 h 0.1356893 z m -0.2939928,0 H 4.0332932 V 5.92733 H 4.1689825 Z M 3.4611387,4.0644675 H 3.3254494 v 0.2922281 h 0.1356893 z m 0.316607,1.4593926 H 3.6420572 v 0.292228 h 0.1356885 z m 0,-0.4949639 H 3.6420572 v 0.2919783 h 0.1356885 z m 0,-0.9644287 H 3.6420572 V 4.3566956 H 3.7777457 Z M 1.0632886,4.611177 H 0.90204513 V 4.9409028 H 1.0632886 Z M 3.4611387,5.0288962 H 3.3254494 v 0.2919783 h 0.1356893 z m 0,0.4949639 H 3.3254494 v 0.292228 h 0.1356893 z m 0,-0.9749282 H 3.3254494 V 4.84116 h 0.1356893 z"
       style="clip-rule:evenodd;fill:#e6e6e6;fill-rule:evenodd;stroke-width:0.0237768;stroke-linejoin:round;stroke-miterlimit:1.5"
       id="path581" />
  </g>
</svg>
