<?xml version="1.0" encoding="UTF-8" standalone="no"?>
<!-- Created with Inkscape (http://www.inkscape.org/) -->

<svg
   width="24"
   height="24"
   viewBox="0 0 6.3499999 6.35"
   version="1.1"
   id="svg1"
   inkscape:version="1.3.2 (091e20e, 2023-11-25, custom)"
   sodipodi:docname="conception.svg"
   xmlns:inkscape="http://www.inkscape.org/namespaces/inkscape"
   xmlns:sodipodi="http://sodipodi.sourceforge.net/DTD/sodipodi-0.dtd"
   xmlns="http://www.w3.org/2000/svg"
   xmlns:svg="http://www.w3.org/2000/svg">
  <sodipodi:namedview
     id="namedview1"
     pagecolor="#505050"
     bordercolor="#ffffff"
     borderopacity="1"
     inkscape:showpageshadow="0"
     inkscape:pageopacity="0"
     inkscape:pagecheckerboard="1"
     inkscape:deskcolor="#505050"
     inkscape:document-units="mm"
     inkscape:zoom="16.549473"
     inkscape:cx="15.95217"
     inkscape:cy="10.302443"
     inkscape:window-width="1920"
     inkscape:window-height="1017"
     inkscape:window-x="-8"
     inkscape:window-y="-8"
     inkscape:window-maximized="1"
     inkscape:current-layer="layer1" />
  <defs
     id="defs1" />
  <g
     inkscape:label="Calque 1"
     inkscape:groupmode="layer"
     id="layer1">
    <g
       id="g1"
       transform="matrix(0.29041218,0,0,0.2834885,1.5808533,0.39387124)">
      <path
         d="m 0.4285803,21.007583 h -0.781816 v -1.563632 h 0.781816 z m 15.6363157,0 H 15.28308 v -1.563632 h 0.781816 z m -3.127263,0 h -0.781816 v -1.563632 h 0.781816 z m -9.3817897,0 h -0.781815 v -1.563632 h 0.781815 z m 3.127264,0 h -0.781816 v -1.563632 h 0.781816 z m 3.127263,0 h -0.781816 v -1.563632 h 0.781816 z m -12.118145,-0.390908 h -3.127263 v -0.781816 h 3.127263 z m 5.111512,-15.0069542 2.042884,-6.998033 c 0.3182,0.0016 0.63718,0.0031 0.956161,0.0055 l 1.984249,7.096542 2.132012,-6.990215 c 0.3095977,0.0016 0.6191977,0.0031 0.9287967,0.0047 l 2.021775,6.864342 2.056958,-6.704852 1.494831,0.45814396 -2.750428,8.96664504 2.752774,9.3466082 -1.499523,0.442508 -2.085103,-7.078557 -2.225047,7.253686 -0.9420877,-0.01173 -1.950631,-6.976924 -2.166411,7.102797 -0.955379,-0.01642 -1.860722,-6.95816 -1.95063,6.682961 -1.501086,-0.437816 2.672246,-9.1574092 -2.457247,-9.18555404 1.510468,-0.40341696 z m -5.111512,9.9251512 h -3.127263 v -0.781815 h 3.127263 z m 5.890982,-7.0128872 1.563632,5.8472002 1.792704,-5.8776912 -1.637905,-5.858928 z m 4.985639,-0.01173 1.6238317,5.8088912 1.845867,-6.0160732 -1.673868,-5.681455 z m -10.876621,1.9428122 h -3.127263 V 9.6712508 h 3.127263 z m 0,-5.0818032 h -3.127263 v -0.781816 h 3.127263 z m 0,-5.08180204 h -3.127263 v -0.781816 h 3.127263 z"
         style="clip-rule:evenodd;fill:#ffffff;fill-rule:nonzero;stroke-width:0.781816;stroke-linejoin:round;stroke-miterlimit:1.5"
         id="path43" />
    </g>
  </g>
</svg>
