<?xml version="1.0" encoding="UTF-8" standalone="no"?>
<!-- Created with Inkscape (http://www.inkscape.org/) -->

<svg
   width="24"
   height="24"
   viewBox="0 0 6.3499999 6.35"
   version="1.1"
   id="svg1"
   inkscape:version="1.3.2 (091e20e, 2023-11-25, custom)"
   sodipodi:docname="export.svg"
   xmlns:inkscape="http://www.inkscape.org/namespaces/inkscape"
   xmlns:sodipodi="http://sodipodi.sourceforge.net/DTD/sodipodi-0.dtd"
   xmlns="http://www.w3.org/2000/svg"
   xmlns:svg="http://www.w3.org/2000/svg">
  <sodipodi:namedview
     id="namedview1"
     pagecolor="#505050"
     bordercolor="#ffffff"
     borderopacity="1"
     inkscape:showpageshadow="0"
     inkscape:pageopacity="0"
     inkscape:pagecheckerboard="1"
     inkscape:deskcolor="#505050"
     inkscape:document-units="mm"
     inkscape:zoom="11.702245"
     inkscape:cx="21.961599"
     inkscape:cy="-6.9644758"
     inkscape:window-width="1920"
     inkscape:window-height="1017"
     inkscape:window-x="-8"
     inkscape:window-y="-8"
     inkscape:window-maximized="1"
     inkscape:current-layer="layer1" />
  <defs
     id="defs1" />
  <g
     inkscape:label="Calque 1"
     inkscape:groupmode="layer"
     id="layer1">
    <path
       d="M 0.39768686,0.79639555 V 0.47889177 c 0,-0.26299833 0.21347301,-0.47625465 0.47614877,-0.47625465 H 5.8733981 c 0.262675,0 0.4761488,0.21325632 0.4761488,0.47625465 V 5.8764468 c 0,0.2627338 -0.2134738,0.4762551 -0.4761488,0.4762551 H 0.87383563 c -0.26267576,0 -0.47614877,-0.2135213 -0.47614877,-0.4762551 V 5.2943567 H 8.9602125e-4 V 5.0297715 H 0.39768686 V 4.2360131 H 8.9602125e-4 V 3.9714274 H 0.39768686 V 3.177669 H 8.9602125e-4 V 2.9130836 H 0.39768686 V 2.1193251 H 8.9602125e-4 V 1.8547397 H 0.39768686 V 1.060981 H 8.9602125e-4 V 0.79639555 Z M 5.820493,5.2943567 H 4.4978571 v 0.264587 H 5.820493 Z M 0.79447711,4.8974784 c 0.14601953,0 0.26452739,0.1185341 0.26452739,0.2645854 0,0.1460518 -0.11850786,0.2645864 -0.26452739,0.2645864 -0.14601881,0 -0.26452661,-0.1185346 -0.26452661,-0.2645864 0,-0.1460513 0.1185078,-0.2645854 0.26452661,-0.2645854 z M 1.9012588,5.1662976 H 1.588059 L 2.0475424,4.1373227 h -0.030953 c -0.2364872,0 -0.4285333,-0.1928833 -0.4285333,-0.4307462 V 1.6285182 c 0,-0.2378629 0.1920461,-0.4310105 0.4285333,-0.4310105 h 1.5236795 c 0.2364866,0 0.4285335,0.1931476 0.4285335,0.4310105 v 2.0780583 c 0,0.2378629 -0.1920469,0.4307462 -0.4285335,0.4307462 h -0.00528 L 3.9688105,5.1662976 H 3.6730696 L 3.4659443,4.6519422 H 2.1205596 Z M 5.820493,4.5005991 H 4.7623838 V 4.7651853 H 5.820493 Z M 3.258812,4.1373227 H 2.339845 L 2.2144593,4.4312774 H 3.3770555 Z M 0.79447711,3.8391344 c 0.14601953,0 0.26452739,0.1185341 0.26452739,0.2645855 0,0.1460521 -0.11850786,0.2645861 -0.26452739,0.2645861 -0.14601881,0 -0.26452661,-0.118534 -0.26452661,-0.2645861 0,-0.1460514 0.1185078,-0.2645855 0.26452661,-0.2645855 z M 5.820493,3.7068413 H 4.7623838 V 3.9714274 H 5.820493 Z M 2.1205519,3.2554574 c 0.1211531,0 0.2192931,0.098691 0.2192931,0.2204 0,0.1217096 -0.09814,0.2206647 -0.2192931,0.2206647 -0.1208888,0 -0.2192931,-0.098955 -0.2192931,-0.2206647 0,-0.1217091 0.098405,-0.2204 0.2192931,-0.2204 z m 1.3575531,0 c 0.1208889,0 0.219293,0.098691 0.219293,0.2204 0,0.1217096 -0.098404,0.2206647 -0.219293,0.2206647 -0.1211537,0 -0.219293,-0.098955 -0.219293,-0.2206647 0,-0.1217091 0.098139,-0.2204 0.219293,-0.2204 z M 0.79447711,2.7641214 c 0.14601953,0 0.26452739,0.1185341 0.26452739,0.2645862 0,0.1460513 -0.11850786,0.2645855 -0.26452739,0.2645855 -0.14601881,0 -0.26452661,-0.1185342 -0.26452661,-0.2645855 0,-0.1460521 0.1185078,-0.2645862 0.26452661,-0.2645862 z M 5.820493,2.9130836 H 4.4978571 V 3.177669 H 5.820493 Z M 3.5093193,1.6385725 H 2.0475424 V 2.6675473 H 3.5093193 Z M 5.820493,2.1193251 H 4.7623838 V 2.3839113 H 5.820493 Z M 0.79447711,1.7057774 c 0.14601953,0 0.26452739,0.1185342 0.26452739,0.2645862 0,0.1460513 -0.11850786,0.2645855 -0.26452739,0.2645855 -0.14601881,0 -0.26452661,-0.1185342 -0.26452661,-0.2645855 0,-0.146052 0.1185078,-0.2645862 0.26452661,-0.2645862 z M 5.820493,1.3255672 H 4.7623838 V 1.5901534 H 5.820493 Z M 0.79447711,0.6289126 c 0.14601953,0 0.26452739,0.11853415 0.26452739,0.26458547 0,0.14578723 -0.11850786,0.26458613 -0.26452739,0.26458613 -0.14601881,0 -0.26452661,-0.1187989 -0.26452661,-0.26458613 0,-0.14605132 0.1185078,-0.26458547 0.26452661,-0.26458547 z M 5.820493,0.53180937 H 4.4978571 V 0.79639555 H 5.820493 Z"
       style="clip-rule:evenodd;fill:#ffffff;fill-rule:evenodd;stroke-width:0.264556;stroke-linejoin:round;stroke-miterlimit:1.5"
       id="path497" />
  </g>
</svg>
