<?xml version="1.0" encoding="UTF-8" standalone="no"?>
<!-- Created with Inkscape (http://www.inkscape.org/) -->

<svg
   width="24"
   height="24"
   viewBox="0 0 6.3500001 6.3500001"
   version="1.1"
   id="svg1"
   inkscape:version="1.3.2 (091e20e, 2023-11-25, custom)"
   sodipodi:docname="opérationnel.svg"
   xmlns:inkscape="http://www.inkscape.org/namespaces/inkscape"
   xmlns:sodipodi="http://sodipodi.sourceforge.net/DTD/sodipodi-0.dtd"
   xmlns="http://www.w3.org/2000/svg"
   xmlns:svg="http://www.w3.org/2000/svg">
  <sodipodi:namedview
     id="namedview1"
     pagecolor="#505050"
     bordercolor="#ffffff"
     borderopacity="1"
     inkscape:showpageshadow="0"
     inkscape:pageopacity="0"
     inkscape:pagecheckerboard="1"
     inkscape:deskcolor="#505050"
     inkscape:document-units="mm"
     inkscape:zoom="16.549473"
     inkscape:cx="6.7675871"
     inkscape:cy="5.7705765"
     inkscape:window-width="1920"
     inkscape:window-height="1017"
     inkscape:window-x="-8"
     inkscape:window-y="-8"
     inkscape:window-maximized="1"
     inkscape:current-layer="layer1" />
  <defs
     id="defs1" />
  <g
     inkscape:label="Calque 1"
     inkscape:groupmode="layer"
     id="layer1">
    <path
       d="m 3.1677786,0.01043176 c 1.7465075,0 3.164441,1.41793214 3.164441,3.16443974 0,1.7465074 -1.4179335,3.1644397 -3.164441,3.1644397 -1.7465062,0 -3.16443965,-1.4179323 -3.16443965,-3.1644397 0,-1.7465076 1.41793345,-3.16443974 3.16443965,-3.16443974 z M 2.4742391,4.7937462 H 0.80025078 V 4.2033153 H 2.3268287 L 4.5959955,2.7571657 4.9301081,3.2286672 Z M 5.5353079,4.2033153 V 4.7937462 H 3.0148312 L 3.9412207,4.2033153 Z M 2.3521446,3.7753248 H 0.93605736 C 0.95240251,3.6355612 1.0017167,3.5039739 1.0839948,3.380824 1.1662654,3.257678 1.3205368,3.11211 1.5467942,2.9443949 1.6852388,2.8418133 1.7735798,2.7637582 1.8123432,2.7104908 c 0.038507,-0.053268 0.057753,-0.1039 0.057753,-0.1518933 0,-0.051684 -0.01898,-0.095992 -0.057221,-0.1326427 -0.038241,-0.036656 -0.08649,-0.055118 -0.1442466,-0.055118 -0.060388,0 -0.109703,0.01898 -0.1479375,0.056955 -0.038241,0.037708 -0.06381,0.1044321 -0.076999,0.2004156 L 0.97087125,2.5899675 C 0.9893324,2.4570612 1.0233531,2.3534254 1.0729207,2.2787978 1.1222348,2.2041678 1.1921135,2.1469457 1.2820371,2.107127 1.3719601,2.067569 1.4966919,2.047524 1.6557047,2.047524 c 0.1661338,0 0.2953479,0.018993 0.3876447,0.056701 0.092293,0.037974 0.1650784,0.095992 0.2178186,0.1745712 0.053002,0.078317 0.079635,0.1661325 0.079635,0.2637029 0,0.1033666 -0.030321,0.2022603 -0.090975,0.2966669 C 2.1891735,2.933309 2.0786842,3.0369439 1.9188794,3.1495454 1.8239512,3.2152049 1.7603948,3.2613518 1.7282229,3.2874617 1.6960526,3.3138289 1.6586102,3.3481162 1.6153523,3.390576 H 2.3521396 Z M 4.2721679,0.77543509 V 2.5032191 H 3.7946022 V 1.3711407 C 3.7173367,1.4296794 3.6427089,1.4774089 3.5704545,1.5135411 3.4981939,1.5499318 3.4077494,1.5847375 3.29884,1.6179731 V 1.2308563 C 3.4594342,1.1791727 3.5841666,1.1169346 3.6730348,1.0441543 3.7619064,0.97164011 3.8315206,0.88197626 3.8816242,0.77544015 Z"
       style="clip-rule:evenodd;fill:#ffffff;fill-rule:evenodd;stroke-width:0.263703;stroke-linejoin:round;stroke-miterlimit:1.5"
       id="path42" />
  </g>
</svg>
