<?xml version="1.0" encoding="UTF-8" standalone="no"?>
<!-- Created with Inkscape (http://www.inkscape.org/) -->

<svg
   width="24"
   height="24"
   viewBox="0 0 24 24"
   version="1.1"
   id="svg1"
   inkscape:version="1.3.2 (091e20e, 2023-11-25, custom)"
   sodipodi:docname="1.svg"
   xmlns:inkscape="http://www.inkscape.org/namespaces/inkscape"
   xmlns:sodipodi="http://sodipodi.sourceforge.net/DTD/sodipodi-0.dtd"
   xmlns="http://www.w3.org/2000/svg"
   xmlns:svg="http://www.w3.org/2000/svg">
  <sodipodi:namedview
     id="namedview1"
     pagecolor="#505050"
     bordercolor="#ffffff"
     borderopacity="1"
     inkscape:showpageshadow="0"
     inkscape:pageopacity="0"
     inkscape:pagecheckerboard="1"
     inkscape:deskcolor="#505050"
     inkscape:document-units="mm"
     inkscape:zoom="8"
     inkscape:cx="7.75"
     inkscape:cy="8.3125"
     inkscape:window-width="1920"
     inkscape:window-height="1017"
     inkscape:window-x="-8"
     inkscape:window-y="-8"
     inkscape:window-maximized="1"
     inkscape:current-layer="svg1" />
  <defs
     id="defs1" />
  <path
     d="M 7,2.9999995 0,0 v 23.999999 l 7,-3 z m 16.999999,0 -6,-2.9999995 v 23.999999 l 6,-3 z M 16.999999,0 8,2.9999995 V 20.999999 l 8.999999,3 z m -1.020001,18.722999 -2.937,-0.518 -0.172999,0.985 2.937,0.518 z M 11.784999,17.983 9.087,17.508001 8.912999,18.492 l 2.698,0.475999 z m 4.232,-2.870999 -3.017,-0.264 -0.087,0.996 3.017001,0.263998 z m -4.232,-0.370001 -2.741,-0.239999 -0.088,0.995999 2.742,0.24 z M 12,11.5 H 9 v 1 h 3 z m 3.999999,0 h -3 v 1 h 3 z m -4.259,-3.2420005 -2.784999,0.244 0.088,0.996 2.784001,-0.244 z m 4.189,-0.366 -2.974,0.26 0.088,0.996 2.973,-0.26 z m -4.363,-2.852 -2.654,0.468 0.174001,0.984 2.653999,-0.468 z m 4.24,-0.748 -2.894,0.51 0.173999,0.985 2.893,-0.51 z"
     style="clip-rule:evenodd;fill:#cccccc;fill-rule:evenodd;stroke-width:1;stroke-linejoin:round;stroke-miterlimit:1.5;stroke:none;stroke-opacity:1;stroke-dasharray:none;fill-opacity:1"
     id="path91" />
</svg>
