<?xml version="1.0" encoding="UTF-8"?>
<!-- Created with Inkscape (http://www.inkscape.org/) -->
<svg width="24" height="24" version="1.1" viewBox="0 0 6.35 6.35" xmlns="http://www.w3.org/2000/svg">
 <g clip-rule="evenodd" stroke-linejoin="round" stroke-miterlimit="1.5">
  <path d="m88.799 14.989c11.371 6.2502 19.602 9.2815 32.836 10.29 2.2178 8.8921 4.2479 27.806-0.86905 39.768-4.9953 12.514-20.913 31.324-32.019 33.372-11.061-2.0058-27.021-20.857-32.016-33.372-5.117-11.962-3.0869-30.876-0.86905-39.768 13.234-1.0081 17.989-0.56662 32.836-10.29zm-0.45538 13.853c13.46 0 24.389 10.926 24.389 24.386s-10.929 24.386-24.389 24.386c-13.46 0-24.386-10.926-24.386-24.386s10.926-24.386 24.386-24.386zm0 24.278 15.97 6.8759c-2.6662 6.1772-8.8157 10.505-15.97 10.505-9.5908 0-17.381-7.7867-17.381-17.381 0-9.5908 7.7902-17.381 17.381-17.381z" fill="none" stroke-width="3.4762"/>
  <path d="m3.1951 3.0998e-4c0.8655 0.47575 1.4921 0.70648 2.4994 0.78321 0.16881 0.67684 0.32334 2.1165-0.06615 3.027-0.38023 0.95255-1.5918 2.3843-2.4372 2.5401-0.84195-0.15267-2.0567-1.5876-2.437-2.5401-0.38949-0.91048-0.23496-2.3502-0.06615-3.027 1.0073-0.076735 1.3693-0.043134 2.4994-0.78321zm-0.034665 1.0544c1.0245 0 1.8564 0.83163 1.8564 1.8562 0 1.0245-0.8319 1.8562-1.8564 1.8562-1.0245 0-1.8562-0.83163-1.8562-1.8562 0-1.0245 0.83163-1.8562 1.8562-1.8562zm0 1.848 1.2156 0.52338c-0.20295 0.47019-0.67102 0.79962-1.2156 0.79962-0.73003 0-1.323-0.5927-1.323-1.323 0-0.73003 0.59297-1.323 1.323-1.323z" fill="#f2f2f2" fill-rule="evenodd" stroke-width=".2646"/>
 </g>
</svg>
