<?xml version="1.0" encoding="UTF-8" standalone="no"?>
<!-- Created with Inkscape (http://www.inkscape.org/) -->

<svg
   width="24"
   height="24"
   viewBox="0 0 6.3499999 6.35"
   version="1.1"
   id="svg1"
   inkscape:version="1.3.2 (091e20e, 2023-11-25, custom)"
   sodipodi:docname="train.svg"
   xmlns:inkscape="http://www.inkscape.org/namespaces/inkscape"
   xmlns:sodipodi="http://sodipodi.sourceforge.net/DTD/sodipodi-0.dtd"
   xmlns="http://www.w3.org/2000/svg"
   xmlns:svg="http://www.w3.org/2000/svg">
  <sodipodi:namedview
     id="namedview1"
     pagecolor="#505050"
     bordercolor="#ffffff"
     borderopacity="1"
     inkscape:showpageshadow="0"
     inkscape:pageopacity="0"
     inkscape:pagecheckerboard="1"
     inkscape:deskcolor="#505050"
     inkscape:document-units="mm"
     inkscape:zoom="256"
     inkscape:cx="22.90625"
     inkscape:cy="24.095703"
     inkscape:window-width="1920"
     inkscape:window-height="1017"
     inkscape:window-x="-8"
     inkscape:window-y="-8"
     inkscape:window-maximized="1"
     inkscape:current-layer="layer1" />
  <defs
     id="defs1" />
  <g
     inkscape:label="Calque 1"
     inkscape:groupmode="layer"
     id="layer1">
    <path
       d="M 1.4023288,6.2829266 H 0.51517256 c 0,0.037887 -0.0459065,0.068636 -0.10231641,0.068636 -0.0564795,0 -0.10231728,-0.030746 -0.10231728,-0.068636 0,0.037887 -0.0459062,0.068636 -0.10231705,0.068636 -0.0564795,0 -0.10231725,-0.030746 -0.10231725,-0.068636 0,-5.418e-4 0,-0.00108 0,-0.00159 C 0.08407802,6.2780119 0.03694284,6.2698486 0.0226867,6.2579514 0.00379323,6.2421162 -0.00337021,6.2214365 0.00317875,6.201625 0.02623423,6.131936 0.12582266,6.028205 0.19553434,5.959798 0.24021321,5.916007 0.28127631,5.871121 0.36040134,5.871121 H 1.2939414 C 1.3388237,5.837229 1.3806371,5.801355 1.4243611,5.766717 L 1.4353444,5.7580238 1.3310495,5.6423041 H 1.2087469 v -0.045741 h 0.3410566 v 0.045758 H 1.4275007 l 0.1004071,0.1131111 c -0.049999,0.039672 -0.09495,0.076964 -0.1444033,0.1156738 H 4.9681451 C 4.9186924,5.8323957 4.8737406,5.7951037 4.8237414,5.7554322 L 4.9241488,5.6423206 H 4.8018462 V 5.596563 h 0.3410564 v 0.045758 h -0.122303 l -0.1042953,0.1157197 0.010982,0.00869 c 0.043723,0.034638 0.085537,0.070512 0.1304195,0.1043719 h 0.9335404 c 0.079125,0 0.1201884,0.044889 0.1648666,0.088677 0.069712,0.068407 0.169301,0.1721382 0.1923563,0.2418261 0.00655,0.019811 -6.163e-4,0.040497 -0.019505,0.056327 -0.014255,0.011897 -0.061389,0.020092 -0.083217,0.023379 0,5.03e-4 0,0.00102 0,0.00159 0,0.037887 -0.045839,0.068636 -0.1023173,0.068636 -0.056411,0 -0.1023171,-0.030746 -0.1023171,-0.068636 0,0.037887 -0.045837,0.068636 -0.1023173,0.068636 -0.056411,0 -0.1023162,-0.030746 -0.1023162,-0.068636 H 4.9493214 c 0,0.037887 -0.045838,0.068636 -0.102317,0.068636 -0.056275,0 -0.1019759,-0.030522 -0.1023173,-0.068178 -3.104e-4,0.037657 -0.046044,0.068178 -0.1023169,0.068178 -0.056479,0 -0.1023167,-0.030746 -0.1023167,-0.068636 H 3.3804611 c 0,0.037887 -0.045838,0.068636 -0.1023175,0.068636 -0.056274,0 -0.1019763,-0.030522 -0.1023174,-0.068178 -3.106e-4,0.037657 -0.046042,0.068178 -0.1023169,0.068178 -0.056479,0 -0.1023165,-0.030746 -0.1023165,-0.068636 H 1.8115994 c 0,0.037887 -0.045837,0.068636 -0.1023162,0.068636 -0.056276,0 -0.1019761,-0.030522 -0.1023172,-0.068178 -3.107e-4,0.037657 -0.046041,0.068178 -0.1023173,0.068178 -0.056479,0 -0.1023171,-0.030746 -0.1023171,-0.068636 z M 4.2672042,5.9869695 h -0.272845 v 0.1129281 h 0.272845 z m -1.2278036,0 H 2.7665554 V 6.0998976 H 3.0394006 Z M 1.4780435,5.9871992 H 1.2039708 v 0.1133399 h 0.2740727 z m -0.3419427,0 H 0.86202746 V 6.1005391 H 1.1361008 Z m 1.5622433,-2.297e-4 h -0.272845 v 0.1129281 h 0.272845 z m -0.3410566,0 H 2.0844422 v 0.1129281 h 0.2728453 z m 1.2278036,0 H 3.3122462 v 0.1129281 h 0.2728449 z m 2.5449646,0 H 6.1129362 V 6.0998976 H 6.2270538 Z M 5.5078316,5.9871992 H 5.2337583 V 6.1005391 H 5.5078316 Z M 4.6082608,5.9869695 H 4.3354155 v 0.1129281 h 0.2728453 z m -4.38666987,0 L 0.124595,6.0998976 H 0.23871179 V 5.9869695 Z M 5.165889,5.9871992 H 4.8918157 V 6.1005391 H 5.165889 Z M 2.0162308,5.9869695 H 1.743386 v 0.1129281 h 0.2728448 z m 1.9099168,0 H 3.6533029 v 0.1129281 h 0.2728447 z"
       style="clip-rule:evenodd;fill:#ffffff;fill-rule:evenodd;stroke-width:0.0558673;stroke-linejoin:round;stroke-miterlimit:1.5"
       id="path527" />
  </g>
</svg>
