<?xml version="1.0" encoding="UTF-8"?><svg version="1.1" viewBox="0 0 458 221" xmlns="http://www.w3.org/2000/svg"><g fill="#FFF"><path d="M171.508 66.137c-.12.481.2.681.641.601 -.401.841-1.202-.12-1.563-.561 .041-.08.081-.16.161-.28 .12.08.24.2.36.28 0-.12.04-.24.04-.4 .201.04.241.16.361.36Zm-1.763-.04c.04.2-.24.681.201 1.001 0-.48-.081-.801.24-1.161 -.16-.04-.401-.08-.561-.08 -.08.2.04.16.12.24Zm.641-.841c-.08.04-.16.08-.28.12 .04.08.12.2.16.28 .361-.32.481-.52.881-.601 -.08-.08-.12-.16-.2-.28 .601-.08.521-.881.24-.761 -.4.24-1.642.601-.801 1.242Zm-3.925 13.019c-.161.08-.281.28-.401.4 1.282 1.082 3.004-.921 4.246-1.282 .401-.12.721.281.881-.24 .121-.481.281-.921.441-1.402 .2-.601-.16-1.402-.561-1.803 .881-.601 1.122-.601 1.242-1.722 -.441.16-.561-.681-.881-1.082 -.201-.24-1.002.12-1.322.201 .08-.121.16-.241.2-.361 -.961-.561-1.923.521-2.403 1.322 .32.12.641.24.961.32 -.401.321-.601.641-1.082.521 -.32-.08-.761-.36-1.081-.16 -.521.28-.401.36-.2 1.001 .08.281-.401.601-.601.802 .561.24 1.001.44 1.602.48 -.401.361-.841.801-1.322 1.402 .561-.12 1.122-.36 1.683-.16 -.361.08-1.162.08-1.362.401 -.241.36-.521.52-.922.6 .241.04.441.161.681.201 -.24.12-.48.28-.721.36 .321.08.641.12.922.201Zm4.766-11.096c-.04.04-.12.08-.2.12l.16.16c.04-.12.161-.16.04-.28Zm214.269-45.105c1.642.08 2.724 0 4.326-.481 .12-.04.201-.881.16-1.002 -.08-.16-.961-.28-1.121-.32 -.841-.28-1.162-.12-2.003.12 .04-.2-.04-.4.04-.601 -.721-.04-1.482-.24-2.083.321 -.04-1.482-1.763-.561-1.562.36 .08.401 1.842 1.322 2.243 1.603Zm-132.831 9.894c.881.921 1.922 1.562 3.124 1.642 1.082.08 3.325.761 4.246-.04 -1.482-1.041-2.724-1.923-2.764-4.006 -.04-1.642 1.523-3.044 2.444-4.126 .561-.64 1.081-1.362 1.602-2.043 .481-.6 1.562-1.001 2.203-1.402 1.242-.761 2.043-1.762 3.405-2.203 1.643-.52 3.325-.961 4.967-1.562 .842-.28 4.126-.881 4.246-2.323 .161-1.763-3.244-1.002-3.845-.521 -1.362 1.122-2.884 1.322-4.527 1.803 -1.522 0-2.483.12-3.925.681 -1.082.44-2.844.761-3.726 1.562 -1.001.881-2.043 1.762-2.964 2.764 -.641.721-1.282 1.442-1.923 2.163 -.48.561-.2.921-.04 1.682 .08.321-1.322 1.082-1.562 1.242 -.881.641-.08.681-.481 1.522 -.32.601-1.241.321-1.281 1.162 -.081 1.162.04 1.162.801 2.003Zm8.772 2.844c.201.561 1.963 2.003 2.604 1.482 .641-.561-1.522-1.762-1.803-1.963 -.28.16-.52.321-.801.481Zm-13.659 4.046c.44.44 1.802-.761 2.163-1.002 -.601-.56-.962-.681-1.763-.881 -1.041.401-1.322.961-.4 1.883Zm-37.735-3.645c1.362-.201 2.203-.601 3.125-1.683 -.601 0-.641.561-1.122.801 -.4.241-1.161.12-1.602.16 .28.401 0 .601-.401.722Zm161.593-13.82c.481.32 1.001.841 1.562.801 .962-.08.922-.12 1.322-1.122 .721 1.162 1.843.2 2.884-.24 .281-.12.681.921 1.002.881 .521-.12 1.041-.24 1.602-.32 -.2-.321-.36-.641-.561-.922 .681.281.922.521 1.522.161 .481-.321.922-.561 1.282-1.042 -1.402-.561-2.844-1.082-4.246-1.642 -.36-.161-1.001-.561-1.402-.401 -.721.321-.36.801-.24 1.602 -1.002-.44-3.045-2.363-4.006-1.562 -.921.721-1.402.962-1.682 2.123 -.201.641.56 1.202.961 1.683Zm-200.369 48.99c.361-.12.401-.4.201-.761 -.16.04-.361.2-.481.321 .401.08.16.24.28.44Zm205.857-44.424c.921.761 1.562.561 2.724.561 -.24-1.082-.361-1.082-1.202-1.642 -.2-.121-1.722-.802-1.722-.842 -.08-.721-.681-1.442-1.523-.881 -1.001.641.201 1.322.641 1.643 -.56.4-1.121.801-1.682 1.161 .761-.08 2.163-.561 2.764 0Zm-58.845-14.701c.761 1.042 2.684-.28 3.605-.601 .281-.08.802.481 1.202.401 .801-.161 1.602-.281 2.444-.441 .6-.12.841-.28 1.362-.681 .32-.24-.361-1.202-.721-1.242 -.802-.08-.922-.4-1.483-1.041 -.24-.281-1.281 0-1.642.04 .24-.2.441-.401.681-.601 -1.122-.401-1.923-.361-2.724.521 -.801.881-1.402 1.882-2.003 2.924 -.24.24-.48.481-.721.721ZM307.744 5.97c.801-.04 2.363-.56 2.924.161 .721.921 1.122 2.083 2.243 2.003 1.362-.161 2.003-.161 3.245.32 1.162.441 1.683.2 2.844-.16 -.12-.361-.521-1.162-.4-1.563 .2-.48.681-1.161.2-1.442 -1.082-.6-1.682-.08-2.804.361 .36-.401.761-.801 1.122-1.202 -.521-.12-1.803-.08-1.923-.721 -.241-1.362-.241-1.202.961-1.562 -.761-.561-2.203-2.123-3.124-2.163 -1.042-.04-.361.601-1.002.761 -.721.2-1.402.441-2.123.641 -.801.24-.721.521-.961 1.402 -.08.32-1.322.44-1.603.521 -.32.08-.64 1.321-.801 1.642 -.04.2 1.042.841 1.202 1.001Zm122.697 27.24c.36-.121.681.16 1.041.08 1.202-.241 2.163-.201 3.005-1.162 -.481-.441-.882-1.001-1.523-1.001 -.841-.04-1.682-.08-2.523-.121 -.601-.04-1.482.601-2.043.842 -.16.08.28 1.602.36 1.842 .561-.16 1.122-.32 1.683-.48Zm-227.848 4.366c-.481.2-1.122.24-.962.961 .281-.2.561-.44.801-.641 .04-.12.121-.2.161-.32Zm-3.646 3.084c.361.08.641-.08.801-.44 -.24-.241-.48-.201-.761.04 0 .16 0 .28-.04.4Zm2.003-2.443c-.32.32-.601.681-.881 1.001 .28.08.601.12.881.201 .601-.401.521-.802 0-1.202Zm-25.356 24.876c.32.08.4.04.681-.121 -.241-.04-.361-.12-.641-.08 .08-.04.16-.08.24-.12 -.481-.36-.561.12-.601.321 .08.12.12.2.201.28 .04-.08.08-.2.12-.28Zm36.372-28.882c.321-.28.641-.481.681-.921 -.441.24-.36.52-.921.36 -.401-.12-.721-.16-1.162-.04 .16.841.761.601 1.402.601Zm-40.258 35.691c.12-.2.28-.4.361-.64 -.281-.081-.601.16-.361.64Zm29.402-30.243c-.6 0-1.161-.16-1.161.761 .4-.24.801-.521 1.161-.761Zm-28.521 30.444c0 .24.08.44.241.641 .2-.361.08-.601-.241-.641Zm-.32-3.645c-.08.04-.16.08-.24.12 .12.04.2.08.32.12 -.28.28-.401.561-.481.961 -.04.16-.48.321-.681.601 .601.12.601.361.04.481 .361.36 1.322-.04.521-.521 .481.321.721-.16 1.122-.521 .04.08.08.12.12.201 -.561.32-.641.961-.801 1.562 -.08.4.16.4-.08.961 -.121.281-.321.401-.08.601 .44.401.36-.561.4-.881 .08-.481.04-1.002.601-1.242 -.681.561-.12 1.082.361.12 .08.12.12.361.16.521 -.401.04-.321.16-.241.561 .121.521.201.32 0 1.001 -.2.641-.801.721-.08 1.282 0-.16 0-.32-.04-.481 .361.121.881.561.681-.04 .521.361 1.202-.36 1.923-.24 -1.282.32-.601 2.323.2 1.722 -.36.481-.32 1.523.12 1.843l-.16.04c-.2-.32-.16-.12-.4-.24 .04.12.04.24.08.32 -.481-.08-.882-.28-1.282.04 -.12-.36-.401-.48-.761-.36 .521.44.28.841-.2 1.202 .32-.081.64-.121.961-.161 -.08.641.28.801-.16 1.402 -.241.321-1.162.481-1.523.641 .041.16.081.441.081.361 .4.721.961-.201 1.562.12 -.08.08-.16.12-.241.16 .241 0 .922.401 1.002.361 .441-.161.921-.321 1.362-.481 -.281.32-.561.561-.641 1.001 -.881-.12-1.763-.52-2.083.641 -.16.601-1.122 1.082-1.562 1.563 .761.52 1.602-1.042 2.684-.241 .6-1.522.841-.28 1.922-.801 .321-.16 1.002-.681 1.362-.681 .481.04.561.561 1.122.401 .881-.241 1.522-.201 2.484-.601 1.201-.521-.641-.881-1.002-.921 .921-.681 1.562-1.042 1.682-2.284 .161-1.282-2.042-.4-2.243-.641 .841-.601-.4-1.682-1.041-1.682 .4-.16.761-.04.961.32 -.28-1.642-1.642-1.762-2.043-3.124 -.521-1.723-1.242-1.843-2.804-2.083 .281-.321.601-.521 1.002-.401 -.481-1.001 1.722-2.163 1.161-3.084 -.36-.561-2.924-.281-3.204.32l-.121-.12c.201-.16.281-.481.481-.601 -.2-.04-.44-.2-.681-.2h.481c.12-.601 1.282-.761 1.442-1.682 -.601-.121-1.442.04-2.003.36 -.28-.16.04-.2-.4 0 -.121-.641-.641-.12-.441.401 -.12.04-.281.04-.401.08 -.08.16-.08.28-.12.36 .2.16.321.401.521.561 -.281-.2-.641-.24-.962-.08 .121.24.161.521.281.761 -.12-.04-.281-.04-.401-.08 -.04.32.12.32.401.401Zm1.682 6.409c-.32.16-.48.4-.52.761h.28c.24-.2.36-.481.24-.761Zm29.403-33.689c.52-.561 1.041-1.121 1.602-1.722 -.361.32-.761.641-1.122.921 -.48.04-.641.321-.48.801Zm2.764-3.325c-.281.361-.561.481-.922.842 .321 0 .641.04.962.04 .24-.441.641-.641-.04-.882Zm-1.843.962c-.641.2-.641.16-.681.881 -.08 1.082 1.402-.36 1.722-.641 -.28-.561-.6-.4-1.041-.24Zm3.165-1.282c-.441-.28-.962-.32-1.162.28 .16.08.32.161.481.201 .32 0 .56-.161.681-.481Zm-4.767 3.004c-.321.201-.12.641-.601.882 .08-.361.12-.681.2-1.042 -.441 0-.681.401-.521.841h-.36c-.08.481 0 .321-.321.681 .561.08.761.281 1.122-.2 .24-.361.481-.521.961-.361 .08-.36 0-1.081-.48-.801Zm-1.242 2.003c0 .681-.361.801-.881.881 .2.161.12.201.4.321 -.08.16-.16.36-.28.521 .521-.601.881-.801.761-1.723Zm.601-.2c-.16-.08-.361-.04-.481-.08 0 .2 0 .521.08.721 .441-.441.881-.922 1.322-1.362 -.441-.04-.721.24-.921.721Zm6.449-4.567c-.601-.4-1.642.321-2.043.842 .281-.081.561-.201.841-.281 .401-.2.801-.4 1.202-.561Zm.521-.801c-.16-.04-.481-.04-.641.04 .04.16.08.281.12.401 .401.28.601.08.521-.441Zm69.059-9.373c-.881.12-.641.48-.761 1.402 .761-.12 1.562-.281 2.364-.401 -.281-.801-.882-1.041-1.603-1.001Zm82.279 87.205c.04.361.08.721.16 1.082 .881.08.2-.922.841-.841 .761.08.361 1.081.16 1.402 -.4.641-.48 2.724.601 1.922 .882-.641 1.202-1.842 1.683-2.884 .12-.28-.361-.921-.481-1.121 -.32-.521-.601.08-1.001-.561 .681-.641 1.482.36 1.842-.922 .361.601.641.361 1.082.081 .24-.121 1.001-.321 1.121-.441 .481-.601 1.483-.2 2.164-.16 -1.042.881-.401 1.482.36 2.163 .401-.601.801-1.643 1.602-1.482 -.48-.401-.641-.882-.04-1.282 .641 1.081 2.003.601 2.644-.321 .16.281.281.601.441.882 .36-.521.681-1.082 1.161-1.482 -.08.32-.12.64-.2.961 .681-.24.801-.801 1.402-1.162 .08-.04-.12-1.442-.04-1.802 .16-.761.441-.801.441-1.723 0-.601-.12-1.562.721-1.121 0-.601-.16-1.042.32-1.362 .521-.361.361-.962.361-1.603 0-.44-.481-1.081-.681-1.482 -.201-.4 0-.841.12-1.282 -.721-.4-1.162.161-.961.962 -.441-1.643-1.443.52-1.603 1.161 -.12.521.481.721.401 1.002 -.2.681-.441 1.362-.641 2.043 -.281.881-.881 1.842-1.723 2.243 -.52.24-.921.521-1.482.561 -.52 0 .08-.922.241-1.042 -.721.281-1.002.201-1.042 1.042 0 .44-.681 1.041-.961 1.362 -.321.4.16.801-.401 1.041 -.801.361-.44-.32-.961-.28 -.922.12-2.644-.12-3.205.721 -.641.961-1.522 1.602-2.564 1.562 .401 1.202-1.161 1.683-1.882 2.163Zm17.505-32.687c0 1.002.12 1.883-.32 2.764 -.521 1.122-.121 1.162.12 2.283 .12.721.12.762-.241 1.362 -.2.321.08.802.08 1.162 0 1.122-.2 1.322.241 2.404 .12-.601.12-1.523.841-1.643 .721-.12 1.082.761 1.042 1.362 .68-.721-.161-1.843-.521-2.483 -.481-.842-.801-1.002-.521-1.963 .401-1.322.28-1.683 1.522-1.923 .801-.16.721 1.242 1.522 1.242 -.641-1.162-.921-2.163-1.281-3.525 -.161-.601-.321-1.242-.481-1.843 -.12-.401-.601-.761-.681-1.162 -.24-1.362.841-2.003.16-3.364 -.36-.722.08-2.684-1.202-1.683 .481.481.802 1.242.281 1.763 -.201.2-.281-.241-.681.08 -.441.32-.281.4-.16.961 .16.641-.241 1.723-.321 2.404 -.12.681 1.282 1.041.601 1.802Zm-2.363 14.461c-.04.28-.04.961-.281 1.082 -.481.24-.561.24-.721.801 -.04.16.481 1.802.641 1.842 .2.08.441-.641.761-.56 .2.08.681.12.441-.321 -.281-.481-1.202-.16-1.042-1.041 .441-.161.922.32 1.162.2 .24-.12.881-.521 1.082-.281 .36.321 1.482 1.282 1.922 1.082 -.04 0 .281-1.082.361-1.202 .16-.24.761-.601 1.041-.601 .801.041 1.482-.12 2.043-.801 -1.522.04-.36-1.241-.601-1.882 -1.041 1.081-1.081.801-2.443.12 -.921-.481-1.402-1.322-2.043-2.243 -.841-1.122-.481 1.361-.361 1.722 .121.401-.6.801-.52 1.282 .04.44.08.721-.161 1.121 -.44-.12-.841-.2-1.281-.32ZM193.66 70.543c.04.361.641 1.162 1.001 1.082 .521-.12.401-.841-.04-.921 -.12-.521-.521-.401-.961-.161Zm34.489 38.055c-.44.2-1.121.681-1.602.641 -.28-.04-1.362-.24-1.562.16 -.721 1.402 2.203.601 2.483.521 -.36-.681.281-.961.681-1.322Zm-11.496 1.122c.04-.521-1.002-.721-1.482-.641 -.922.12-1.202-.04-2.043-.561 -.12.12-.281.521-.321.721 1.362.441 2.364.521 3.846.481Zm-21.111-39.457c-.12.401 0 1.082.481 1.041 .561-.04.481.441.601 1.042 .12-.681.04-1.362.801-1.442 -.16-.12-.28-.361-.441-.441 1.923-.4-1.201-2.123-.28-.32 -.4-.04-.561-.241-.36-.641 -.121-.04-.321-.04-.481 0 .12.36-.04.601-.321.761Zm17.065-6.289c-.961-.28-1.322-.2-2.283.08 .32.361.561.721.36 1.282 .401-.761 1.242-.921 1.923-1.362Zm-20.63 36.332c.04.201-.32.601-.4.841 -.04.121.36.321.32.401 -.12.641-.641.721-.12 1.202 .401.4.841.44.881-.201 .04-.4.601-.04.681-.721 .08-.721.16-1.402.281-2.123 .16-1.442-1.482-.56-1.883-.32 -.16-.04-.28-.12-.441-.16 -.2.801.601.561.681 1.081Zm251.563-48.55c-.281 0-1.523-.28-1.763-.08 -.32.281 0 .922.24 1.122 .761.601 1.843-.281 2.324.36 .561.721 1.482 1.042 1.882-.2 -.801-.401-1.802-1.122-2.683-1.202ZM205.196 67.459c.321-.401.681-.761 1.162-.921 -.441-.521-.04-.802.28-1.242 -1.362-.361-1.482 1.041-1.442 2.163Zm2.884-6.89c-.04-.16-.04-.32-.08-.481h.241c-.12-.881-1.322-.2-.161.481Zm-16.143 36.332c-.521.441.401 1.322.881 1.282 .361-1.121.441-1.602.321-2.804 -.401.08-.04.401-.28.721 -.241.321-.641.561-.922.801Zm174.211 15.543c.2-.08.481.561.681.36 .12-.2.681-.681.681-.921 .08-1.682-2.163-.24-2.524-.481 -.52 1.122-.921.841-.52 2.203 .921.521 1.041-.881 1.682-1.161Zm-182.743-10.896c.28.2.561.441.841.681 .24-.2.521-.401.761-.601 -.521-.961-.841-.521-1.602-.08ZM441.136 47.11c-.04.921.16 1.201-.641 1.562 -.561.28-.08 1.122.04 1.682 -1.041-.12-1.402-.24-2.243-.881 -.521-.401-1.642.28-1.803-.36 -.24-.922-.12-1.763-1.001-1.843 -1.001-.08-1.963-.12-2.964-.2 -.601-.04.4-1.843-.882-1.603 -.681.12-.4 1.803-.44 2.444 -.04 1.041-3.365 1.322-4.246 1.562 .761.561 1.642.801 1.722 1.843 .08 1.241.561 1.722 1.242 2.684 .08.08-.481.841-.601.881 -.24.12-.961-.2-1.242-.241 -.48-.08-1.562-.56-2.003-.32 -1.802 1.122-3.645 2.203-5.447 3.325 -1.402.841-2.965 1.322-3.606 2.964 -1.241-1.242-1.322-1.402-3.004-1.202 -1.562.201-1.682.321-2.644 1.723 0-.521-.04-1.002-.04-1.482 -.48.24-1.402.921-1.923.881 -.681-.08-1.281-.481-1.682.2 -.921 1.442-1.803 2.924-2.724 4.367 .481.16 2.163.36 2.043.961 -.36 1.402-.441 1.482.401 2.604 -1.402.601-2.684 1.241-1.923 3.084 .12.321-1.082.801-1.402.881 -.681.241-1.282.161-1.362.962 -.08.961.2 1.762-.721 2.003 -1.122.28-1.202.16-1.402 1.442 -.2 1.242-1.763 2.523-2.484 3.445 -.921-4.367-4.086-12.659 1.122-15.182 1.482-.721 2.363-.962 3.245-2.444 .801-1.402 1.762-2.003 3.044-2.964 .881-.641 2.043-1.001 2.323-2.163 .201-.881.401-1.723.641-2.604 .04-.2 1.242-.32 1.482-.36 -.841-.201-1.362-.281-2.203-.201 -.641.08-1.001 1.082-1.362 1.643 -.721 1.161-2.243 1.963-3.245 2.804 -.48-1.282-.36-1.803-.08-3.205 -.961.561-1.322.761-2.403.761 -1.082-.04-1.362-.08-2.243.601 -1.362 1.122-2.484 2.404-3.646 3.725 .361.321 1.242.762 1.002 1.242 -.12.201-1.322.281-1.602.321 -1.282.16-2.524.32-3.806.44 .441-.32.881-.641 1.362-.961 -1.202-.24-2.403-.481-3.605-.721 -.321-.08-1.162.681-1.482.841 -.401.241-.882 0-1.282-.04 -1.122-.2-2.083-.2-3.205-.16 -.681.04-2.684-.281-3.244.24 -1.883 1.763-3.726 3.485-5.488 5.328 -1.643 1.722-3.525 2.964-5.408 4.326 .28.641.681.601 1.242.641 .721.08.761-.04 1.041.681 .08.2.321 1.282.561 1.282 1.442.12 1.562.36 2.243-1.042 .601-1.201 4.006 1.603 3.846 2.564 -.401 2.243-.922 4.487-1.402 6.73 -.481 2.123-1.242 3.284-2.364 5.087 -1.081 1.683-1.962 3.325-3.365 4.727 -.961.921-1.882 1.883-2.844 2.804 -.52.521-1.602.521-2.283.681 -.32.08-.641-.881-.961-.961 -.241-.041-1.042.6-1.242.721 -1.082.64-1.082.921-1.482 2.203 -.681 2.003-2.243 3.044-3.686 4.446 1.603 1.362 3.005 2.884 2.684 5.208 -.2 1.562-.04 1.922-1.322 2.603 -1.041.561-1.682.521-2.844.481 .121-.881.241-1.762.361-2.684 .16-1.041-.801-.961 0-1.882 .481-.601.24-1.403-.481-1.322 -.681.08-1.722.52-1.963-.521 -.12-.521.561-1.843.721-2.364 .04-.08-1.442-1.041-1.682-1.041 -.561 0-1.562.921-2.003 1.202 -.681.4-1.362.801-2.003 1.201 -.521-1.362.721-2.323 1.522-3.164 -.841-.641-.841-.841-1.762-.401 -.601.281-1.082.721-1.602 1.162 -.681.561-1.122.921-1.923 1.202 -.16.04-1.603.56-1.202 1.001 .561.601 1.082 1.162 1.522 1.843 .601.961.561.841 1.522.36 1.402-.681 2.484-.08 3.966.281 -1.642 1.362-3.245 2.764-4.887 4.126 .681.601 1.562 1.081 1.963 1.962 .521 1.122 1.041 2.244 1.562 3.405 -.841-.16-1.682-.32-2.523-.48 .881.641 1.762 1.322 2.683 1.963 -.641.48-1.321.921-1.962 1.402 .801.24 1.642.48 2.443.721 -1.001 1.882-1.883 4.246-3.164 5.848 -1.402 1.763-2.444 3.685-4.407 4.527 -2.123.881-4.246 1.762-6.409 2.563 -.681.241-1.322.481-2.003.721 -.561.201-.441.201-.28.841 .08.401.08 1.282-.641.882 -.201-.12-.441-1.082-.521-1.362 .24-.04.441-.241.721-.321 -.761-.601-2.123-1.041-2.924-.36 -.721.561-2.444 1.402-2.724 2.363 -.08.281-.641 1.522-.481 1.763 .441.681.841 1.362 1.282 2.043 .601.961 1.362 1.842 2.043 2.724 .881 1.121 1.362 1.522 1.442 2.964 .04.881.521 2.964-.12 3.565 -1.843 1.722-3.685 3.325-5.688 4.807 -.641-.681.28-1.683-.201-2.203 -.64-.681-1.281-1.362-1.922-2.083 -1.162-1.242-2.043-1.923-3.606-2.003 .041-.361.081-.761.161-1.122 -1.522.08-1.242.281-1.362 1.923 -.08 1.001-.561 1.923-.922 2.804 -.16.401-.04.841 0 1.242 .081.801.081.681.802.641 .36 0 .841 2.403.961 2.844 .2.721 1.642 1.402 2.203 1.843 .481.4 1.402 1.281 1.642 1.882 .321.841-.04 2.083.201 3.005 .2.881.721 1.762 1.041 2.603 -1.282-.2-2.043-1.041-3.124-1.842 -.962-.761-1.042-1.202-1.442-2.484 -.281-.881-.561-2.884-1.162-3.525 -.921-.961-1.843-1.963-2.724-2.924 -.4-.441.16-2.844.24-3.525 .121-1.242-.16-2.644-.24-3.886 -.16-2.443-.921-4.526-1.682-6.85 -.481.601-.962 1.202-1.442 1.803 -.641.761-.561.761-1.483.521 -.961-.241-.881-.121-.761-1.202 .04-.481.441-1.683.281-2.083 -.641-1.522-1.002-2.844-2.243-3.846 -1.082-.881-1.443-2.363-2.003-3.645 -.561.361-1.322 1.202-1.963 1.282 -1.122.16-2.283.32-3.405.481 -.16 0-.881 0-.961.12 -.201.2.16 1.001-.041 1.202 -.56.56-1.121 1.161-1.682 1.722 -1.562 1.602-3.164 3.245-4.727 4.887 -.52.561-1.602.801-2.283 1.122 -.841.4-.521 1.041-.521 2.043 .04.841.281 2.123.04 2.924 -.2.761-.841 2.003-.601 2.764 .321 1.242.481 1.802 1.282 2.724 .681.801 1.002 1.682 1.442 2.684 .761 1.802-2.283 3.364-2.523.961 -.12-1.082-.12-2.043-.08-3.125 .04-1.041-.321-1.201-1.042-1.962 -.08.721.04 1.522-.561 1.882 -.641.401-1.282.842-1.922 1.242 -1.763-3.365-3.285-6.85-4.847-10.375 -.401-.921-1.082-1.963-1.282-2.964 -.161-.721-.04-1.642-.08-2.363 -.081-2.244-.121-4.487-.201-6.73 -.48.641-.961 1.282-1.402 1.963 -.48.641-.52.56-1.322.52 -.881-.04-1.882-1.722-2.523-2.403 .641-.12 1.963-.04 2.043-.921 -.321.04-.801.16-1.122.08 -.921-.201-1.923-1.082-2.764-1.563 -.561-.32-.921-1.802-1.242-2.403 -.32-.681-5.087.361-5.848.481 -1.763.2-3.565-.481-5.288-.882 -.761-.16-1.642-.08-2.003-.881 -.681-1.362-.52-1.762-1.882-1.282 -1.162.441-1.843.281-3.045.08 -.761-.12-1.242-1.041-1.923-1.362 -1.241-.6-1.361-.721-1.962-2.042 -.401-.882-.561-2.003-1.482-2.124 -1.603-.24-1.563-.16-2.684 1.122 -.361.441.961 2.043 1.241 2.524 1.002 1.642 1.843 3.405 2.724 5.127 .121-.761.241-1.562.361-2.323 .641 1.161.521 2.323.561 3.685 1.121-.08 3.044.12 4.086-.521 1.041-.641 1.962-2.243 2.804-3.204 .08.961-.161 2.563.641 3.124 .48.321.961.801 1.482 1.002 .44.2 1.001.04 1.241.52 .201.361.521 1.362.922 1.402 .681.121.4.601.36 1.322 -.04.721-1.522 1.923-1.963 2.484 -.04-.24-.2-.441-.24-.681 -.4.881-.601 1.322-.601 2.283 0 .841-.32.761-1.001 1.082 -.721.36-1.442.681-2.163 1.041 -.441.201-.401 1.402-.841 1.603 -.321.16-.882-.281-1.242-.121 -.521.241-1.082.481-1.603.681 -.721.321-.641 1.322-1.281 1.563 -1.202.44-2.404.841-3.606 1.281 -.36.121-.4.321-.641.681 -.28.481-.64.401-1.161.481 -1.042.2-2.083.521-3.085.801 -.761.201-.921 1.082-1.762 1.082 -1.282 0-1.402.28-1.643-1.042 -.24-1.362-.52-2.724-.761-4.086 -.4-2.123-1.402-3.485-2.483-5.327 -.641-1.082-.721-1.282-1.843-1.683 -.641-.24-.641-2.203-.761-2.884 -.16-1.041-.841-1.963-1.282-2.884 -.28-.561-.921-.801-1.242-1.402 -.721-1.282-1.442-2.564-2.163-3.845 -.36-.641-.641-1.723-1.482-1.523 .12-.801.2-1.562.321-2.363 -.321.961-.641 1.883-.922 2.844 -1.081-1.122-1.642-2.123-2.323-3.565 -.761.961.601 2.564 1.001 3.445 .882 1.802 1.763 3.605 2.644 5.368 .521 1.081.321 2.283 1.122 3.124 .32.361 1.161.961 1.242 1.482 .12.922.28 1.803.44 2.724 .08.521.04 1.562.441 1.923 .481.481 1.242.961 1.602 1.562 .721 1.162 1.082 2.924 1.562 4.246 .161.441 1.442.361 1.763.761 .481.561 1.001 1.162 1.482 1.723 .801.961 2.484 2.003 1.202 3.204 .881.281 1.802 2.043 2.483 1.843 2.364-.641 4.687-1.282 7.051-1.883 .44-.12 1.682-.641 2.042 0 .241.401-.6 2.644-.721 3.125 -.44 1.883-1.802 3.645-2.683 5.328 -.762 1.402-1.402 2.924-2.484 4.085 -2.844 3.005-6.169 5.769-8.292 9.414 -.481.801-3.525 4.967-3.044 5.688 .841 1.282.841 1.522.761 3.085 -.08 1.442 0 1.522.841 2.643 1.282 1.723.841 4.407.961 6.57 .08 1.602-1.201 3.485-2.523 4.086 -.721.36-2.163.681-2.724 1.322 -.721.841-1.402 1.642-2.123 2.483 -.641.721-1.402 1.082-1.002 2.003 .281.641 1.242 2.083 1.162 2.764 -.08.841.04 2.684-.361 3.365 -.36.601-2.163 1.041-2.764 1.322 -1.001.481-.761.921-.881 2.163 -.04.641.08 2.444-.32 2.964 -1.162 1.683-2.284 3.646-3.646 5.128 -.721.761-1.642 1.402-2.443 2.083 -.441.4-1.322 1.522-1.923 1.642 -2.083.441-4.206.881-6.329 1.322 -.961.2-1.923.401-2.924.601 -.481.08-1.402-1.122-1.763-1.442 -1.161-1.042-1.121-1.002-.921-2.644 .08-.641-.641-1.763-.881-2.323 -.481-1.242-1.002-2.444-1.482-3.686 -.281-.721-1.202-1.282-1.723-1.802 -.36-.361-.36-2.043-.441-2.564 -.2-1.402-.44-2.804-.64-4.206 -.281-1.883-1.242-3.365-2.043-5.047 -.561-1.082-1.082-2.204-1.603-3.285 -.24-.481.08-1.402.161-1.883 .36-2.403.4-4.646 1.562-6.729 1.121-2.003.44-3.566-.04-5.649 -.521-2.243-1.042-4.446-1.563-6.689 -.16-.681-1.041-1.482-1.442-2.003 -.761-1.002-1.522-2.043-2.283-3.045 -.4-.56-.12-1.241-.04-1.922 .16-1.402.321-2.764.481-4.166 .16-1.202.2-1.282-.481-2.203 -.801-1.082-.761-1.202-1.963-1.122 -.721.04-2.163.481-2.644-.16 -.721-.882-1.442-1.803-2.203-2.684 -.32-.401-4.767.32-5.327.601 -1.042.52-2.083 1.081-3.165 1.602 -.841.441-1.202.2-2.083-.04 -.961-.24-1.522-.521-2.443-.2 -1.162.4-2.284.801-3.445 1.201 -.561.201-1.162-.56-1.603-.881 -1.121-.801-2.203-1.602-3.325-2.363 -1.402-1.002-2.083-1.482-2.964-2.965 -1.402-2.443-2.804-4.887-4.206-7.33 -.44-.801-.881-1.562-1.362-2.364 -.2-.36.521-1.722.681-2.123 .241-.641.962-1.842.801-2.563 -.24-1.162-.52-2.324-.801-3.485 -.16-.801-.761-2.203-.681-3.005 .08-.48.681-1.201.881-1.602 1.362-2.443 2.684-4.887 4.046-7.33 .962-1.723 2.083-2.204 3.726-3.245 .841-.521 1.241-.561 1.362-1.602 .2-1.282.4-2.604.6-3.886 .241-1.522 3.285-1.803 3.846-3.285 .401-1.041.601-2.483 1.642-2.764 .281-.08 1.042 1.322 1.883 1.162 .361-.08 1.242-.441 1.602-.281 .201.121.962.681 1.162.561 .801-.48 1.642-1.081 2.484-1.482 1.562-.721 3.525-1.402 5.207-1.602 .441-.04 1.162-.281 1.602-.16 .361.12.882.44 1.282.44 .441 0 .841-.52 1.282-.601 .361-.08.801.04 1.162.081 1.161.08 1.923.28 2.924-.321 .801-.481 1.562.16 2.403.521 -.6 1.362-.721 1.402-.04 2.724 .321.601-.921 1.482-1.321 1.963 .68.6 1.482 1.682 2.323 1.922 1.442.401 2.884.761 4.326 1.162 1.122.28.801 1.522 1.883 2.003 .961.4 1.883.24 2.764.881 1.242.881 1.923 1.122 2.724-.481 .2-.36-.441-.961-.241-1.281 .161-.281.481-1.162.761-1.242 1.402-.401 2.083-.601 3.485-.241 .321.081.041.722.441.802 .641.12 1.282.28 1.963.4 .521.12.561.361.801.881 .12.281.641-.32.881-.24 1.042.321 2.083.601 3.125.921 1.162.321 1.282.321 2.403-.2 1.202-.601 1.322-.761 2.484-.2 1.402.681 3.605.481 4.246-1.322 .401-1.122 2.363-4.567 1.602-5.728 -.48-.721.561-2.284.321-2.524 -.281-.32-.681.2-.922.361 -.28.24-.681-.361-1.001-.321 -.401.08-.721.921-1.122 1.082 -.36.16-1.041.04-1.442.08 -.881.04-1.282-.922-2.123-1.082 -.561-.08-1.001-.44-1.201.201 -.241.721-.241.681-.962.801 -.681.12-1.802-.801-2.363-1.162 -1.042-.601-2.804-3.565-1.683-4.807 -.36.04-.721.08-1.121.12 -.161-1.242 1.442-1.562 2.083-1.562 1.282-.04 1.922-.04 3.044-.681 -.36-.16-.681-.36-1.041-.521 .2-.601 1.482-.36 2.083-.28 1.081.16 1.121-.16 1.962-.721 .561-.361 1.322-.921 2.003-.881 .882.08 1.643.2 2.484-.081 -.2.361.16.681.521.842 .6.28.36-.481.961.36 .2.321 1.843.561 2.363.761 .882.361 1.442-.16 2.324-.08 1.001.12 1.722-.24 2.563-.801 .721-.441.321-1.682-.12-2.203 -.641-.721-1.402-.841-2.083-1.482 -.721-.681-1.322-1.563-2.283-1.683 -.12 0-.841-.52-1.001-.601 -.401-.28-.762-.56-1.162-.881 .04-.08.32-.44.32-.44 .361.08.721.16 1.082.2 -.321-1.162.4-1.522 1.282-1.522 -.401-.321-.962-.641-1.162-1.122 .361 0 .721-.04 1.082-.04 -.281-.841.841-.24 1.001-.721 .2-.601-.681-.321-.961-.28 -.882.16-1.883.16-2.524 1.001v-.321c-1.001.241-1.402.401-2.163 1.162 .04-.12.12-.28.2-.4 -1.041-.121-.561 1.161-.16 1.642 .521.641 1.362.32 2.203.32 -.601 1.082-1.282.281-1.963.641 -.681.361-2.043 1.603-2.804.962 .441-1.282-.12-1.122-1.201-1.603 .52-.28 2.523-1.001 1.161-1.482 -.44-.16-.921-.04-1.362 0 -.32 0-.761-.48-1.041-.681 .561.04 1.282.321 1.562-.28 -.601.32-2.163-.401-2.524 0 -.4.441-1.562 1.362-1.642 1.963 -.04.36-.04 1.161-.24 1.482 -.201.28-1.002.24-1.042.601 -.24 1.081-.16 1.922-1.081 2.483 -.882.561-.681 1.603-.241 2.404 .281.521 1.683 1.161 1.603 1.402 -.241.721-1.523-.201-1.963.24 -.681.641-1.362 1.282-2.083 1.923 -.08-.761.36-.881.881-1.202 -.401-.16-.881-.16-1.322-.36 -.721-.281-1.121-.08-1.762-.281 -.321-.08-.721.201-1.042.281 -.28.12.12.641-.04.761 -.561.48-.961.04-1.442-.281 -.521.601.04 1.162.36 1.683 .481.841.481.761-.16 1.442 .882.601 1.843.801 1.643 2.083 -.521-.401-.882-.881-1.442-.2 .681.12.721.56.24.921 -.521.4-.24.641-.04 1.242 -.561-.121-1.042 0-1.282-.601 -.24-.521-.481-.361-.921 0 -.441-1.522-.761-1.683.4-2.644 -1.081 0-1.081-.12-1.762-1.122 -.361-.56-.641-1.522-1.122-1.922 -.881-.721-.561-1.242-.441-2.444 .081-1.081-.28-1.081-1.081-1.762 -1.082-.842-2.323-2.043-3.645-2.244 -.361-.04-1.122-1.081-1.242-1.442 -.321-1.081-.401-1.362-1.242-1.963 -.36 1.122-.801.561-.961-.24 -.161-.801 0-.601-.842-.36 -.841.24-1.362.32-.841 1.281 .201.321-.48 1.122.12 1.603 .481.36 1.322.761 1.683 1.282 .4.52.32 1.362.801 1.802 .601.521.921.962 1.682 1.002 .481.04 1.362 0 .601.641 .721.56 4.246 2.042 3.365 3.244 -.36-.2-1.402-1.602-1.802-1.202 -.441.401-.481.481-.641 1.082 -.121.521.2.481.56.761 1.042.801-.721 1.042-.641 1.522 .081.681-1.281 1.923-1.281.761 -.681.401-.842 1.282-.481 1.963 .36.681-1.082.922-1.242.361 -.32-1.002-3.685-.882-2.363-2.364 .2.201 2.003.401 2.443.281 .481-.12 1.322-.12 1.763-.401 .44-.28.04-.601.521-.841 .32-.16-.481-2.283-.721-2.283 -.281-.04-.962-.04-.882-.481 .08-.561-.44-.761-.841-.561 .08-.481-.921-1.202-1.322-1.162 -.721.121-1.121-.6-1.642-1.121 -.922-.921-2.203-1.362-2.484-2.604 -.28-1.162-.28-1.242-1.242-1.762 -.52-.281-1.161-.481-1.522 0 -.28.32-2.924 2.283-3.285 2.163 -.881-.281-1.762-.601-2.643-.882 -.441-.12-1.162.802-1.482 1.122 -.161.16.36 1.522 0 2.003 -.321.441-1.523.761-2.003 1.041 -1.442.762-1.883 1.923-2.724 3.405 -.241.441.841.842.32 1.563 -.32.44-1.202 1.161-.921 1.722 -.321.08-1.042.12-1.242.401 -.16.24-.521 1.081-.801 1.121 -.921.08-1.803.04-2.764 0 -.801-.04-1.282.962-1.923 1.162 -.601.2-1.602-1.082-.921-1.602 -.721.32-1.042-.882-1.923-.361 -.721.401-1.242-.2-1.883.281 .08-.521.241-1.042.201-1.603 -.04-.28-.04-.601-.08-.881 -.041-.321-.321.08-.441-.12 -.561-.841-.16-1.042.08-1.963 .24-.881.881-2.323.521-3.165 -.361-.801-.16-1.722-.04-2.563 -.481.4-.841-.361-.641-.842 .2-.44 1.121-.44 1.442-.48 -.04-.12-.08-.201-.16-.281 .881-.761 1.281.281 2.043.08 1.081-.28 1.442-.32 2.483 0 .801.281 1.482-.16 2.243.121 .521.2 1.483.32 2.003.2 1.442-.321 1.242-3.084 1.242-4.246 0-1.082.16-1.442-.841-1.763 -.601-.2-.681-1.241-.561-1.562 -.561.12-.32-.2-.561-.32 -.24-.121-.881-.161-.961-.241 -.441-.36-.601-.561-1.122-.521 -.4.041-.641 0-.881-.44 .16 0 .32-.12.441-.12 -.361-.161-.601-.441-.601-.882 .601-.04 1.282.04 1.802-.32 1.082-.761.481.601 1.162.441 .24-.04 1.602-.281 1.562-.641 -.12-.641-.28-1.082-.561-1.683 .281.04.802-.08.922.241 .16.44.08.48.48.52 .802.121 1.162.04 1.923-.28 -.2 0-.36-.16-.561-.16 .401-.561 1.162-.761 1.763-1.042 .841-.4-.04-.961.36-1.642 .201-.281 1.483-.601 1.843-.761 .681-.321 1.042-.281 1.763-.201 -.241-.08-.962-.16-.962-.48 0-.08.641-.12.721-.201 .121-.12 0-.44.121-.6 .44-.561.52-.922.721-1.683 .08-.36.681-.28.881-.561 .761-.921 1.522-.4 2.403-.681 .12-.04 0-.48.241-.52 .24-.04.48-.08.721-.121 .36-.04.801.081 1.161.121 -.12-.721.481-.521.962-.601 -.281-.12-1.002-.721-.641-1.042 .601-.48.08-.44-.12-1.041 -.201-.681.2-1.002-.361-1.482 -.441-.361-.32-.601-.36-1.242 -.04-1.042.16-2.163 1.241-2.203 .842-.04 1.483-.882 2.284-1.322 -.561.801-.842 2.523.36 2.804 -.681 1.121-2.003 1.482-1.762 2.964 .2 1.082 1.201 2.003 2.203 1.522 -.12.281-.281.601-.401.882 1.002.56 1.843-.842 2.684-.922 .321-.04 1.122.481 1.242.801 .16.561.681.681 1.162.962 .04-.12.08-.401.08-.521 -.281-.04-.561-.04-.842-.08 .601-.401 2.724-.441 3.165-.961 .681-.882 2.644-1.443 3.565-.681 -.08-.041-.44-.161-.601-.281 .04.921 1.282 1.042 1.763.481 .2-.2.24-.761.4-.881 .121-.121.361 0 .481-.121 .321-.28.721-.44.961-.801 -.12.361-.36.601-.6.881 1.562.762.641-2.123.6-2.804 -.04-.56.121-1.041.481-1.442 .321-.4.08-1.041.601-1.442 1.402-1.041 1.723 1.242 2.764 1.322 .561.04.961-.761.881-1.282 -.04-.32.201-1.642.12-1.682 -.16-.12-.44.24-.56.16 -.201-.16-.401-.44-.601-.681 -.16-.16-.441-1.322-.281-1.402 .962-.44 2.164-1.041 3.245-.921 .801.08 1.602.2 2.404.28 1.081.12.16-.28.801-.681 .4-.28 1.041-.08 1.522-.4 .32-.201 1.121.08 1.522.16 -.24-.721-1.682-1.002-2.323-1.282 .12-.16.12-.441.24-.601 -2.243.441-4.526.962-6.77 1.402 -.24.04-1.161.401-1.322.16 -.44-.721-.56-.841-1.281-1.121 -.882-.361-.802-.281-.641-1.322 .12-.721.16-1.042-.04-1.723 -.121-.48-.601-1.562-.521-2.042 .08-.441 1.001-1.122 1.282-1.483 .721-.841 1.682-1.362 2.403-2.203 .361-.44.881-1.482 1.362-1.722 .441-.201 1.162.24.881-.681 -.32-1.122-1.161-1.643-2.283-1.683 -1.562-.04-1.682-.12-2.764 1.082 -.681.761-1.041 1.402-.481 2.363 .481.882-3.685 3.045-4.045 3.525 -1.042 1.322-2.845 3.445-1.683 5.408 .481.841 1.883.801 2.324 1.763 .32.681-.842 1.282-1.362 1.722 -.882.761-1.563 1.042-1.723 2.243 -.16.962-.12 2.364-.481 3.245 -.52 1.202-1.402 1.202-2.443 1.442 -.401.08-.401.601-.481 1.002 -.12.52-.44.36-.921.4 -.721.04-.801.241-.921-.561 -.081-.44-.281-1.081-.121-1.482 .321-.841-.921-1.842-1.402-2.523 -.2-.281-.08-.802-.24-1.122 -.2-.401-.561-.881-.641-1.322 -.12-.441.28-1.202-.2-1.282 -.401-.12-.481-.841-.641-1.242 -.281 1.162-.521 1.242-1.402 1.923 -.641.441-1.122 1.162-1.803 1.562 -1.001.601-3.565.281-3.605-1.281 -.08-1.923-.801-3.766-.721-5.689 .08-1.642.2-1.642 1.402-2.643 .681-.561 1.362-.882 2.163-1.282 .921-.441 1.723-.761 2.444-1.562 .641-.722 1.281-1.403 1.962-2.043 1.483-1.402 2.164-3.165 3.245-4.928 1.082-1.722 2.444-3.004 3.766-4.486 1.281-1.442 2.443-3.044 4.166-3.805 1.922-.882 3.805-1.523 5.808-2.124 .761-.24 1.162-1.482 1.843-1.882 .681-.401 1.682-.481 2.403-.401 -.921 1.042-1.362 1.482-1.722 2.884 .881-.16 1.602-1.642 2.163-2.323 .08.441.16.881.24 1.322 .401-.521.801-1.042 1.162-1.562 .16-.241 1.161 0 1.442.04 -.241.4-.481.801-.721 1.201 1.041.802.44-1.121 1.282-.801 .881.361 1.762.681 2.683 1.042 .762.32-.64 1.001-.921 1.081 -.641.121-1.522-.16-2.163-.2 .32.601 1.042.401 1.322 1.082 .08.16.961-.121 1.282-.081 .761.081 1.482.401 2.003-.28 .24-.32 1.161.401 1.522.561 -.2.721-.841.24-1.362.12 -.2 1.482 2.323.881 3.004.921 1.442.04 2.083.401 3.365 1.162 1.202.681 2.243 1.282 3.525 1.682 .962.321 2.243.922 2.604 2.043 .36 1.122.32 1.082-.321 2.043 -.4.601-.52.962-1.121 1.162 -1.402.481-1.883.521-3.245.2 -2.604-.601-4.727-1.201-7.13-2.443 .721.721 2.724 2.043 2.724 3.124 0 1.082-.201 3.245.801 3.646 1.081.48 2.524 1.722 3.605 1.281 .641-.28.281-1.281-.32-1.281 -.681 0-.882-.601-1.322-1.122 1.001-.921 1.081-.681 2.283-.28 1.001.36 2.003.681 3.004 1.041 -.08-.24-.881-2.203-.761-2.283 .761-.521 1.522-1.002 2.244-1.522 .4-.281 1.121-1.042 1.602-.882 .801.241 1.602.481 2.403.721 .12-.44.481-1.282.321-1.722 -.04-.12-.841-1.402-.882-1.242 .201-.721.361-1.482.521-2.203 .08-.24-.801-1.042-.961-1.242 .961.12 1.923.24 2.884.361 .721.08 1.202 1.201 1.642 1.802 -.48.04-1.882-.08-2.163.361 -.4.721.361 1.201.801 1.802 .521.641 1.242.241 2.003.121 .922-.121.241-.802.761-1.443 .201-.28 1.042-.48 1.362-.64 .882-.401 1.763-.802 2.604-1.202 1.322-.601 2.644-1.202 3.966-1.803 .4 1.242.36 1.242 1.522 1.522 .761.201 1.162-1.241 1.803-1.161 1.001.12 1.562.28 2.483-.161 1.042-.48 1.322-.44 2.444-.2 -.161.281-.361.601-.521.881 1.242.361 1.162.441 2.003-.64 .761-1.002.28-1.082-.481-2.083 1.723-.762 4.206-.481 5.969.2 1.201.481 2.363.961 3.565 1.402 .841.36 1.722 1.282 2.483 1.883 .04-.441.481-1.963.161-2.204 -.882-.641-1.763-1.322-2.644-1.962 -.561-.441.36-1.643.601-2.244 .2-.48-1.162-1.001-1.522-1.282 .841-.681 1.722-1.361 2.603-2.042 .601-.481.841-2.164 1.082-2.885 .32-.921 4.406.04 5.368.161 -.361 1.001-.721 2.002-1.122 3.044 -.2.521.681 1.763.921 2.243 .441.881-1.001 4.847-.28 5.328 .841.561 1.802.681 1.362 1.762 -.241.601-.561 2.003-1.082 2.324 -.921.561-1.842 1.121-2.764 1.682 -.4.241-1.642-.2-2.163-.24 1.202.961 2.524 1.802 4.126 1.282 1.242-.401 2.684-2.163 3.605-3.125 1.042-1.041-1.642-2.684.561-3.325 .441-.12 1.642-.761 1.963-.4 .561.641 1.122 1.322 1.682 1.963 -.12-.842-.04-1.683-.721-2.163 -.921-.641-1.001-.641-2.083-.481 -.24.04-2.443.521-2.483.32 -.16-.601-.721-1.642-.441-2.203 .361-.721 1.162-1.642.681-2.363 -.36-.561-1.562-1.683-1.122-2.324 .521-.841 1.322-.961 2.164-1.322 .641-.28.08-1.762-.081-2.123 .481-.12 1.403 1.162 1.122 1.683 -.641 1.242-.561 1.202.12 2.443 .441.842 3.846.842 4.727.882 -1.242-.441-2.443-.922-3.645-1.482 -1.402-.641 1.001-1.683 1.562-1.843 1.683-.521 2.363-.12 4.006.521 .521.2.961.6 1.442.881 .441.32 1.081.04 1.602-.04 -.16-.441-.32-1.482-.641-1.803 -.32-.32-1.522-.24-1.922-.32 -.561-.08-.681-2.564-.802-3.205 1.843-.2 3.726-.4 5.568-.561 1.042-.12 2.123-.2 3.165-.32 .681-.08.441-.801.441-1.522 .04-1.362-.081-1.402 1.001-2.043 .761-.441 1.562-1.082 2.363-1.402 1.723-.641 3.846-.721 5.649-1.042 3.404-.601 6.689-1.041 9.934-2.283 .761-.28.4-1.522 1.041-1.843 .962-.48 1.923-1.001 2.885-1.482 1.161-.601 3.244-.601 4.085.641 -.921.28-1.802.561-2.723.841 1.442.201 2.884.401 4.326.601 -.601.521-1.202 1.042-1.763 1.562 .801.04 1.603.081 2.404.161 0-.321-.121-1.523.16-1.483 .641 0 1.242.041 1.843.081 .921.04 1.962-.161 2.764.36 .801.561 2.163 1.122 2.804 1.923 .16.2.961 1.001.841 1.242 -.12.28-.361 1.201-.641 1.362 -3.846 2.363-7.691 4.726-11.577 7.13 2.684-.761 5.328-1.522 8.012-2.283 -.681-.121-1.362-.201-2.043-.321 .841-.721 2.083-1.362 3.044-.641 1.442 1.082 1.803 1.042 3.565.841 2.284-.2 4.647.281 6.93.521 -.44.241-.881.521-1.322.761 .561.281 1.603 1.082 2.163 1.042 .922-.04 1.843-.08 2.764-.12 .561-.04 2.043.24 2.164-.441 .2-1.402.08-1.362 1.321-1.362 .842 0 1.763.08 2.644-.08 .641-.12 1.963-.681 2.564-.481 .601.201 1.442 1.603 1.883 2.123 .28.321-.321 2.003-.321 2.484 0 .36.08 2.443.321 2.604 .841.48 1.682.961 2.523 1.442 .361.2 1.482-1.683 1.763-2.043 .721-.962.601-1.082 1.562-.441 1.002.681 1.202.961 2.283.601 .721-.24 1.563-.761 2.244-.401 .48.241 1.602 1.162 2.163.922 .841-.361 1.722-.721 2.604-1.082 -.241-.44-1.082-1.362-.762-1.802 .241-.321 1.042-1.803 1.402-1.763 1.643.2 3.325.441 4.968.641 1.241.16 2.523.641 3.765.961 1.322.321 3.125.441 4.326 1.122 .721.401 2.404 3.124 3.125 3.004 1.642-.28 3.325-.561 4.967-.841 1.362-.24 2.644.401 3.966.801 .801.241 1.161.12 1.442.962 .28.921.24 1.121-.04 2.043 1.402.48 2.483 1.001 3.925.721 1.683-.281 2.724-.361 4.367-.081 .6.081 1.442.481 1.962.081 .802-.601.721-.641 1.442.08 .521.52 1.282 1.602 1.923 1.882 .481.201 1.482-.16 1.963-.2 -.16-1.121-.32-2.203-.481-3.325 2.364.201 4.727.361 7.091.561 1.842.12 3.645 1.442 5.327 2.243 1.923.962 3.806 1.963 5.688 3.045 1.162.681 1.322.721 1.803 2.043 .561 1.482.401 1.963 1.843 1.963 -.161-.601-.321-1.202-.521-1.803 1.362 0 2.323.08 3.605.561 .962.32 1.843 1.442 2.644 2.083 -.481.4-1.202 1.282-1.763 1.442 -.801.36-1.762-.04-2.283-.12ZM255.349 98.183c-.241-.24-.241-.921-.521-1.081 -1.162-.721-1.322 1.081-1.362 1.762 -.641-1.121-.801-1.562-.241-2.804 -.48-.2-1.522-.44-1.882-.841 -.281-.361-.241-1.562-.321-2.003 0-.04-1.602-.681-.881-.841 .681-.16.881.641 1.562.12 -.48-.441-.921-.521-.52-1.082 .2-.32.761-.52 1.121-.44 .801.12 2.083.08 2.764.4 -.521.201-1.001.842-.961 1.483 .521-.722.681-1.162 1.562-1.282 -.441-1.362-.721-.481-1.883-.842 .161-.6.561-1.281.281-1.842 -.12-.241-.641-1.442-1.042-.962 -.44.521-1.081 0-1.682-.24 -.441-.16-1.162.521-1.603.601 -1.121.2-1.041-.401-1.361 1.001 -.081.401-1.362.681-1.683.842 -.801.32-.721.36-.921 1.281 -.08.401-.721.882-1.002 1.162 .681.04 1.482.601 1.442 1.402 -.04 1.202.161 1.683.641 2.804 .321.681 1.082.881 1.442 1.522 .601 1.042.802 1.362 1.803 1.843 -.841.24-1.001.16-1.202 1.082 -.12.56-.36 1.081-.561 1.642 -.24.681-.16 1.082-.12 1.803 .08.801.281.64 1.002.801 .601.16.641.601 1.161.761 .601.2 1.202.4 1.803.561 .761.24 2.123-.241 2.924-.361 -.12-1.001-.32-1.923-.12-2.884 .28-1.482-.36-.801-.961-1.843 .16.04.36 0 .56.04 -.08-.24-.12-.721-.28-.881 -.16-.16-.681.04-.801-.12 -.401-.481-.16-1.002.08-1.442 -.04.08 2.243.36 2.684.16 .08-.641-.481-.881-.921-1.282Zm-5.809 87.727c-.36-.521-1.522-2.324-1.602-.561 -.04 1.362-.441 1.402-1.282 2.363 -.681.801-1.001 1.522-1.883 2.003 -1.001.521-1.722.841-2.804 1.042 -.4.08-.841 1.882-.721 2.363 .201.841.801 2.243.681 3.124 -.12.962-1.161 1.883-1.442 2.764 -.36 1.082-.12 1.883.16 2.925 .281.961.401 2.003.561 3.004 .08.36 1.763 1.001 2.123.841 .241-.12 2.043-.641 2.043-.761 .241-.761.441-1.522.681-2.283 .841-2.764 1.643-5.568 2.484-8.332 .561-1.883.681-2.764.52-4.727 .241.24.481.481.722.721 .64-1.522.12-2.764-.201-4.366l-.04-.12Zm99.784-57.363c.16-.761.921-2.764-.521-2.083 -.801.401-1.482 1.442-1.682 2.443 -.201 1.082.52 1.843 1.041 2.644 .561-1.081.922-1.842 1.162-3.004Zm-16.544 8.652c.321-.16 1.002-.16 1.042-.681 .08-.48.2-1.161.681-1.121 .12-.481-.041-.841-.481-.922 -.04.121-.04.241-.08.321 -1.282-.721-1.883.441-2.764 1.041 0 .882-.16 1.082.561 1.483 .28.2.44.2.761.24 .4 0 .04-.28.28-.361Z"/><path d="M183.383 79.3279l-.4202-.9075 -.9075.4201 .4201.9074 .9074-.4202Zm-1.2605-2.7224l-.4202-.9075 -.9075.4201 .4201.9074 .9074-.4202Zm0 0l-.4202-.9075 -.9075.4201 .4201.9074 .9074-.4202Zm0 0l-1.2605-2.7224 -.9075.4201 1.2604 2.7223 .9074-.4202Zm-2.1007-4.5374l-.4202-.9075 -.9075.4201 .4201.9074 .9074-.4202Zm0 0l-.4202-.9075 -.9075.4201 .4201.9074 .9074-.4202Zm0 0l-1.2605-2.7224 -.9075.4201 1.2604 2.7223 .9074-.4202Zm-2.1007-4.5374l-.4202-.9075 -.9075.4201 .4201.9074 .9074-.4202Zm0 0l-.4202-.9075 -.9075.4201 .4201.9074 .9074-.4202Zm0 0l-1.2605-2.7224 -.9075.4201 1.2604 2.7223 .9074-.4202Zm-2.1007-4.5374l-.4202-.9075 -.9075.4201 .4201.9074 .9074-.4202Zm0 0l-.4202-.9075 -.9075.4201 .4201.9074 .9074-.4202Zm0 0l-1.2605-2.7224 -.9075.4201 1.2604 2.7223 .9074-.4202Zm-2.1007-4.5374l-.4202-.9075 -.9075.4201 .4201.9074 .9074-.4202Zm0 0l-.4202-.9075 -.9075.4201 .4201.9074 .9074-.4202Zm0 0l-1.2605-2.7224 -.9075.4201 1.2604 2.7223 .9074-.4202Zm-2.1007-4.5374l-.4202-.9075 -.9075.4201 .4201.9074 .9074-.4202Zm0 0l-.4202-.9075 -.9075.4201 .4201.9074 .9074-.4202Zm0 0l-1.2605-2.7224 -.9075.4201 1.2604 2.7223 .9074-.4202Zm-2.1007-4.5374l-.4202-.9075 -.9075.4201 .4201.9074 .9074-.4202Zm0 0l-.4202-.9075 -.9075.4201 .4201.9074 .9074-.4202Zm0 0l-1.2605-2.7224 -.9075.4201 1.2604 2.7223 .9074-.4202Zm-2.1007-4.5374l-.4202-.9075 -.9075.4201 .4201.9074 .9074-.4202Zm0 0l-.4202-.9075 -.9075.4201 .4201.9074 .9074-.4202Zm0 0l-1.2605-2.7224 -.9075.4201 1.2604 2.7223 .9074-.4202Zm-2.1007-4.5374l-.4202-.9075 -.9075.4201 .4201.9074 .9074-.4202Zm0 0l-.4202-.9075 -.9075.4201 .4201.9074 .9074-.4202Zm0 0l-1.2605-2.7224 -.9075.4201 1.2604 2.7223 .9074-.4202Zm-2.1007-4.5374l-.4202-.9075 -.9075.4201 .4201.9074 .9074-.4202Zm0 0l-.4202-.9075 -.9075.4201 .4201.9074 .9074-.4202Zm0 0l-.2815-.6079 -.9075.4201 .2814.6078 .9074-.4202Z"/><path d="M185.185 89.5947l-.9886-.1511 -.1511.9885 .9885.151 .151-.9886Zm-2.9656-.4533l-.9886-.1511 -.1511.9885 .9885.151 .151-.9886Zm0 0l-.9886-.1511 -.1511.9885 .9885.151 .151-.9886Zm0 0l-2.9656-.4533 -.1511.9885 2.9655.4532 .151-.9886Zm-4.9427-.7554l-.9886-.1511 -.1511.9885 .9885.151 .151-.9886Zm0 0l-.9886-.1511 -.1511.9885 .9885.151 .151-.9886Zm0 0l-2.9656-.4533 -.1511.9885 2.9655.4532 .151-.9886Zm-4.9427-.7554l-.9886-.1511 -.1511.9885 .9885.151 .151-.9886Zm0 0l-.9886-.1511 -.1511.9885 .9885.151 .151-.9886Zm0 0l-2.9656-.4533 -.1511.9885 2.9655.4532 .151-.9886Zm-4.9427-.7554l-.9886-.1511 -.1511.9885 .9885.151 .151-.9886Zm0 0l-.9886-.1511 -.1511.9885 .9885.151 .151-.9886Zm0 0l-2.9656-.4533 -.1511.9885 2.9655.4532 .151-.9886Zm-4.9427-.7554l-.9886-.1511 -.1511.9885 .9885.151 .151-.9886Zm0 0l-.9886-.1511 -.1511.9885 .9885.151 .151-.9886Zm0 0l-2.9656-.4533 -.1511.9885 2.9655.4532 .151-.9886Zm-4.9427-.7554l-.9886-.1511 -.1511.9885 .9885.151 .151-.9886Zm0 0l-.9886-.1511 -.1511.9885 .9885.151 .151-.9886Zm0 0l-2.9656-.4533 -.1511.9885 2.9655.4532 .151-.9886Zm-4.9427-.7554l-.9886-.1511 -.1511.9885 .9885.151 .151-.9886Zm0 0l-.9886-.1511 -.1511.9885 .9885.151 .151-.9886Zm0 0l-2.9656-.4533 -.1511.9885 2.9655.4532 .151-.9886Zm-4.9427-.7554l-.9886-.1511 -.1511.9885 .9885.151 .151-.9886Zm0 0l-.9886-.1511 -.1511.9885 .9885.151 .151-.9886Zm0 0l-2.9656-.4533 -.1511.9885 2.9655.4532 .151-.9886Zm-4.9427-.7554l-.9886-.1511 -.1511.9885 .9885.151 .151-.9886Zm0 0l-.9886-.1511 -.1511.9885 .9885.151 .151-.9886Zm0 0l-2.9656-.4533 -.1511.9885 2.9655.4532 .151-.9886Zm-4.9427-.7554l-.9886-.1511 -.1511.9885 .9885.151 .151-.9886Zm0 0l-.9886-.1511 -.1511.9885 .9885.151 .151-.9886Zm0 0l-2.9656-.4533 -.1511.9885 2.9655.4532 .151-.9886Zm-4.9427-.7554l-.9886-.1511 -.1511.9885 .9885.151 .151-.9886Zm0 0l-.9886-.1511 -.1511.9885 .9885.151 .151-.9886Zm0 0l-2.9656-.4533 -.1511.9885 2.9655.4532 .151-.9886Zm-4.9427-.7554l-.9886-.1511 -.1511.9885 .9885.151 .151-.9886Zm0 0l-.9886-.1511 -.1511.9885 .9885.151 .151-.9886Zm0 0l-2.9656-.4533 -.1511.9885 2.9655.4532 .151-.9886Zm-4.9427-.7554l-.9886-.1511 -.1511.9885 .9885.151 .151-.9886Zm0 0l-.9886-.1511 -.1511.9885 .9885.151 .151-.9886Zm0 0l-2.9656-.4533 -.1511.9885 2.9655.4532 .151-.9886Zm-4.9427-.7554l-.9886-.1511 -.1511.9885 .9885.151 .151-.9886Zm0 0l-.9886-.1511 -.1511.9885 .9885.151 .151-.9886Zm0 0l-2.9656-.4533 -.1511.9885 2.9655.4532 .151-.9886Zm-4.9427-.7554l-.9886-.1511 -.1511.9885 .9885.151 .151-.9886Zm0 0l-.9886-.1511 -.1511.9885 .9885.151 .151-.9886Zm0 0l-.2818-.0431 -.1511.9885 .2817.043 .151-.9886Z"/><path d="M172.358 154.57l-1 .0078 .0078.9999 .9999-.0079 -.0079-1Zm-3 .0234l-1 .0078 .0078.9999 .9999-.0079 -.0079-1Zm0 0l-1 .0078 .0078.9999 .9999-.0079 -.0079-1Zm0 0l-3 .0234 .0078.9999 2.9999-.0235 -.0079-1Zm-4.9999.0391l-1 .0078 .0078.9999 .9999-.0079 -.0079-1Zm0 0l-1 .0078 .0078.9999 .9999-.0079 -.0079-1Zm0 0l-3 .0234 .0078.9999 2.9999-.0235 -.0079-1Zm-4.9999.0391l-1 .0078 .0078.9999 .9999-.0079 -.0079-1Zm0 0l-1 .0078 .0078.9999 .9999-.0079 -.0079-1Zm0 0l-3 .0234 .0078.9999 2.9999-.0235 -.0079-1Zm-4.9999.0391l-1 .0078 .0078.9999 .9999-.0079 -.0079-1Zm0 0l-1 .0078 .0078.9999 .9999-.0079 -.0079-1Zm0 0l-3 .0234 .0078.9999 2.9999-.0235 -.0079-1Zm-4.9999.0391l-1 .0078 .0078.9999 .9999-.0079 -.0079-1Zm0 0l-1 .0078 .0078.9999 .9999-.0079 -.0079-1Zm0 0l-3 .0234 .0078.9999 2.9999-.0235 -.0079-1Zm-4.9999.0391l-1 .0078 .0078.9999 .9999-.0079 -.0079-1Zm0 0l-1 .0078 .0078.9999 .9999-.0079 -.0079-1Zm0 0l-3 .0234 .0078.9999 2.9999-.0235 -.0079-1Zm-4.9999.0391l-1 .0078 .0078.9999 .9999-.0079 -.0079-1Zm0 0l-1 .0078 .0078.9999 .9999-.0079 -.0079-1Zm0 0l-3 .0234 .0078.9999 2.9999-.0235 -.0079-1Zm-4.9999.0391l-1 .0078 .0078.9999 .9999-.0079 -.0079-1Zm0 0l-1 .0078 .0078.9999 .9999-.0079 -.0079-1Zm0 0l-3 .0234 .0078.9999 2.9999-.0235 -.0079-1Zm-4.9999.0391l-1 .0078 .0078.9999 .9999-.0079 -.0079-1Zm0 0l-1 .0078 .0078.9999 .9999-.0079 -.0079-1Zm0 0l-3 .0234 .0078.9999 2.9999-.0235 -.0079-1Zm-4.9999.0391l-1 .0078 .0078.9999 .9999-.0079 -.0079-1Zm0 0l-1 .0078 .0078.9999 .9999-.0079 -.0079-1Zm0 0l-3 .0234 .0078.9999 2.9999-.0235 -.0079-1Zm-4.9999.0391l-1 .0078 .0078.9999 .9999-.0079 -.0079-1Zm0 0l-1 .0078 .0078.9999 .9999-.0079 -.0079-1Zm0 0l-3 .0234 .0078.9999 2.9999-.0235 -.0079-1Z"/><path d="M179.752 117.857l-1 .0078 .0078.9999 .9999-.0079 -.0079-1Zm-3 .0234l-1 .0078 .0078.9999 .9999-.0079 -.0079-1Zm0 0l-1 .0078 .0078.9999 .9999-.0079 -.0079-1Zm0 0l-3 .0234 .0078.9999 2.9999-.0235 -.0079-1Zm-4.9999.0391l-1 .0078 .0078.9999 .9999-.0079 -.0079-1Zm0 0l-1 .0078 .0078.9999 .9999-.0079 -.0079-1Zm0 0l-3 .0234 .0078.9999 2.9999-.0235 -.0079-1Zm-4.9999.0391l-1 .0078 .0078.9999 .9999-.0079 -.0079-1Zm0 0l-1 .0078 .0078.9999 .9999-.0079 -.0079-1Zm0 0l-3 .0234 .0078.9999 2.9999-.0235 -.0079-1Zm-4.9999.0391l-1 .0078 .0078.9999 .9999-.0079 -.0079-1Zm0 0l-1 .0078 .0078.9999 .9999-.0079 -.0079-1Zm0 0l-3 .0234 .0078.9999 2.9999-.0235 -.0079-1Zm-4.9999.0391l-1 .0078 .0078.9999 .9999-.0079 -.0079-1Zm0 0l-1 .0078 .0078.9999 .9999-.0079 -.0079-1Zm0 0l-3 .0234 .0078.9999 2.9999-.0235 -.0079-1Zm-4.9999.0391l-1 .0078 .0078.9999 .9999-.0079 -.0079-1Zm0 0l-1 .0078 .0078.9999 .9999-.0079 -.0079-1Zm0 0l-3 .0234 .0078.9999 2.9999-.0235 -.0079-1Zm-4.9999.0391l-1 .0078 .0078.9999 .9999-.0079 -.0079-1Zm0 0l-1 .0078 .0078.9999 .9999-.0079 -.0079-1Zm0 0l-3 .0234 .0078.9999 2.9999-.0235 -.0079-1Zm-4.9999.0391l-1 .0078 .0078.9999 .9999-.0079 -.0079-1Zm0 0l-1 .0078 .0078.9999 .9999-.0079 -.0079-1Zm0 0l-3 .0234 .0078.9999 2.9999-.0235 -.0079-1Zm-4.9999.0391l-1 .0078 .0078.9999 .9999-.0079 -.0079-1Zm0 0l-1 .0078 .0078.9999 .9999-.0079 -.0079-1Zm0 0l-3 .0234 .0078.9999 2.9999-.0235 -.0079-1Zm-4.9999.0391l-1 .0078 .0078.9999 .9999-.0079 -.0079-1Zm0 0l-1 .0078 .0078.9999 .9999-.0079 -.0079-1Zm0 0l-3 .0234 .0078.9999 2.9999-.0235 -.0079-1Zm-4.9999.0391l-1 .0078 .0078.9999 .9999-.0079 -.0079-1Zm0 0l-1 .0078 .0078.9999 .9999-.0079 -.0079-1Zm0 0l-3 .0234 .0078.9999 2.9999-.0235 -.0079-1Z"/><path d="M370.168 122.855l-1 .0078 .0078.9999 .9999-.0079 -.0079-1Zm-3 .0234l-1 .0078 .0078.9999 .9999-.0079 -.0079-1Zm0 0l-1 .0078 .0078.9999 .9999-.0079 -.0079-1Zm0 0l-3 .0234 .0078.9999 2.9999-.0235 -.0079-1Zm-4.9999.0391l-1 .0078 .0078.9999 .9999-.0079 -.0079-1Zm0 0l-1 .0078 .0078.9999 .9999-.0079 -.0079-1Zm0 0l-3 .0234 .0078.9999 2.9999-.0235 -.0079-1Zm-4.9999.0391l-1 .0078 .0078.9999 .9999-.0079 -.0079-1Zm0 0l-1 .0078 .0078.9999 .9999-.0079 -.0079-1Zm0 0l-3 .0234 .0078.9999 2.9999-.0235 -.0079-1Zm-4.9999.0391l-1 .0078 .0078.9999 .9999-.0079 -.0079-1Zm0 0l-1 .0078 .0078.9999 .9999-.0079 -.0079-1Zm0 0l-3 .0234 .0078.9999 2.9999-.0235 -.0079-1Zm-4.9999.0391l-1 .0078 .0078.9999 .9999-.0079 -.0079-1Zm0 0l-1 .0078 .0078.9999 .9999-.0079 -.0079-1Zm0 0l-3 .0234 .0078.9999 2.9999-.0235 -.0079-1Zm-4.9999.0391l-1 .0078 .0078.9999 .9999-.0079 -.0079-1Zm0 0l-1 .0078 .0078.9999 .9999-.0079 -.0079-1Zm0 0l-3 .0234 .0078.9999 2.9999-.0235 -.0079-1Zm-4.9999.0391l-1 .0078 .0078.9999 .9999-.0079 -.0079-1Zm0 0l-1 .0078 .0078.9999 .9999-.0079 -.0079-1Zm0 0l-3 .0234 .0078.9999 2.9999-.0235 -.0079-1Zm-4.9999.0391l-1 .0078 .0078.9999 .9999-.0079 -.0079-1Zm0 0l-1 .0078 .0078.9999 .9999-.0079 -.0079-1Zm0 0l-3 .0234 .0078.9999 2.9999-.0235 -.0079-1Zm-4.9999.0391l-1 .0078 .0078.9999 .9999-.0079 -.0079-1Zm0 0l-1 .0078 .0078.9999 .9999-.0079 -.0079-1Zm0 0l-3 .0234 .0078.9999 2.9999-.0235 -.0079-1Zm-4.9999.0391l-1 .0078 .0078.9999 .9999-.0079 -.0079-1Zm0 0l-1 .0078 .0078.9999 .9999-.0079 -.0079-1Zm0 0l-3 .0234 .0078.9999 2.9999-.0235 -.0079-1Zm-4.9999.0391l-1 .0078 .0078.9999 .9999-.0079 -.0079-1Zm0 0l-1 .0078 .0078.9999 .9999-.0079 -.0079-1Zm0 0l-3 .0234 .0078.9999 2.9999-.0235 -.0079-1Zm-4.9999.0391l-1 .0078 .0078.9999 .9999-.0079 -.0079-1Zm0 0l-1 .0078 .0078.9999 .9999-.0079 -.0079-1Zm0 0l-3 .0234 .0078.9999 2.9999-.0235 -.0079-1Zm-4.9999.0391l-1 .0078 .0078.9999 .9999-.0079 -.0079-1Zm0 0l-1 .0078 .0078.9999 .9999-.0079 -.0079-1Zm0 0l-3 .0234 .0078.9999 2.9999-.0235 -.0079-1Zm-4.9999.0391l-1 .0078 .0078.9999 .9999-.0079 -.0079-1Zm0 0l-1 .0078 .0078.9999 .9999-.0079 -.0079-1Zm0 0l-3 .0234 .0078.9999 2.9999-.0235 -.0079-1Zm-4.9999.0391l-1 .0078 .0078.9999 .9999-.0079 -.0079-1Zm0 0l-1 .0078 .0078.9999 .9999-.0079 -.0079-1Zm0 0l-3 .0234 .0078.9999 2.9999-.0235 -.0079-1Zm-4.9999.0391l-1 .0078 .0078.9999 .9999-.0079 -.0079-1Zm0 0l-1 .0078 .0078.9999 .9999-.0079 -.0079-1Zm0 0l-3 .0234 .0078.9999 2.9999-.0235 -.0079-1Zm-4.9999.0391l-1 .0078 .0078.9999 .9999-.0079 -.0079-1Zm0 0l-1 .0078 .0078.9999 .9999-.0079 -.0079-1Zm0 0l-3 .0234 .0078.9999 2.9999-.0235 -.0079-1Zm-4.9999.0391l-1 .0078 .0078.9999 .9999-.0079 -.0079-1Zm0 0l-1 .0078 .0078.9999 .9999-.0079 -.0079-1Zm0 0l-3 .0234 .0078.9999 2.9999-.0235 -.0079-1Zm-4.9999.0391l-1 .0078 .0078.9999 .9999-.0079 -.0079-1Zm0 0l-1 .0078 .0078.9999 .9999-.0079 -.0079-1Zm0 0l-3 .0234 .0078.9999 2.9999-.0235 -.0079-1Zm-4.9999.0391l-1 .0078 .0078.9999 .9999-.0079 -.0079-1Zm0 0l-1 .0078 .0078.9999 .9999-.0079 -.0079-1Zm0 0l-3 .0234 .0078.9999 2.9999-.0235 -.0079-1Zm-4.9999.0391l-1 .0078 .0078.9999 .9999-.0079 -.0079-1Zm0 0l-1 .0078 .0078.9999 .9999-.0079 -.0079-1Zm0 0l-3 .0234 .0078.9999 2.9999-.0235 -.0079-1Zm-4.9999.0391l-1 .0078 .0078.9999 .9999-.0079 -.0079-1Zm0 0l-1 .0078 .0078.9999 .9999-.0079 -.0079-1Zm0 0l-3 .0234 .0078.9999 2.9999-.0235 -.0079-1Zm-4.9999.0391l-1 .0078 .0078.9999 .9999-.0079 -.0079-1Zm0 0l-1 .0078 .0078.9999 .9999-.0079 -.0079-1Zm0 0l-3 .0234 .0078.9999 2.9999-.0235 -.0079-1Zm-4.9999.0391l-1 .0078 .0078.9999 .9999-.0079 -.0079-1Zm0 0l-1 .0078 .0078.9999 .9999-.0079 -.0079-1Zm0 0l-3 .0234 .0078.9999 2.9999-.0235 -.0079-1Zm-4.9999.0391l-1 .0078 .0078.9999 .9999-.0079 -.0079-1Zm0 0l-1 .0078 .0078.9999 .9999-.0079 -.0079-1Zm0 0l-3 .0234 .0078.9999 2.9999-.0235 -.0079-1Zm-4.9999.0391l-1 .0078 .0078.9999 .9999-.0079 -.0079-1Zm0 0l-1 .0078 .0078.9999 .9999-.0079 -.0079-1Zm0 0l-3 .0234 .0078.9999 2.9999-.0235 -.0079-1Zm-4.9999.0391l-1 .0078 .0078.9999 .9999-.0079 -.0079-1Zm0 0l-1 .0078 .0078.9999 .9999-.0079 -.0079-1Zm0 0l-2.3571.0184 .0078.9999 2.357-.0185 -.0079-1Z"/><path d="M220.447 121.003l.7033.7108 .7108-.7034 -.7034-.7109 -.7109.7033Zm2.11 2.1325l.7033.7108 .7108-.7034 -.7034-.7109 -.7109.7033Zm0 0l.7033.7108 .7108-.7034 -.7034-.7109 -.7109.7033Zm0 0l2.11 2.1325 .7108-.7034 -2.1101-2.1326 -.7109.7033Zm3.5167 3.5541l.7033.7108 .7108-.7034 -.7034-.7109 -.7109.7033Zm0 0l.7033.7108 .7108-.7034 -.7034-.7109 -.7109.7033Zm0 0l2.11 2.1325 .7108-.7034 -2.1101-2.1326 -.7109.7033Zm3.5167 3.5541l.7033.7108 .7108-.7034 -.7034-.7109 -.7109.7033Zm0 0l.7033.7108 .7108-.7034 -.7034-.7109 -.7109.7033Zm0 0l2.11 2.1325 .7108-.7034 -2.1101-2.1326 -.7109.7033Zm3.5167 3.5541l.7033.7108 .7108-.7034 -.7034-.7109 -.7109.7033Zm0 0l.7033.7108 .7108-.7034 -.7034-.7109 -.7109.7033Zm0 0l2.11 2.1325 .7108-.7034 -2.1101-2.1326 -.7109.7033Zm3.5167 3.5541l.7033.7108 .7108-.7034 -.7034-.7109 -.7109.7033Zm0 0l.7033.7108 .7108-.7034 -.7034-.7109 -.7109.7033Zm0 0l2.11 2.1325 .7108-.7034 -2.1101-2.1326 -.7109.7033Zm3.5167 3.5541l.7033.7108 .7108-.7034 -.7034-.7109 -.7109.7033Zm0 0l.7033.7108 .7108-.7034 -.7034-.7109 -.7109.7033Zm0 0l2.11 2.1325 .7108-.7034 -2.1101-2.1326 -.7109.7033Zm3.5167 3.5541l.7033.7108 .7108-.7034 -.7034-.7109 -.7109.7033Zm0 0l.7033.7108 .7108-.7034 -.7034-.7109 -.7109.7033Zm0 0l2.11 2.1325 .7108-.7034 -2.1101-2.1326 -.7109.7033Zm3.5167 3.5541l.7033.7108 .7108-.7034 -.7034-.7109 -.7109.7033Zm0 0l.7033.7108 .7108-.7034 -.7034-.7109 -.7109.7033Zm0 0l2.11 2.1325 .7108-.7034 -2.1101-2.1326 -.7109.7033Zm3.5167 3.5541l.7033.7108 .7108-.7034 -.7034-.7109 -.7109.7033Zm0 0l.7033.7108 .7108-.7034 -.7034-.7109 -.7109.7033Zm0 0l2.11 2.1325 .7108-.7034 -2.1101-2.1326 -.7109.7033Zm3.5167 3.5541l.7033.7108 .7108-.7034 -.7034-.7109 -.7109.7033Zm0 0l.7033.7108 .7108-.7034 -.7034-.7109 -.7109.7033Zm0 0l2.11 2.1325 .7108-.7034 -2.1101-2.1326 -.7109.7033Zm3.5167 3.5541l.7033.7108 .7108-.7034 -.7034-.7109 -.7109.7033Zm0 0l.7033.7108 .7108-.7034 -.7034-.7109 -.7109.7033Zm0 0l2.11 2.1325 .7108-.7034 -2.1101-2.1326 -.7109.7033Zm3.5167 3.5541l.7033.7108 .7108-.7034 -.7034-.7109 -.7109.7033Zm0 0l.7033.7108 .7108-.7034 -.7034-.7109 -.7109.7033Zm0 0l2.11 2.1325 .7108-.7034 -2.1101-2.1326 -.7109.7033Zm3.5167 3.5541l.7033.7108 .7108-.7034 -.7034-.7109 -.7109.7033Zm0 0l.7033.7108 .7108-.7034 -.7034-.7109 -.7109.7033Zm0 0l2.11 2.1325 .7108-.7034 -2.1101-2.1326 -.7109.7033Zm3.5167 3.5541l.7033.7108 .7108-.7034 -.7034-.7109 -.7109.7033Zm0 0l.7033.7108 .7108-.7034 -.7034-.7109 -.7109.7033Zm0 0l2.11 2.1325 .7108-.7034 -2.1101-2.1326 -.7109.7033Zm3.5167 3.5541l.7033.7108 .7108-.7034 -.7034-.7109 -.7109.7033Zm0 0l.7033.7108 .7108-.7034 -.7034-.7109 -.7109.7033Zm0 0l.8339.8428 .7108-.7034 -.834-.8429 -.7109.7033Z"/><path d="M208.053 171.08l-1 .0078 .0078.9999 .9999-.0079 -.0079-1Zm-3 .0234l-1 .0078 .0078.9999 .9999-.0079 -.0079-1Zm0 0l-1 .0078 .0078.9999 .9999-.0079 -.0079-1Zm0 0l-3 .0234 .0078.9999 2.9999-.0235 -.0079-1Zm-4.9999.0391l-1 .0078 .0078.9999 .9999-.0079 -.0079-1Zm0 0l-1 .0078 .0078.9999 .9999-.0079 -.0079-1Zm0 0l-3 .0234 .0078.9999 2.9999-.0235 -.0079-1Zm-4.9999.0391l-1 .0078 .0078.9999 .9999-.0079 -.0079-1Zm0 0l-1 .0078 .0078.9999 .9999-.0079 -.0079-1Zm0 0l-3 .0234 .0078.9999 2.9999-.0235 -.0079-1Zm-4.9999.0391l-1 .0078 .0078.9999 .9999-.0079 -.0079-1Zm0 0l-1 .0078 .0078.9999 .9999-.0079 -.0079-1Zm0 0l-3 .0234 .0078.9999 2.9999-.0235 -.0079-1Zm-4.9999.0391l-1 .0078 .0078.9999 .9999-.0079 -.0079-1Zm0 0l-1 .0078 .0078.9999 .9999-.0079 -.0079-1Zm0 0l-3 .0234 .0078.9999 2.9999-.0235 -.0079-1Zm-4.9999.0391l-1 .0078 .0078.9999 .9999-.0079 -.0079-1Zm0 0l-1 .0078 .0078.9999 .9999-.0079 -.0079-1Zm0 0l-3 .0234 .0078.9999 2.9999-.0235 -.0079-1Zm-4.9999.0391l-1 .0078 .0078.9999 .9999-.0079 -.0079-1Zm0 0l-1 .0078 .0078.9999 .9999-.0079 -.0079-1Zm0 0l-3 .0234 .0078.9999 2.9999-.0235 -.0079-1Zm-4.9999.0391l-1 .0078 .0078.9999 .9999-.0079 -.0079-1Zm0 0l-1 .0078 .0078.9999 .9999-.0079 -.0079-1Zm0 0l-3 .0234 .0078.9999 2.9999-.0235 -.0079-1Zm-4.9999.0391l-1 .0078 .0078.9999 .9999-.0079 -.0079-1Zm0 0l-1 .0078 .0078.9999 .9999-.0079 -.0079-1Zm0 0l-3 .0234 .0078.9999 2.9999-.0235 -.0079-1Zm-4.9999.0391l-1 .0078 .0078.9999 .9999-.0079 -.0079-1Zm0 0l-1 .0078 .0078.9999 .9999-.0079 -.0079-1Zm0 0l-3 .0234 .0078.9999 2.9999-.0235 -.0079-1Zm-4.9999.0391l-1 .0078 .0078.9999 .9999-.0079 -.0079-1Zm0 0l-1 .0078 .0078.9999 .9999-.0079 -.0079-1Zm0 0l-3 .0234 .0078.9999 2.9999-.0235 -.0079-1Zm-4.9999.0391l-1 .0078 .0078.9999 .9999-.0079 -.0079-1Zm0 0l-1 .0078 .0078.9999 .9999-.0079 -.0079-1Zm0 0l-3 .0234 .0078.9999 2.9999-.0235 -.0079-1Zm-4.9999.0391l-1 .0078 .0078.9999 .9999-.0079 -.0079-1Zm0 0l-1 .0078 .0078.9999 .9999-.0079 -.0079-1Zm0 0l-2.278.0178 .0078.9999 2.2779-.0179 -.0079-1Z"/><path d="M191.271 86.3319l-.8842-.4673 -.4673.8841 .8841.4672 .4672-.8842Zm-2.6525-1.4017l-.8842-.4673 -.4673.8841 .8841.4672 .4672-.8842Zm0 0l-.8842-.4673 -.4673.8841 .8841.4672 .4672-.8842Zm0 0l-2.6525-1.4017 -.4673.8841 2.6524 1.4016 .4672-.8842Zm-4.4208-2.3361l-.8842-.4673 -.4673.8841 .8841.4672 .4672-.8842Zm0 0l-.8842-.4673 -.4673.8841 .8841.4672 .4672-.8842Zm0 0l-2.6525-1.4017 -.4673.8841 2.6524 1.4016 .4672-.8842Zm-4.4208-2.3361l-.8842-.4673 -.4673.8841 .8841.4672 .4672-.8842Zm0 0l-.8842-.4673 -.4673.8841 .8841.4672 .4672-.8842Zm0 0l-2.6525-1.4017 -.4673.8841 2.6524 1.4016 .4672-.8842Zm-4.4208-2.3361l-.8842-.4673 -.4673.8841 .8841.4672 .4672-.8842Zm0 0l-.8842-.4673 -.4673.8841 .8841.4672 .4672-.8842Zm0 0l-2.6525-1.4017 -.4673.8841 2.6524 1.4016 .4672-.8842Zm-4.4208-2.3361l-.8842-.4673 -.4673.8841 .8841.4672 .4672-.8842Zm0 0l-.8842-.4673 -.4673.8841 .8841.4672 .4672-.8842Zm0 0l-2.6525-1.4017 -.4673.8841 2.6524 1.4016 .4672-.8842Zm-4.4208-2.3361l-.8842-.4673 -.4673.8841 .8841.4672 .4672-.8842Zm0 0l-.8842-.4673 -.4673.8841 .8841.4672 .4672-.8842Zm0 0l-2.6525-1.4017 -.4673.8841 2.6524 1.4016 .4672-.8842Zm-4.4208-2.3361l-.8842-.4673 -.4673.8841 .8841.4672 .4672-.8842Zm0 0l-.8842-.4673 -.4673.8841 .8841.4672 .4672-.8842Zm0 0l-2.6525-1.4017 -.4673.8841 2.6524 1.4016 .4672-.8842Zm-4.4208-2.3361l-.8842-.4673 -.4673.8841 .8841.4672 .4672-.8842Zm0 0l-.8842-.4673 -.4673.8841 .8841.4672 .4672-.8842Zm0 0l-2.6525-1.4017 -.4673.8841 2.6524 1.4016 .4672-.8842Zm-4.4208-2.3361l-.8842-.4673 -.4673.8841 .8841.4672 .4672-.8842Zm0 0l-.8842-.4673 -.4673.8841 .8841.4672 .4672-.8842Zm0 0l-2.6525-1.4017 -.4673.8841 2.6524 1.4016 .4672-.8842Zm-4.4208-2.3361l-.8842-.4673 -.4673.8841 .8841.4672 .4672-.8842Zm0 0l-.8842-.4673 -.4673.8841 .8841.4672 .4672-.8842Zm0 0l-2.6525-1.4017 -.4673.8841 2.6524 1.4016 .4672-.8842Zm-4.4208-2.3361l-.8842-.4673 -.4673.8841 .8841.4672 .4672-.8842Zm0 0l-.8842-.4673 -.4673.8841 .8841.4672 .4672-.8842Zm0 0l-2.6525-1.4017 -.4673.8841 2.6524 1.4016 .4672-.8842Zm-4.4208-2.3361l-.8842-.4673 -.4673.8841 .8841.4672 .4672-.8842Zm0 0l-.8842-.4673 -.4673.8841 .8841.4672 .4672-.8842Zm0 0l-2.6525-1.4017 -.4673.8841 2.6524 1.4016 .4672-.8842Zm-4.4208-2.3361l-.8842-.4673 -.4673.8841 .8841.4672 .4672-.8842Zm0 0l-.8842-.4673 -.4673.8841 .8841.4672 .4672-.8842Zm0 0l-2.6525-1.4017 -.4673.8841 2.6524 1.4016 .4672-.8842Zm-4.4208-2.3361l-.8842-.4673 -.4673.8841 .8841.4672 .4672-.8842Zm0 0l-.8842-.4673 -.4673.8841 .8841.4672 .4672-.8842Zm0 0l-2.6525-1.4017 -.4673.8841 2.6524 1.4016 .4672-.8842Z"/><path d="M29.621 172.358l-1.304 1.355v3.603h-1.406v-10.664h1.406v5.273l4.739-5.273h1.699l-4.197 4.709 4.526 5.955H33.4l-3.779-4.958Z"/><path d="M37.575 177.316H36.22v-7.925h1.355v7.925Zm-1.465-10.027c0-.219.066-.405.198-.556 .136-.152.336-.227.6-.227 .264 0 .464.075.601.227 .136.151.205.337.205.556 0 .22-.069.403-.205.55 -.137.146-.337.219-.601.219 -.264 0-.464-.073-.6-.219 -.132-.147-.198-.33-.198-.55Z"/><path d="M41.024 169.391l.044.996c.606-.761 1.397-1.142 2.373-1.142 1.675 0 2.52.945 2.534 2.834v5.237h-1.354v-5.244c-.005-.571-.137-.994-.396-1.267 -.254-.274-.652-.41-1.194-.41 -.439 0-.825.117-1.157.351 -.332.235-.591.542-.776.923v5.647h-1.355v-7.925h1.281Z"/><path d="M52.633 175.214c0-.366-.139-.649-.417-.85 -.274-.205-.755-.38-1.443-.527 -.684-.146-1.228-.322-1.633-.527 -.401-.205-.699-.449-.894-.733 -.19-.283-.286-.62-.286-1.01 0-.65.274-1.199.821-1.648 .551-.45 1.255-.674 2.109-.674 .898 0 1.626.232 2.183.696 .561.463.842 1.057.842 1.779h-1.362c0-.371-.159-.691-.476-.959 -.313-.269-.708-.403-1.187-.403 -.493 0-.879.108-1.157.322 -.279.215-.418.496-.418.843 0 .327.13.573.389.739 .258.166.725.325 1.398.476 .679.152 1.228.332 1.648.542 .42.21.73.464.931.762 .205.293.307.652.307 1.077 0 .708-.283 1.277-.849 1.706 -.567.425-1.302.638-2.205.638 -.635 0-1.196-.113-1.685-.337 -.488-.225-.871-.537-1.149-.938 -.274-.405-.411-.842-.411-1.311h1.355c.025.454.205.816.542 1.084 .342.264.791.396 1.348.396 .513 0 .923-.103 1.23-.308 .313-.21.469-.488.469-.835Z"/><path d="M57.108 170.351c.601-.738 1.382-1.106 2.344-1.106 1.675 0 2.52.945 2.534 2.834v5.237h-1.355v-5.244c-.005-.571-.136-.994-.395-1.267 -.254-.274-.652-.41-1.194-.41 -.44 0-.825.117-1.157.351 -.332.235-.591.542-.777.923v5.647h-1.355v-11.25h1.355v4.285Z"/><path d="M68.908 177.316c-.079-.156-.142-.434-.191-.835 -.63.654-1.382.982-2.256.982 -.781 0-1.423-.22-1.926-.66 -.498-.444-.747-1.005-.747-1.684 0-.825.312-1.465.937-1.919 .63-.459 1.514-.689 2.652-.689h1.318v-.622c0-.474-.141-.85-.425-1.128 -.283-.283-.7-.425-1.252-.425 -.483 0-.889.122-1.216.366 -.327.244-.491.54-.491.887h-1.362c0-.396.139-.777.418-1.143 .283-.371.664-.664 1.142-.879 .484-.215 1.013-.322 1.59-.322 .913 0 1.628.229 2.146.688 .517.454.786 1.082.805 1.883v3.647c0 .728.093 1.306.279 1.736v.117h-1.421Zm-2.249-1.033c.425 0 .828-.109 1.209-.329 .38-.22.656-.506.827-.857v-1.626h-1.062c-1.66 0-2.49.486-2.49 1.457 0 .425.142.757.425.996 .283.24.647.359 1.091.359Z"/><path d="M76.788 175.214c0-.366-.139-.649-.417-.85 -.273-.205-.754-.38-1.443-.527 -.683-.146-1.228-.322-1.633-.527 -.401-.205-.698-.449-.894-.733 -.19-.283-.285-.62-.285-1.01 0-.65.273-1.199.82-1.648 .552-.45 1.255-.674 2.109-.674 .899 0 1.626.232 2.183.696 .561.463.842 1.057.842 1.779h-1.362c0-.371-.159-.691-.476-.959 -.313-.269-.708-.403-1.187-.403 -.493 0-.879.108-1.157.322 -.278.215-.417.496-.417.843 0 .327.129.573.388.739 .259.166.725.325 1.399.476 .678.152 1.228.332 1.648.542 .42.21.73.464.93.762 .205.293.307.652.307 1.077 0 .708-.283 1.277-.849 1.706 -.567.425-1.301.638-2.205.638 -.635 0-1.196-.113-1.684-.337 -.489-.225-.872-.537-1.15-.938 -.274-.405-.41-.842-.41-1.311H73.2c.024.454.205.816.542 1.084 .341.264.791.396 1.347.396 .513 0 .923-.103 1.231-.308 .312-.21.468-.488.468-.835Z"/><path d="M84.801 177.316c-.078-.156-.141-.434-.19-.835 -.63.654-1.382.982-2.256.982 -.781 0-1.423-.22-1.926-.66 -.498-.444-.747-1.005-.747-1.684 0-.825.312-1.465.937-1.919 .63-.459 1.514-.689 2.651-.689h1.319v-.622c0-.474-.142-.85-.425-1.128 -.283-.283-.701-.425-1.252-.425 -.484 0-.889.122-1.216.366 -.327.244-.491.54-.491.887h-1.362c0-.396.139-.777.417-1.143 .283-.371.664-.664 1.143-.879 .483-.215 1.013-.322 1.589-.322 .913 0 1.629.229 2.146.688 .518.454.786 1.082.806 1.883v3.647c0 .728.093 1.306.278 1.736v.117h-1.421Zm-2.248-1.033c.424 0 .827-.109 1.208-.329 .381-.22.657-.506.828-.857v-1.626h-1.062c-1.66 0-2.49.486-2.49 1.457 0 .425.141.757.424.996 .284.24.647.359 1.092.359Z"/><path d="M93.056 169.391l.036.879c.581-.683 1.365-1.025 2.351-1.025 1.109 0 1.863.425 2.263 1.274 .264-.381.606-.688 1.026-.923 .425-.234.925-.351 1.501-.351 1.739 0 2.622.92 2.652 2.761v5.31h-1.355v-5.229c0-.567-.13-.989-.388-1.267 -.259-.284-.694-.425-1.304-.425 -.503 0-.921.151-1.253.454 -.332.298-.525.7-.578 1.208v5.259h-1.363v-5.193c0-1.152-.564-1.728-1.691-1.728 -.889 0-1.497.378-1.824 1.135v5.786h-1.355v-7.925h1.282Z"/><path d="M108.217 177.463c-1.075 0-1.949-.352-2.622-1.055 -.674-.708-1.011-1.653-1.011-2.835v-.249c0-.786.149-1.486.447-2.102 .302-.62.722-1.103 1.259-1.45 .542-.351 1.128-.527 1.758-.527 1.031 0 1.831.339 2.403 1.018 .571.679.857 1.65.857 2.915v.564h-5.369c.019.781.246 1.413.681 1.897 .439.478.996.718 1.67.718 .478 0 .884-.098 1.216-.293 .332-.196.622-.454.871-.777l.828.645c-.664 1.02-1.66 1.531-2.988 1.531Zm-.169-7.105c-.547 0-1.006.2-1.377.601 -.371.395-.6.952-.688 1.67h3.97v-.103c-.04-.688-.225-1.221-.557-1.597 -.332-.38-.781-.571-1.348-.571Z"/><path d="M114.713 167.472v1.919h1.48v1.048h-1.48v4.914c0 .318.066.557.198.718 .132.156.356.234.674.234 .156 0 .371-.029.644-.088v1.099c-.356.098-.703.147-1.04.147 -.605 0-1.062-.184-1.369-.55 -.308-.366-.462-.886-.462-1.56v-4.914h-1.443v-1.048h1.443v-1.919h1.355Z"/><path d="M121.605 170.607c-.205-.034-.427-.051-.666-.051 -.889 0-1.492.378-1.809 1.135v5.625h-1.355v-7.925h1.318l.022.916c.444-.708 1.074-1.062 1.89-1.062 .263 0 .464.034.6.102v1.26Z"/><path d="M122.345 173.28c0-.776.151-1.474.454-2.094 .308-.62.733-1.099 1.275-1.436 .547-.337 1.169-.505 1.867-.505 1.079 0 1.951.373 2.615 1.12 .669.747 1.003 1.741 1.003 2.981v.096c0 .771-.148 1.464-.446 2.08 -.293.61-.716 1.086-1.267 1.428 -.547.342-1.177.513-1.89.513 -1.074 0-1.946-.374-2.615-1.121 -.664-.747-.996-1.736-.996-2.966v-.096Zm1.362.162c0 .878.203 1.584.608 2.116 .41.533.957.799 1.641.799 .688 0 1.235-.269 1.641-.806 .405-.542.607-1.299.607-2.271 0-.869-.207-1.572-.622-2.109 -.41-.542-.957-.813-1.641-.813 -.669 0-1.208.266-1.618.798 -.411.533-.616 1.294-.616 2.286Z"/><path d="M14.742 157.324h-4.467l-1.004 2.783h-1.45l4.072-10.664h1.231l4.079 10.664H15.76l-1.018-2.783Zm-4.043-1.158h3.626l-1.817-4.987 -1.809 4.987Z"/><path d="M25.135 156.232c0 1.211-.278 2.185-.835 2.923 -.556.732-1.303 1.098-2.241 1.098 -1.001 0-1.775-.354-2.322-1.062l-.065.916h-1.246v-11.25h1.355v4.197c.547-.679 1.302-1.018 2.264-1.018 .961 0 1.716.363 2.263 1.091 .552.727.827 1.724.827 2.988v.117Zm-1.355-.153c0-.923-.178-1.636-.534-2.139 -.357-.503-.869-.755-1.538-.755 -.894 0-1.536.416-1.927 1.246v3.427c.415.83 1.062 1.245 1.941 1.245 .65 0 1.155-.251 1.516-.754 .362-.503.542-1.26.542-2.27Z"/><path d="M28.314 160.107h-1.355v-7.925h1.355v7.925Zm-1.465-10.027c0-.22.066-.405.198-.557 .137-.151.337-.227.601-.227 .263 0 .463.076.6.227 .137.152.205.337.205.557 0 .22-.068.403-.205.549 -.137.147-.337.22-.6.22 -.264 0-.464-.073-.601-.22 -.132-.146-.198-.329-.198-.549Z"/><path d="M30.152 156.079c0-1.216.289-2.193.865-2.93 .576-.742 1.33-1.113 2.263-1.113 .928 0 1.663.317 2.205.952v-4.131h1.354v11.25h-1.245l-.066-.85c-.542.664-1.296.996-2.263.996 -.918 0-1.667-.376-2.248-1.128 -.576-.752-.865-1.733-.865-2.944v-.102Zm1.355.153c0 .899.186 1.602.557 2.11 .371.508.884.761 1.538.761 .86 0 1.487-.385 1.883-1.157v-3.64c-.406-.747-1.028-1.121-1.868-1.121 -.664 0-1.182.257-1.553.77 -.371.512-.557 1.271-.557 2.277Z"/><path d="M40.34 152.182v8.84c0 1.524-.69 2.286-2.072 2.286 -.298 0-.574-.044-.828-.132v-1.084c.156.039.361.058.615.058 .303 0 .533-.083.689-.249 .161-.161.241-.444.241-.849v-8.87h1.355Zm-1.494-2.102c0-.215.066-.398.198-.549 .137-.157.335-.235.593-.235 .264 0 .464.076.601.227 .137.152.205.337.205.557 0 .22-.068.403-.205.549 -.137.147-.337.22-.601.22 -.263 0-.461-.073-.593-.22 -.132-.146-.198-.329-.198-.549Z"/><path d="M47.416 160.107c-.078-.156-.142-.435-.191-.835 -.63.654-1.382.981-2.256.981 -.781 0-1.423-.219-1.926-.659 -.498-.444-.747-1.006-.747-1.684 0-.826.313-1.465.938-1.919 .629-.459 1.513-.689 2.651-.689h1.318v-.622c0-.474-.141-.85-.425-1.128 -.283-.284-.7-.425-1.252-.425 -.483 0-.889.122-1.216.366 -.327.244-.491.54-.491.886h-1.362c0-.395.139-.776.418-1.142 .283-.371.664-.664 1.142-.879 .484-.215 1.013-.322 1.59-.322 .913 0 1.628.229 2.146.688 .517.454.786 1.082.805 1.882v3.648c0 .727.093 1.306.279 1.736v.117h-1.421Zm-2.249-1.033c.425 0 .828-.11 1.209-.329 .38-.22.656-.506.827-.857v-1.626h-1.062c-1.66 0-2.49.485-2.49 1.457 0 .425.142.757.425.996 .283.24.647.359 1.091.359Z"/><path d="M51.964 152.182l.044.996c.605-.762 1.396-1.142 2.373-1.142 1.675 0 2.52.944 2.534 2.834v5.237H55.56v-5.244c-.005-.572-.137-.994-.395-1.267 -.254-.274-.652-.411-1.194-.411 -.44 0-.825.118-1.157.352 -.332.234-.591.542-.777.923v5.647h-1.355v-7.925h1.282Z"/><path d="M63.946 152.182l.037.879c.581-.684 1.365-1.025 2.351-1.025 1.109 0 1.863.424 2.263 1.274 .264-.381.606-.688 1.026-.923 .425-.234.925-.351 1.501-.351 1.738 0 2.622.92 2.652 2.761v5.31h-1.355v-5.23c0-.566-.13-.988-.389-1.267 -.258-.283-.693-.425-1.303-.425 -.503 0-.921.152-1.253.455 -.332.297-.525.7-.578 1.208v5.259h-1.363v-5.193c0-1.152-.564-1.729-1.692-1.729 -.888 0-1.496.379-1.823 1.136v5.786h-1.355v-7.925h1.281Z"/><path d="M79.108 160.253c-1.075 0-1.949-.351-2.623-1.054 -.673-.708-1.01-1.653-1.01-2.835v-.249c0-.786.149-1.487.447-2.102 .302-.62.722-1.103 1.259-1.45 .542-.352 1.128-.527 1.758-.527 1.03 0 1.831.339 2.402 1.018 .572.678.857 1.65.857 2.915v.564H76.83c.019.781.246 1.413.681 1.897 .439.478.996.717 1.67.717 .478 0 .884-.097 1.216-.293 .332-.195.622-.454.871-.776l.828.645c-.664 1.02-1.66 1.53-2.988 1.53Zm-.169-7.104c-.547 0-1.006.2-1.377.6 -.371.396-.6.953-.688 1.67h3.969v-.102c-.039-.689-.224-1.221-.556-1.597 -.332-.381-.781-.571-1.348-.571Z"/><path d="M85.604 150.263v1.919h1.48v1.047h-1.48v4.915c0 .317.066.557.198.718 .132.156.356.234.674.234 .156 0 .371-.029.644-.088v1.099c-.356.098-.703.146-1.04.146 -.605 0-1.062-.183-1.369-.549 -.308-.366-.462-.886-.462-1.56v-4.915h-1.443v-1.047h1.443v-1.919h1.355Z"/><path d="M92.496 153.398c-.205-.034-.427-.051-.666-.051 -.889 0-1.492.378-1.809 1.135v5.625h-1.355v-7.925h1.318l.022.916c.444-.708 1.074-1.062 1.89-1.062 .263 0 .464.034.6.102v1.26Z"/><path d="M93.236 156.071c0-.776.151-1.474.454-2.095 .308-.62.733-1.098 1.274-1.435 .547-.337 1.17-.505 1.868-.505 1.079 0 1.951.373 2.615 1.12 .669.747 1.003 1.741 1.003 2.981v.095c0 .772-.149 1.465-.446 2.08 -.293.611-.716 1.087-1.268 1.429 -.546.341-1.176.512-1.889.512 -1.074 0-1.946-.373-2.615-1.12 -.664-.747-.996-1.736-.996-2.967v-.095Zm1.362.161c0 .879.203 1.585.608 2.117 .41.532.957.798 1.641.798 .688 0 1.235-.268 1.64-.805 .406-.542.608-1.299.608-2.271 0-.869-.207-1.572-.622-2.109 -.41-.542-.957-.813-1.641-.813 -.669 0-1.208.266-1.618.798 -.411.532-.616 1.294-.616 2.285Z"/><path d="M74.935 106.621h-3.427v9.507h-1.399v-9.507h-3.421v-1.157h8.247v1.157Z"/><path d="M77.66 109.162c.6-.737 1.382-1.106 2.344-1.106 1.674 0 2.519.945 2.534 2.835v5.237h-1.355v-5.244c-.005-.572-.137-.994-.396-1.268 -.254-.273-.652-.41-1.194-.41 -.439 0-.825.118-1.157.352 -.332.234-.591.542-.776.923v5.647h-1.355v-11.25h1.355v4.284Z"/><path d="M87.855 116.274c-1.074 0-1.948-.351-2.622-1.054 -.674-.708-1.011-1.653-1.011-2.835v-.249c0-.786.149-1.487.447-2.102 .303-.62.723-1.104 1.26-1.45 .542-.352 1.128-.528 1.758-.528 1.03 0 1.831.34 2.402 1.019 .571.678.857 1.65.857 2.915v.564h-5.369c.02.781.247 1.413.681 1.896 .44.479.997.718 1.67.718 .479 0 .884-.097 1.216-.293 .332-.195.623-.454.872-.776l.827.644c-.664 1.021-1.66 1.531-2.988 1.531Zm-.168-7.104c-.547 0-1.006.2-1.377.6 -.371.396-.601.952-.689 1.67h3.97v-.102c-.039-.689-.225-1.221-.557-1.597 -.332-.381-.781-.571-1.347-.571Z"/><path d="M93.795 108.203l.044.996c.606-.762 1.397-1.143 2.373-1.143 1.675 0 2.52.945 2.534 2.835v5.237h-1.355v-5.244c-.005-.572-.136-.994-.395-1.268 -.254-.273-.652-.41-1.194-.41 -.439 0-.825.118-1.157.352 -.332.234-.591.542-.777.923v5.647h-1.355v-7.925h1.282Z"/><path d="M102.262 116.128h-1.355v-7.925h1.355v7.925Zm-1.465-10.027c0-.22.066-.405.198-.557 .137-.151.337-.227.6-.227 .264 0 .464.076.601.227 .137.152.205.337.205.557 0 .22-.068.403-.205.549 -.137.147-.337.22-.601.22 -.263 0-.463-.073-.6-.22 -.132-.146-.198-.329-.198-.549Z"/><path d="M109.322 116.128c-.078-.157-.141-.435-.19-.835 -.63.654-1.382.981-2.256.981 -.781 0-1.423-.22-1.926-.659 -.498-.444-.747-1.006-.747-1.685 0-.825.312-1.464.937-1.918 .63-.459 1.514-.689 2.652-.689h1.318v-.623c0-.473-.142-.849-.425-1.127 -.283-.284-.7-.425-1.252-.425 -.484 0-.889.122-1.216.366 -.327.244-.491.54-.491.886h-1.362c0-.395.139-.776.417-1.142 .284-.371.665-.664 1.143-.879 .483-.215 1.013-.323 1.589-.323 .913 0 1.629.23 2.146.689 .518.454.787 1.081.806 1.882v3.648c0 .727.093 1.306.278 1.736v.117h-1.421Zm-2.248-1.033c.425 0 .828-.11 1.208-.33 .381-.219.657-.505.828-.857v-1.625h-1.062c-1.66 0-2.49.485-2.49 1.457 0 .425.141.757.425.996 .283.239.647.359 1.091.359Z"/><path d="M115.548 111.045h3.574v1.106h-3.574Z"/><path d="M3.693 131.128v-10.664h3.486c1.157 0 2.026.239 2.607.717 .586.479.879 1.187.879 2.124 0 .499-.141.94-.425 1.326 -.283.381-.669.676-1.157.886 .576.162 1.03.469 1.363.923 .336.449.505.987.505 1.612 0 .957-.31 1.709-.93 2.255 -.62.547-1.497.821-2.63.821H3.693Zm1.406-4.988v3.838h2.322c.654 0 1.169-.169 1.545-.506 .381-.341.571-.81.571-1.406 0-1.284-.698-1.926-2.094-1.926H5.099Zm0-1.128h2.124c.615 0 1.106-.154 1.472-.461 .371-.308.557-.726.557-1.253 0-.586-.171-1.011-.513-1.274 -.342-.269-.862-.403-1.56-.403h-2.08v3.391Z"/><path d="M12.46 127.092c0-.776.151-1.475.454-2.095 .307-.62.732-1.098 1.274-1.435 .547-.337 1.17-.506 1.868-.506 1.079 0 1.951.374 2.615 1.121 .669.747 1.003 1.741 1.003 2.981v.095c0 .772-.149 1.465-.447 2.08 -.293.611-.715 1.087-1.267 1.429 -.547.341-1.177.512-1.889.512 -1.075 0-1.946-.373-2.615-1.12 -.664-.747-.996-1.736-.996-2.967v-.095Zm1.362.161c0 .879.203 1.585.608 2.117 .41.532.957.798 1.641.798 .688 0 1.235-.268 1.64-.805 .405-.542.608-1.299.608-2.271 0-.869-.207-1.572-.623-2.109 -.41-.542-.957-.813-1.64-.813 -.669 0-1.209.266-1.619.798 -.41.532-.615 1.294-.615 2.285Z"/><path d="M25.204 124.419c-.205-.034-.427-.052-.667-.052 -.888 0-1.491.379-1.809 1.136v5.625h-1.355v-7.925h1.319l.022.915c.444-.708 1.074-1.062 1.889-1.062 .264 0 .464.035.601.103v1.26Z"/><path d="M25.98 127.099c0-1.215.288-2.192.864-2.929 .577-.742 1.331-1.114 2.264-1.114 .927 0 1.662.318 2.204.953v-4.131h1.355v11.25h-1.245l-.066-.85c-.542.664-1.296.996-2.263.996 -.918 0-1.668-.376-2.249-1.128 -.576-.752-.864-1.733-.864-2.944v-.103Zm1.355.154c0 .899.186 1.602.557 2.11 .371.507.884.761 1.538.761 .859 0 1.487-.385 1.882-1.157v-3.64c-.405-.747-1.028-1.121-1.867-1.121 -.665 0-1.182.257-1.553.769 -.371.513-.557 1.272-.557 2.278Z"/><path d="M36.168 123.203v8.84c0 1.524-.691 2.285-2.073 2.285 -.297 0-.573-.044-.827-.131v-1.084c.156.039.361.058.615.058 .303 0 .532-.083.688-.249 .162-.161.242-.444.242-.849v-8.87h1.355Zm-1.494-2.102c0-.215.066-.398.198-.549 .136-.157.334-.235.593-.235 .264 0 .464.076.601.227 .136.152.205.337.205.557 0 .22-.069.403-.205.549 -.137.147-.337.22-.601.22 -.264 0-.461-.073-.593-.22 -.132-.146-.198-.329-.198-.549Z"/><path d="M42.277 131.128v-10.664h3.486c1.157 0 2.026.239 2.607.717 .586.479.879 1.187.879 2.124 0 .499-.141.94-.425 1.326 -.283.381-.669.676-1.157.886 .576.162 1.03.469 1.362.923 .337.449.506.987.506 1.612 0 .957-.31 1.709-.93 2.255 -.62.547-1.497.821-2.63.821h-3.698Zm1.406-4.988v3.838h2.322c.654 0 1.169-.169 1.545-.506 .381-.341.571-.81.571-1.406 0-1.284-.698-1.926-2.094-1.926h-2.344Zm0-1.128h2.124c.615 0 1.106-.154 1.472-.461 .371-.308.557-.726.557-1.253 0-.586-.171-1.011-.513-1.274 -.342-.269-.862-.403-1.56-.403h-2.08v3.391Z"/><path d="M51.044 127.092c0-.776.151-1.475.454-2.095 .307-.62.732-1.098 1.274-1.435 .547-.337 1.17-.506 1.868-.506 1.079 0 1.951.374 2.615 1.121 .669.747 1.003 1.741 1.003 2.981v.095c0 .772-.149 1.465-.447 2.08 -.293.611-.715 1.087-1.267 1.429 -.547.341-1.177.512-1.89.512 -1.074 0-1.945-.373-2.614-1.12 -.664-.747-.996-1.736-.996-2.967v-.095Zm1.362.161c0 .879.203 1.585.608 2.117 .41.532.957.798 1.64.798 .689 0 1.236-.268 1.641-.805 .405-.542.608-1.299.608-2.271 0-.869-.207-1.572-.623-2.109 -.41-.542-.957-.813-1.64-.813 -.669 0-1.209.266-1.619.798 -.41.532-.615 1.294-.615 2.285Z"/><path d="M64.85 130.344c-.528.62-1.301.93-2.322.93 -.845 0-1.489-.244-1.934-.732 -.439-.493-.661-1.221-.666-2.183v-5.156h1.355v5.12c0 1.201.488 1.801 1.465 1.801 1.035 0 1.723-.385 2.065-1.157v-5.764h1.355v7.925h-1.289l-.029-.784Z"/><path d="M78.041 128.345h-4.468l-1.003 2.783h-1.451l4.073-10.664h1.23l4.08 10.664h-1.443l-1.018-2.783Zm-4.043-1.158h3.625l-1.816-4.987 -1.809 4.987Z"/><path d="M85.555 124.419c-.205-.034-.427-.052-.666-.052 -.889 0-1.492.379-1.809 1.136v5.625h-1.355v-7.925h1.318l.022.915c.444-.708 1.074-1.062 1.89-1.062 .263 0 .464.035.6.103v1.26Z"/><path d="M90.631 124.419c-.205-.034-.427-.052-.666-.052 -.889 0-1.492.379-1.81 1.136v5.625H86.8v-7.925h1.319l.022.915c.444-.708 1.074-1.062 1.889-1.062 .264 0 .464.035.601.103v1.26Z"/><path d="M95.026 131.274c-1.075 0-1.949-.351-2.622-1.054 -.674-.708-1.011-1.653-1.011-2.835v-.249c0-.786.149-1.487.447-2.102 .302-.62.722-1.104 1.259-1.45 .542-.352 1.128-.528 1.758-.528 1.03 0 1.831.34 2.402 1.019 .572.678.857 1.65.857 2.915v.564h-5.368c.019.781.246 1.413.681 1.896 .439.479.996.718 1.67.718 .478 0 .884-.097 1.216-.293 .332-.195.622-.454.871-.776l.828.644c-.664 1.021-1.66 1.531-2.988 1.531Zm-.169-7.104c-.547 0-1.006.2-1.377.6 -.371.396-.6.952-.688 1.67h3.969v-.102c-.039-.689-.224-1.221-.556-1.597 -.332-.381-.781-.571-1.348-.571Z"/><path d="M103.514 124.419c-.205-.034-.427-.052-.666-.052 -.889 0-1.492.379-1.809 1.136v5.625h-1.355v-7.925h1.318l.022.915c.444-.708 1.074-1.062 1.89-1.062 .263 0 .464.035.6.103v1.26Z"/><path d="M106.232 131.128h-1.355v-7.925h1.355v7.925Zm-1.465-10.027c0-.22.066-.405.198-.557 .136-.151.336-.227.6-.227 .264 0 .464.076.601.227 .136.152.205.337.205.557 0 .22-.069.403-.205.549 -.137.147-.337.22-.601.22 -.264 0-.464-.073-.6-.22 -.132-.146-.198-.329-.198-.549Z"/><path d="M108.07 127.099c0-1.215.288-2.192.864-2.929 .576-.742 1.331-1.114 2.263-1.114 .928 0 1.663.318 2.205.953v-4.131h1.355v11.25h-1.245l-.066-.85c-.542.664-1.296.996-2.263.996 -.918 0-1.668-.376-2.249-1.128 -.576-.752-.864-1.733-.864-2.944v-.103Zm1.355.154c0 .899.186 1.602.557 2.11 .371.507.883.761 1.538.761 .859 0 1.487-.385 1.882-1.157v-3.64c-.405-.747-1.028-1.121-1.868-1.121 -.664 0-1.181.257-1.552.769 -.371.513-.557 1.272-.557 2.278Z"/><path d="M118.258 123.203v8.84c0 1.524-.691 2.285-2.073 2.285 -.298 0-.573-.044-.827-.131v-1.084c.156.039.361.058.615.058 .303 0 .532-.083.688-.249 .161-.161.242-.444.242-.849v-8.87h1.355Zm-1.494-2.102c0-.215.066-.398.198-.549 .136-.157.334-.235.593-.235 .264 0 .464.076.6.227 .137.152.206.337.206.557 0 .22-.069.403-.206.549 -.136.147-.336.22-.6.22 -.264 0-.462-.073-.593-.22 -.132-.146-.198-.329-.198-.549Z"/><path d="M289.896 179.866h-1.414l-5.369-8.218v8.218H281.7v-10.664h1.413l5.384 8.254v-8.254h1.399v10.664Z"/><path d="M295.469 180.012c-1.074 0-1.948-.351-2.622-1.055 -.674-.708-1.01-1.652-1.01-2.834v-.249c0-.786.148-1.487.446-2.102 .303-.62.723-1.104 1.26-1.45 .542-.352 1.128-.528 1.758-.528 1.03 0 1.831.34 2.402 1.018 .572.679.857 1.651.857 2.915v.564h-5.368c.019.782.246 1.414.681 1.897 .439.479.996.718 1.67.718 .478 0 .883-.098 1.215-.293 .332-.195.623-.454.872-.776l.828.644c-.664 1.021-1.661 1.531-2.989 1.531Zm-.168-7.104c-.547 0-1.006.2-1.377.6 -.371.396-.601.952-.689 1.67h3.97v-.102c-.039-.689-.224-1.221-.556-1.597 -.332-.381-.782-.571-1.348-.571Z"/><path d="M307.144 177.998l1.524-6.057h1.355l-2.308 7.925h-1.098l-1.926-6.006 -1.875 6.006h-1.099l-2.3-7.925h1.348l1.56 5.932 1.846-5.932h1.091l1.882 6.057Z"/><path d="M323.17 176.482c-.132 1.128-.55 1.999-1.253 2.615 -.698.61-1.628.915-2.79.915 -1.26 0-2.271-.452-3.033-1.355 -.757-.903-1.135-2.112-1.135-3.625v-1.026c0-.991.176-1.863.527-2.615 .357-.751.86-1.328 1.509-1.728 .65-.405 1.402-.608 2.256-.608 1.133 0 2.041.317 2.725.952 .683.63 1.081 1.504 1.194 2.622h-1.414c-.122-.849-.388-1.465-.798-1.845 -.406-.381-.975-.572-1.707-.572 -.898 0-1.604.332-2.117.996 -.507.664-.761 1.609-.761 2.835v1.033c0 1.157.241 2.077.725 2.761 .483.683 1.159 1.025 2.029 1.025 .781 0 1.379-.176 1.794-.527 .42-.357.698-.974.835-1.853h1.414Z"/><path d="M329.769 179.866c-.078-.157-.142-.435-.191-.835 -.63.654-1.382.981-2.256.981 -.781 0-1.423-.22-1.926-.659 -.498-.444-.747-1.006-.747-1.685 0-.825.313-1.465.938-1.919 .629-.459 1.513-.688 2.651-.688h1.318v-.623c0-.473-.141-.849-.425-1.128 -.283-.283-.7-.424-1.252-.424 -.483 0-.889.122-1.216.366 -.327.244-.491.539-.491.886h-1.362c0-.395.139-.776.418-1.143 .283-.371.664-.664 1.142-.878 .484-.215 1.013-.323 1.59-.323 .913 0 1.628.23 2.146.689 .517.454.786 1.081.805 1.882v3.648c0 .727.093 1.306.279 1.735v.118h-1.421Zm-2.249-1.033c.425 0 .828-.11 1.209-.33 .38-.219.656-.505.827-.857v-1.626h-1.062c-1.66 0-2.49.486-2.49 1.458 0 .425.142.757.425.996 .283.239.647.359 1.091.359Z"/><path d="M339.73 175.991c0 1.206-.276 2.178-.828 2.915 -.552.737-1.299 1.106-2.241 1.106 -.962 0-1.719-.305-2.271-.915v3.815h-1.355v-10.971h1.238l.066.879c.552-.684 1.318-1.026 2.3-1.026 .952 0 1.704.359 2.256 1.077 .556.718.835 1.716.835 2.996v.124Zm-1.355-.154c0-.893-.191-1.599-.572-2.116 -.381-.518-.903-.777-1.567-.777 -.82 0-1.436.364-1.846 1.092v3.786c.406.723 1.026 1.084 1.861 1.084 .649 0 1.164-.256 1.545-.769 .386-.517.579-1.284.579-2.3Z"/><path d="M342.923 179.866h-1.355v-7.925h1.355v7.925Zm-1.465-10.027c0-.22.066-.406.198-.557 .137-.151.337-.227.6-.227 .264 0 .464.076.601.227 .137.151.205.337.205.557 0 .219-.068.403-.205.549 -.137.147-.337.22-.601.22 -.263 0-.463-.073-.6-.22 -.132-.146-.198-.33-.198-.549Z"/><path d="M346.929 170.022v1.919h1.48v1.047h-1.48v4.915c0 .317.066.556.198.717 .132.157.356.235.674.235 .156 0 .371-.029.644-.088v1.099c-.356.097-.703.146-1.04.146 -.605 0-1.062-.183-1.369-.549 -.308-.366-.462-.886-.462-1.56v-4.915h-1.443v-1.047h1.443v-1.919h1.355Z"/><path d="M354.883 179.866c-.078-.157-.141-.435-.19-.835 -.63.654-1.382.981-2.256.981 -.781 0-1.423-.22-1.926-.659 -.498-.444-.747-1.006-.747-1.685 0-.825.312-1.465.937-1.919 .63-.459 1.514-.688 2.652-.688h1.318v-.623c0-.473-.142-.849-.425-1.128 -.283-.283-.7-.424-1.252-.424 -.484 0-.889.122-1.216.366 -.327.244-.491.539-.491.886h-1.362c0-.395.139-.776.417-1.143 .284-.371.664-.664 1.143-.878 .483-.215 1.013-.323 1.589-.323 .913 0 1.629.23 2.146.689 .518.454.786 1.081.806 1.882v3.648c0 .727.093 1.306.278 1.735v.118h-1.421Zm-2.248-1.033c.425 0 .827-.11 1.208-.33 .381-.219.657-.505.828-.857v-1.626h-1.062c-1.66 0-2.49.486-2.49 1.458 0 .425.141.757.425.996 .283.239.647.359 1.091.359Z"/><path d="M358.267 168.616h1.355v11.25h-1.355Z"/><path d="M364.749 174.783h3.574v1.106h-3.574Z"/><path d="M373.567 179.866v-10.664h3.487c1.157 0 2.026.239 2.607.717 .586.479.879 1.187.879 2.124 0 .498-.141.94-.425 1.326 -.283.381-.669.676-1.157.886 .576.161 1.03.469 1.362.923 .337.449.506.986.506 1.611 0 .957-.31 1.709-.93 2.256 -.621.547-1.497.821-2.63.821h-3.699Zm1.407-4.988v3.838h2.322c.654 0 1.169-.169 1.545-.506 .381-.341.571-.81.571-1.406 0-1.284-.698-1.926-2.095-1.926h-2.343Zm0-1.128h2.124c.615 0 1.106-.154 1.472-.462 .371-.307.557-.725.557-1.252 0-.586-.171-1.011-.513-1.274 -.342-.269-.862-.403-1.56-.403h-2.08v3.391Z"/><path d="M382.335 175.83c0-.776.151-1.475.454-2.095 .307-.62.732-1.098 1.274-1.435 .547-.337 1.17-.506 1.868-.506 1.079 0 1.95.374 2.615 1.121 .668.747 1.003 1.741 1.003 2.981v.095c0 .772-.149 1.465-.447 2.08 -.293.611-.715 1.087-1.267 1.428 -.547.342-1.177.513-1.89.513 -1.074 0-1.945-.373-2.614-1.121 -.664-.747-.996-1.735-.996-2.966v-.095Zm1.362.161c0 .879.203 1.585.608 2.117 .41.532.957.798 1.64.798 .689 0 1.236-.268 1.641-.806 .405-.542.608-1.298.608-2.27 0-.869-.208-1.572-.623-2.109 -.41-.542-.957-.813-1.64-.813 -.669 0-1.209.266-1.619.798 -.41.532-.615 1.294-.615 2.285Z"/><path d="M395.079 173.157c-.205-.035-.428-.052-.667-.052 -.888 0-1.491.379-1.809 1.136v5.625h-1.355v-7.925h1.319l.021.915c.445-.708 1.075-1.062 1.89-1.062 .264 0 .464.034.601.103v1.26Z"/><path d="M395.862 175.837c0-1.235.286-2.217.857-2.944 .572-.732 1.328-1.099 2.271-1.099 .967 0 1.721.342 2.263 1.026l.066-.879h1.238v7.734c0 1.026-.305 1.834-.916 2.424 -.605.591-1.421.887-2.446.887 -.571 0-1.13-.122-1.677-.366 -.547-.245-.965-.579-1.253-1.004l.703-.813c.581.718 1.292 1.077 2.132 1.077 .659 0 1.172-.186 1.538-.557 .371-.371.556-.893.556-1.567v-.681c-.542.625-1.281.937-2.219.937 -.928 0-1.679-.373-2.256-1.121 -.571-.747-.857-1.765-.857-3.054Zm1.363.154c0 .894.183 1.597.549 2.109 .366.508.879.762 1.538.762 .855 0 1.482-.388 1.882-1.164v-3.619c-.415-.756-1.037-1.135-1.867-1.135 -.659 0-1.175.257-1.546.769 -.371.513-.556 1.272-.556 2.278Z"/><path d="M414.554 174.936h-4.622v3.78h5.369v1.15h-6.775v-10.664h6.702v1.157h-5.296v3.428h4.622v1.149Z"/><path d="M416.956 168.616h1.355v11.25h-1.355Z"/><path d="M430.294 177.082h-4.468l-1.004 2.784h-1.45l4.072-10.664h1.231l4.079 10.664h-1.442l-1.018-2.784Zm-4.043-1.157h3.625l-1.816-4.988 -1.809 4.988Z"/><path d="M437.808 173.157c-.205-.035-.427-.052-.666-.052 -.889 0-1.492.379-1.809 1.136v5.625h-1.355v-7.925h1.318l.022.915c.444-.708 1.074-1.062 1.89-1.062 .263 0 .463.034.6.103v1.26Z"/><path d="M443.653 179.866c-.078-.157-.142-.435-.191-.835 -.629.654-1.381.981-2.255.981 -.782 0-1.424-.22-1.927-.659 -.498-.444-.747-1.006-.747-1.685 0-.825.313-1.465.938-1.919 .63-.459 1.513-.688 2.651-.688h1.319v-.623c0-.473-.142-.849-.425-1.128 -.283-.283-.701-.424-1.253-.424 -.483 0-.888.122-1.216.366 -.327.244-.49.539-.49.886h-1.363c0-.395.14-.776.418-1.143 .283-.371.664-.664 1.142-.878 .484-.215 1.014-.323 1.59-.323 .913 0 1.628.23 2.146.689 .517.454.786 1.081.806 1.882v3.648c0 .727.092 1.306.278 1.735v.118h-1.421Zm-2.249-1.033c.425 0 .828-.11 1.209-.33 .381-.219.657-.505.828-.857v-1.626h-1.062c-1.661 0-2.491.486-2.491 1.458 0 .425.142.757.425.996 .283.239.647.359 1.091.359Z"/><path d="M453.629 175.991c0 1.211-.279 2.185-.835 2.922 -.557.733-1.304 1.099-2.242 1.099 -1.001 0-1.775-.354-2.321-1.062l-.066.916h-1.245v-11.25h1.355v4.196c.546-.678 1.301-1.018 2.263-1.018s1.716.364 2.263 1.092c.552.727.828 1.723.828 2.988v.117Zm-1.355-.154c0-.923-.179-1.635-.535-2.138 -.357-.503-.869-.755-1.538-.755 -.894 0-1.536.415-1.926 1.245v3.428c.415.83 1.062 1.245 1.94 1.245 .65 0 1.155-.251 1.517-.754 .361-.503.542-1.26.542-2.271Z"/><path d="M385.931 125.295h-4.468l-1.004 2.784h-1.45l4.073-10.664h1.23l4.08 10.664h-1.443l-1.018-2.784Zm-4.043-1.157h3.625l-1.816-4.988 -1.809 4.988Z"/><path d="M389.732 116.829h1.355v11.25h-1.355Z"/><path d="M392.501 122.996h3.574v1.106h-3.574Z"/><path d="M398.221 117.642l-.154 2.695h-.945l.007-3.508h1.092v.813Z"/><path d="M407.728 117.415v7.25c-.005 1.006-.323 1.829-.953 2.469 -.625.639-1.474.998-2.548 1.076l-.374.015c-1.167 0-2.097-.315-2.79-.945 -.694-.63-1.045-1.496-1.055-2.6v-7.265h1.391v7.221c0 .772.213 1.372.638 1.802 .424.425 1.03.637 1.816.637 .796 0 1.404-.212 1.824-.637 .425-.425.637-1.023.637-1.794v-7.229h1.414Z"/><path d="M409.852 116.829h1.355v11.25h-1.355Z"/><path d="M418.267 128.079c-.078-.157-.141-.435-.19-.835 -.63.654-1.382.981-2.256.981 -.781 0-1.424-.22-1.926-.659 -.498-.444-.748-1.006-.748-1.685 0-.825.313-1.465.938-1.919 .63-.459 1.514-.688 2.651-.688h1.319v-.623c0-.473-.142-.849-.425-1.128 -.283-.283-.701-.424-1.253-.424 -.483 0-.888.122-1.215.366 -.328.244-.491.539-.491.886h-1.362c0-.395.139-.776.417-1.143 .283-.371.664-.664 1.143-.878 .483-.215 1.013-.323 1.589-.323 .913 0 1.628.23 2.146.689 .518.454.786 1.081.806 1.882v3.648c0 .727.092 1.306.278 1.735v.118h-1.421Zm-2.248-1.033c.424 0 .827-.11 1.208-.33 .381-.219.657-.505.828-.857v-1.626h-1.062c-1.66 0-2.491.486-2.491 1.458 0 .425.142.757.425.996 .283.239.647.359 1.092.359Z"/><path d="M432.535 118.572h-3.428v9.507h-1.399v-9.507h-3.42v-1.157h8.247v1.157Z"/><path d="M437.186 121.37c-.206-.035-.428-.052-.667-.052 -.889 0-1.492.379-1.809 1.136v5.625h-1.355v-7.925h1.318l.022.915c.445-.708 1.075-1.062 1.89-1.062 .264 0 .464.034.601.103v1.26Z"/><path d="M443.03 128.079c-.078-.157-.141-.435-.19-.835 -.63.654-1.382.981-2.256.981 -.781 0-1.423-.22-1.926-.659 -.498-.444-.747-1.006-.747-1.685 0-.825.312-1.465.937-1.919 .63-.459 1.514-.688 2.652-.688h1.318v-.623c0-.473-.142-.849-.425-1.128 -.283-.283-.701-.424-1.252-.424 -.484 0-.889.122-1.216.366 -.327.244-.491.539-.491.886h-1.362c0-.395.139-.776.417-1.143 .283-.371.664-.664 1.143-.878 .483-.215 1.013-.323 1.589-.323 .913 0 1.629.23 2.146.689 .518.454.786 1.081.806 1.882v3.648c0 .727.093 1.306.278 1.735v.118h-1.421Zm-2.248-1.033c.425 0 .827-.11 1.208-.33 .381-.219.657-.505.828-.857v-1.626h-1.062c-1.66 0-2.49.486-2.49 1.458 0 .425.141.757.424.996 .284.239.647.359 1.092.359Z"/><path d="M447.571 120.154l.037.879c.581-.684 1.365-1.026 2.351-1.026 1.108 0 1.863.425 2.263 1.275 .264-.381.606-.689 1.026-.923 .424-.235.925-.352 1.501-.352 1.738 0 2.622.921 2.651 2.762v5.31h-1.355v-5.23c0-.566-.129-.989-.388-1.267 -.259-.283-.693-.425-1.303-.425 -.503 0-.921.152-1.253.454 -.332.298-.525.701-.579 1.209v5.259h-1.362v-5.193c0-1.153-.564-1.729-1.692-1.729 -.888 0-1.496.379-1.823 1.135v5.787h-1.355v-7.925h1.281Z"/><path d="M117.617 24.999h-4.622v3.779h5.369v1.15h-6.775V19.264h6.702v1.157h-5.296v3.428h4.622v1.15Z"/><path d="M124.67 29.144c-.527.62-1.301.93-2.322.93 -.844 0-1.489-.244-1.933-.732 -.44-.493-.662-1.221-.667-2.183v-5.156h1.355v5.12c0 1.201.489 1.801 1.465 1.801 1.035 0 1.724-.385 2.066-1.157v-5.764h1.355v7.925H124.7l-.03-.784Z"/><path d="M131.877 23.219c-.205-.034-.427-.051-.666-.051 -.889 0-1.492.378-1.809 1.135v5.625h-1.355v-7.925h1.318l.022.916c.444-.708 1.074-1.062 1.89-1.062 .263 0 .464.034.6.102v1.26Z"/><path d="M132.617 25.892c0-.776.151-1.474.454-2.094 .308-.621.733-1.099 1.275-1.436 .546-.337 1.169-.505 1.867-.505 1.079 0 1.951.373 2.615 1.12 .669.747 1.003 1.741 1.003 2.981v.095c0 .772-.149 1.465-.446 2.08 -.293.611-.716 1.087-1.267 1.429 -.547.341-1.177.512-1.89.512 -1.074 0-1.946-.373-2.615-1.12 -.664-.747-.996-1.736-.996-2.967v-.095Zm1.362.161c0 .879.203 1.585.608 2.117 .41.532.957.798 1.641.798 .688 0 1.235-.268 1.641-.805 .405-.542.607-1.299.607-2.271 0-.869-.207-1.572-.622-2.109 -.41-.542-.957-.813-1.641-.813 -.669 0-1.208.266-1.618.798 -.411.532-.616 1.294-.616 2.285Z"/><path d="M143.369 20.084v1.919h1.479v1.047h-1.479v4.915c0 .317.066.557.198.718 .132.156.356.234.674.234 .156 0 .371-.029.644-.088v1.099c-.356.098-.703.146-1.04.146 -.605 0-1.062-.183-1.37-.549 -.307-.366-.461-.886-.461-1.56V23.05h-1.443v-1.047h1.443v-1.919h1.355Z"/><path d="M151.323 29.144c-.527.62-1.301.93-2.322.93 -.844 0-1.489-.244-1.933-.732 -.44-.493-.662-1.221-.667-2.183v-5.156h1.355v5.12c0 1.201.488 1.801 1.465 1.801 1.035 0 1.724-.385 2.065-1.157v-5.764h1.355v7.925h-1.289l-.029-.784Z"/><path d="M155.981 22.003l.044.996c.606-.762 1.397-1.142 2.373-1.142 1.675 0 2.52.944 2.534 2.834v5.237h-1.355v-5.244c-.004-.572-.136-.994-.395-1.267 -.254-.274-.652-.411-1.194-.411 -.439 0-.825.118-1.157.352 -.332.234-.591.542-.776.923v5.647H154.7v-7.925h1.281Z"/><path d="M164.258 22.003l.044.996c.605-.762 1.396-1.142 2.373-1.142 1.674 0 2.519.944 2.534 2.834v5.237h-1.355v-5.244c-.005-.572-.137-.994-.396-1.267 -.254-.274-.652-.411-1.194-.411 -.439 0-.825.118-1.157.352 -.332.234-.591.542-.776.923v5.647h-1.355v-7.925h1.282Z"/><path d="M174.541 30.074c-1.074 0-1.948-.351-2.622-1.054 -.674-.708-1.011-1.653-1.011-2.835v-.249c0-.786.149-1.487.447-2.102 .303-.62.722-1.103 1.26-1.45 .542-.352 1.128-.527 1.757-.527 1.031 0 1.831.339 2.403 1.018 .571.678.857 1.65.857 2.915v.564h-5.369c.02.781.247 1.413.681 1.897 .44.478.996.717 1.67.717 .479 0 .884-.097 1.216-.293 .332-.195.622-.454.872-.776l.827.645c-.664 1.02-1.66 1.53-2.988 1.53Zm-.169-7.104c-.546 0-1.005.2-1.377.6 -.371.396-.6.953-.688 1.67h3.97v-.102c-.039-.689-.225-1.221-.557-1.597 -.332-.381-.781-.571-1.348-.571Z"/><path d="M179.316 18.678h1.355v11.25h-1.355Z"/><path d="M19.252 77.453h-4.475v4.709h-1.406V71.498h6.606v1.158h-5.2v3.647h4.475v1.15Z"/><path d="M25.089 75.453c-.205-.034-.427-.051-.666-.051 -.889 0-1.492.379-1.809 1.135v5.625h-1.355v-7.924h1.318l.022.915c.444-.708 1.074-1.062 1.89-1.062 .263 0 .464.034.6.103v1.259Z"/><path d="M29.484 82.309c-1.074 0-1.948-.352-2.622-1.055 -.674-.708-1.011-1.653-1.011-2.834v-.249c0-.786.149-1.487.447-2.102 .303-.62.723-1.104 1.26-1.451 .542-.351 1.128-.527 1.757-.527 1.031 0 1.831.339 2.403 1.018 .571.679.857 1.651.857 2.915v.564h-5.369c.02.781.247 1.414.681 1.897 .44.479.996.718 1.67.718 .479 0 .884-.098 1.216-.293 .332-.195.623-.454.872-.776l.827.644c-.664 1.021-1.66 1.531-2.988 1.531Zm-.169-7.105c-.546 0-1.005.201-1.377.601 -.371.396-.6.952-.688 1.67h3.97v-.103c-.039-.688-.225-1.22-.557-1.596 -.332-.381-.781-.572-1.348-.572Z"/><path d="M35.424 74.238l.044.996c.605-.762 1.396-1.143 2.373-1.143 1.675 0 2.519.945 2.534 2.835v5.236H39.02v-5.244c-.005-.571-.137-.993-.395-1.267 -.254-.273-.652-.41-1.194-.41 -.44 0-.826.117-1.158.352 -.332.234-.59.542-.776.922v5.647h-1.355v-7.924h1.282Z"/><path d="M45.597 81.203c.484 0 .906-.147 1.267-.439 .362-.293.562-.66.601-1.099h1.282c-.025.454-.181.886-.469 1.296 -.288.41-.674.738-1.157.982 -.479.244-.987.366-1.524.366 -1.079 0-1.938-.359-2.578-1.077 -.635-.722-.952-1.709-.952-2.959v-.227c0-.771.142-1.457.425-2.058 .283-.6.688-1.067 1.216-1.399 .532-.332 1.159-.498 1.882-.498 .889 0 1.626.266 2.212.798 .591.533.906 1.224.945 2.073h-1.282c-.039-.512-.235-.932-.586-1.26 -.347-.332-.776-.498-1.289-.498 -.689 0-1.223.249-1.604.747 -.376.494-.564 1.209-.564 2.146v.257c0 .913.188 1.616.564 2.109 .376.493.913.74 1.611.74Z"/><path d="M51.625 75.197c.601-.737 1.382-1.106 2.344-1.106 1.675 0 2.519.945 2.534 2.835v5.236h-1.355v-5.244c-.005-.571-.137-.993-.396-1.267 -.253-.273-.651-.41-1.193-.41 -.44 0-.826.117-1.158.352 -.332.234-.59.542-.776.922v5.647H50.27v-11.25h1.355v4.285Z"/><path d="M66.076 75.453c-.205-.034-.428-.051-.667-.051 -.888 0-1.492.379-1.809 1.135v5.625h-1.355v-7.924h1.318l.022.915c.445-.708 1.075-1.062 1.89-1.062 .264 0 .464.034.601.103v1.259Z"/><path d="M71.92 82.162c-.078-.156-.141-.434-.19-.835 -.63.655-1.382.982-2.256.982 -.781 0-1.423-.22-1.926-.659 -.498-.445-.747-1.006-.747-1.685 0-.825.312-1.465.937-1.919 .63-.459 1.514-.688 2.652-.688h1.318v-.623c0-.473-.142-.849-.425-1.128 -.283-.283-.7-.425-1.252-.425 -.484 0-.889.123-1.216.367 -.327.244-.491.539-.491.886h-1.362c0-.396.139-.776.417-1.143 .284-.371.664-.664 1.143-.879 .483-.214 1.013-.322 1.589-.322 .913 0 1.629.23 2.146.689 .518.454.786 1.081.806 1.882v3.647c0 .728.093 1.307.278 1.736v.117H71.92Zm-2.248-1.032c.425 0 .828-.11 1.208-.33 .381-.22.657-.505.828-.857v-1.626h-1.062c-1.66 0-2.49.486-2.49 1.458 0 .425.141.757.425.996 .283.239.647.359 1.091.359Z"/><path d="M76.659 82.162h-1.355v-7.924h1.355v7.924Zm-1.465-10.026c0-.22.066-.406.198-.557 .137-.151.337-.227.601-.227 .263 0 .464.076.6.227 .137.151.205.337.205.557 0 .219-.068.402-.205.549 -.136.146-.337.22-.6.22 -.264 0-.464-.074-.601-.22 -.132-.147-.198-.33-.198-.549Z"/><path d="M78.944 70.912h1.355v11.25h-1.355Z"/><path d="M89.484 80.295l1.523-6.057h1.355l-2.307 7.924h-1.098l-1.927-6.005 -1.875 6.005h-1.098l-2.3-7.924h1.347l1.561 5.932 1.845-5.932h1.092l1.882 6.057Z"/><path d="M98.632 82.162c-.078-.156-.142-.434-.191-.835 -.629.655-1.381.982-2.255.982 -.782 0-1.424-.22-1.927-.659 -.498-.445-.747-1.006-.747-1.685 0-.825.313-1.465.938-1.919 .63-.459 1.513-.688 2.651-.688h1.318v-.623c0-.473-.141-.849-.424-1.128 -.284-.283-.701-.425-1.253-.425 -.483 0-.888.123-1.216.367 -.327.244-.49.539-.49.886h-1.363c0-.396.14-.776.418-1.143 .283-.371.664-.664 1.142-.879 .484-.214 1.014-.322 1.59-.322 .913 0 1.628.23 2.146.689 .517.454.786 1.081.805 1.882v3.647c0 .728.093 1.307.279 1.736v.117h-1.421Zm-2.249-1.032c.425 0 .828-.11 1.209-.33 .381-.22.657-.505.827-.857v-1.626h-1.062c-1.66 0-2.49.486-2.49 1.458 0 .425.142.757.425.996 .283.239.647.359 1.091.359Z"/><path d="M104.381 80.178l1.846-5.94h1.45l-3.186 9.148c-.493 1.318-1.277 1.977-2.351 1.977l-.256-.022 -.506-.095v-1.099l.367.03c.459 0 .815-.093 1.069-.279 .259-.185.471-.525.637-1.018l.3-.805 -2.827-7.837h1.48l1.977 5.94Z"/><path d="M3.794 48.86c-1.206-.347-2.085-.772-2.637-1.275 -.547-.508-.82-1.133-.82-1.875 0-.84.334-1.533 1.003-2.08 .674-.552 1.548-.828 2.622-.828 .733 0 1.385.142 1.956.425 .576.284 1.02.674 1.333 1.172 .317.498.476 1.043.476 1.633H6.313c0-.644-.205-1.149-.615-1.516 -.41-.371-.989-.556-1.736-.556 -.693 0-1.235.154-1.626.461 -.385.303-.578.725-.578 1.267 0 .435.183.803.549 1.106 .371.298.999.571 1.882.821 .889.249 1.582.524 2.081.827 .502.298.874.647 1.113 1.048 .244.4.366.871.366 1.413 0 .864-.337 1.558-1.011 2.08 -.674.518-1.574.777-2.702.777 -.733 0-1.416-.14-2.051-.418 -.635-.283-1.126-.669-1.472-1.157 -.342-.488-.513-1.043-.513-1.663h1.414c0 .645.236 1.155.71 1.531 .479.371 1.116.557 1.912.557 .742 0 1.311-.152 1.706-.454 .396-.303.593-.716.593-1.238 0-.523-.183-.926-.549-1.209 -.366-.288-1.03-.571-1.992-.849Z"/><path d="M16.355 51.745l1.523-6.057h1.355l-2.307 7.925h-1.098l-1.927-6.006 -1.875 6.006h-1.098l-2.3-7.925h1.348l1.56 5.933 1.845-5.933h1.092l1.882 6.057Z"/><path d="M22.083 53.613h-1.355v-7.925h1.355v7.925Zm-1.465-10.027c0-.22.066-.405.197-.556 .137-.152.337-.228.601-.228 .264 0 .464.076.601.228 .136.151.205.336.205.556 0 .22-.069.403-.205.55 -.137.146-.337.219-.601.219 -.264 0-.464-.073-.601-.219 -.131-.147-.197-.33-.197-.55Z"/><path d="M28.865 51.511c0-.366-.139-.649-.418-.85 -.273-.205-.754-.38-1.443-.527 -.683-.146-1.228-.322-1.633-.527 -.4-.205-.698-.45-.893-.733 -.191-.283-.286-.62-.286-1.01 0-.65.273-1.199.82-1.648 .552-.45 1.255-.674 2.11-.674 .898 0 1.626.232 2.182.696 .562.463.842 1.057.842 1.779h-1.362c0-.371-.159-.691-.476-.959 -.312-.269-.708-.403-1.186-.403 -.494 0-.879.107-1.158.322 -.278.215-.417.496-.417.843 0 .327.129.573.388.739 .259.166.725.325 1.399.476 .679.152 1.228.332 1.648.542 .42.21.73.464.93.762 .205.293.308.652.308 1.077 0 .708-.283 1.277-.85 1.706 -.566.425-1.301.638-2.204.638 -.635 0-1.197-.113-1.685-.337 -.488-.225-.872-.537-1.15-.938 -.273-.405-.41-.842-.41-1.311h1.355c.024.454.205.816.542 1.084 .342.264.791.396 1.348.396 .512 0 .922-.103 1.23-.308 .312-.21.469-.488.469-.835Z"/><path d="M36.599 51.511c0-.366-.139-.649-.417-.85 -.274-.205-.755-.38-1.443-.527 -.684-.146-1.228-.322-1.634-.527 -.4-.205-.698-.45-.893-.733 -.191-.283-.286-.62-.286-1.01 0-.65.274-1.199.821-1.648 .551-.45 1.254-.674 2.109-.674 .898 0 1.626.232 2.183.696 .561.463.842 1.057.842 1.779h-1.362c0-.371-.159-.691-.477-.959 -.312-.269-.708-.403-1.186-.403 -.493 0-.879.107-1.157.322 -.279.215-.418.496-.418.843 0 .327.13.573.388.739 .259.166.726.325 1.399.476 .679.152 1.228.332 1.648.542 .42.21.73.464.93.762 .206.293.308.652.308 1.077 0 .708-.283 1.277-.85 1.706 -.566.425-1.301.638-2.204.638 -.635 0-1.196-.113-1.685-.337 -.488-.225-.871-.537-1.15-.938 -.273-.405-.41-.842-.41-1.311h1.355c.025.454.205.816.542 1.084 .342.264.791.396 1.348.396 .513 0 .923-.103 1.23-.308 .313-.21.469-.488.469-.835Z"/><path d="M44.707 45.688l.037.879c.581-.683 1.364-1.025 2.351-1.025 1.108 0 1.863.425 2.263 1.274 .264-.381.605-.688 1.025-.923 .425-.234.926-.351 1.502-.351 1.738 0 2.622.92 2.651 2.761v5.31h-1.355v-5.229c0-.567-.129-.989-.388-1.268 -.259-.283-.693-.424-1.304-.424 -.503 0-.92.151-1.252.454 -.332.298-.525.7-.579 1.208v5.259h-1.362V48.42c0-1.152-.564-1.728-1.692-1.728 -.889 0-1.497.378-1.824 1.135v5.786h-1.355v-7.925h1.282Z"/><path d="M59.868 53.76c-1.074 0-1.948-.352-2.622-1.055 -.674-.708-1.011-1.653-1.011-2.835v-.249c0-.786.149-1.486.447-2.102 .303-.62.723-1.103 1.26-1.45 .542-.351 1.128-.527 1.758-.527 1.03 0 1.831.339 2.402 1.018 .571.679.857 1.65.857 2.915v.564H57.59c.02.781.247 1.413.681 1.897 .44.478.997.718 1.67.718 .479 0 .884-.098 1.216-.293 .332-.196.623-.455.872-.777l.827.645c-.664 1.02-1.66 1.531-2.988 1.531Zm-.168-7.105c-.547 0-1.006.2-1.377.601 -.371.395-.601.952-.689 1.67h3.97v-.103c-.039-.688-.225-1.221-.557-1.597 -.332-.381-.781-.571-1.347-.571Z"/><path d="M66.365 43.769v1.919h1.479v1.048h-1.479v4.914c0 .318.066.557.197.718 .132.156.357.234.674.234 .157 0 .371-.029.645-.088v1.099c-.357.098-.703.147-1.04.147 -.606 0-1.062-.184-1.37-.55 -.307-.366-.461-.886-.461-1.56v-4.914h-1.443v-1.048h1.443v-1.919h1.355Z"/><path d="M73.257 46.904c-.205-.034-.427-.051-.667-.051 -.888 0-1.491.378-1.809 1.135v5.625h-1.355v-7.925h1.319l.022.916c.444-.708 1.074-1.062 1.889-1.062 .264 0 .464.034.601.102v1.26Z"/><path d="M75.974 53.613h-1.355v-7.925h1.355v7.925Zm-1.465-10.027c0-.22.066-.405.198-.556 .137-.152.337-.228.601-.228 .263 0 .463.076.6.228 .137.151.205.336.205.556 0 .22-.068.403-.205.55 -.137.146-.337.219-.6.219 -.264 0-.464-.073-.601-.219 -.132-.147-.198-.33-.198-.55Z"/><path d="M81.321 52.654c.483 0 .906-.147 1.267-.44 .361-.293.561-.659.6-1.099h1.282c-.024.455-.18.887-.469 1.297 -.288.41-.673.737-1.157.981 -.478.244-.986.367-1.523.367 -1.079 0-1.939-.359-2.578-1.077 -.635-.723-.952-1.709-.952-2.959v-.227c0-.772.141-1.458.424-2.058 .284-.601.689-1.067 1.216-1.399 .532-.332 1.16-.498 1.882-.498 .889 0 1.626.266 2.212.798 .591.532.906 1.223.945 2.073h-1.282c-.039-.513-.234-.933-.585-1.26 -.347-.332-.777-.498-1.29-.498 -.688 0-1.223.249-1.604.747 -.376.493-.563 1.209-.563 2.146v.256c0 .914.187 1.617.563 2.11 .376.493.914.74 1.612.74Z"/><path d="M89.824 42.363h1.355v11.25h-1.355Z"/><path d="M94.819 53.613h-1.355v-7.925h1.355v7.925Zm-1.465-10.027c0-.22.066-.405.198-.556 .137-.152.337-.228.601-.228 .264 0 .464.076.6.228 .137.151.205.336.205.556 0 .22-.068.403-.205.55 -.136.146-.336.219-.6.219 -.264 0-.464-.073-.601-.219 -.132-.147-.198-.33-.198-.55Z"/><path d="M98.269 45.688l.044.996c.605-.761 1.396-1.142 2.373-1.142 1.675 0 2.52.945 2.534 2.834v5.237h-1.355v-5.244c-.005-.571-.136-.994-.395-1.267 -.254-.274-.652-.41-1.194-.41 -.44 0-.825.117-1.157.351 -.332.235-.591.542-.777.923v5.647h-1.355v-7.925h1.282Z"/><path d="M108.552 53.76c-1.074 0-1.948-.352-2.622-1.055 -.674-.708-1.011-1.653-1.011-2.835v-.249c0-.786.149-1.486.447-2.102 .303-.62.723-1.103 1.26-1.45 .542-.351 1.128-.527 1.758-.527 1.03 0 1.831.339 2.402 1.018 .571.679.857 1.65.857 2.915v.564h-5.369c.02.781.247 1.413.682 1.897 .439.478.996.718 1.669.718 .479 0 .884-.098 1.216-.293 .332-.196.623-.455.872-.777l.828.645c-.665 1.02-1.661 1.531-2.989 1.531Zm-.168-7.105c-.547 0-1.006.2-1.377.601 -.371.395-.601.952-.689 1.67h3.97v-.103c-.039-.688-.225-1.221-.557-1.597 -.332-.381-.781-.571-1.347-.571Z"/><path d="M117.825 51.511c0-.366-.139-.649-.418-.85 -.273-.205-.754-.38-1.443-.527 -.683-.146-1.228-.322-1.633-.527 -.4-.205-.698-.45-.894-.733 -.19-.283-.285-.62-.285-1.01 0-.65.273-1.199.82-1.648 .552-.45 1.255-.674 2.11-.674 .898 0 1.626.232 2.182.696 .562.463.842 1.057.842 1.779h-1.362c0-.371-.159-.691-.476-.959 -.312-.269-.708-.403-1.186-.403 -.494 0-.879.107-1.158.322 -.278.215-.417.496-.417.843 0 .327.129.573.388.739 .259.166.725.325 1.399.476 .679.152 1.228.332 1.648.542 .42.21.73.464.93.762 .205.293.308.652.308 1.077 0 .708-.284 1.277-.85 1.706 -.566.425-1.301.638-2.205.638 -.634 0-1.196-.113-1.684-.337 -.488-.225-.872-.537-1.15-.938 -.273-.405-.41-.842-.41-1.311h1.355c.024.454.205.816.542 1.084 .342.264.791.396 1.347.396 .513 0 .923-.103 1.231-.308 .312-.21.469-.488.469-.835Z"/></g></svg>